<svg width="224" height="200" viewBox="0 0 224 200" fill="none" xmlns="http://www.w3.org/2000/svg">
<path d="M212.227 100.583C212.227 100.583 212.227 97.7802 208.303 93.8954C204.379 90.0107 201.89 87.7572 201.89 87.7572C201.89 87.7572 199.94 94.1701 203.572 98.0773C206.239 100.821 209.13 103.338 212.216 105.6L212.227 100.583Z" fill="#407BFF"/>
<path d="M206.566 117.994C206.566 117.994 206.566 115.191 202.642 111.307C198.718 107.422 196.24 105.168 196.24 105.168C196.24 105.168 194.284 111.581 197.922 115.489C200.588 118.233 203.48 120.749 206.566 123.011V117.994Z" fill="#407BFF"/>
<path d="M211.981 105.331C211.981 105.331 212.278 102.562 216.572 99.0919C220.866 95.622 223.596 93.6712 223.596 93.6712C223.596 93.6712 224.857 100.252 220.844 103.761C217.902 106.209 214.761 108.407 211.454 110.331L211.981 105.331Z" fill="#407BFF"/>
<path d="M205.142 125.893C205.142 125.893 205.702 123.168 210.361 120.169C215.019 117.17 217.912 115.517 217.912 115.517C217.912 115.517 218.472 122.199 214.116 125.254C210.934 127.379 207.579 129.236 204.088 130.803L205.142 125.893Z" fill="#407BFF"/>
<path d="M206.426 148.315C206.426 148.315 206.426 145.513 210.35 141.622C214.274 137.732 216.757 135.49 216.757 135.49C216.757 135.49 218.713 141.903 215.075 145.804C212.41 148.551 209.518 151.069 206.431 153.333L206.426 148.315Z" fill="#407BFF"/>
<path d="M206.364 153.787C206.364 153.787 206.756 151.029 203.449 146.611C200.142 142.194 197.972 139.627 197.972 139.627C197.972 139.627 195.13 145.698 198.163 150.076C200.411 153.172 202.914 156.075 205.646 158.753L206.364 153.787Z" fill="#407BFF"/>
<path d="M202.513 170.004C202.513 170.004 202.513 167.201 206.437 163.316C210.361 159.432 212.85 157.178 212.85 157.178C212.85 157.178 214.8 163.591 211.168 167.498C208.501 170.243 205.609 172.761 202.524 175.027L202.513 170.004Z" fill="#407BFF"/>
<path d="M205.12 184.708C205.12 184.708 204.414 182.011 207.2 177.247C209.986 172.482 211.852 169.69 211.852 169.69C211.852 169.69 215.362 175.397 212.845 180.094C210.962 183.425 208.803 186.592 206.392 189.562L205.12 184.708Z" fill="#407BFF"/>
<path d="M212.581 99.8711C212.385 102.773 212.029 105.663 211.516 108.526C209.968 116.498 206.112 121.644 204.57 128.841C203.029 136.039 207.457 145.316 206.252 154.566C205.047 163.815 201.47 168.956 202.496 175.128C203.522 181.299 208.926 198.016 208.926 198.016" stroke="#263238" stroke-linecap="round" stroke-linejoin="round"/>
<path d="M211.947 107.187L216.152 103.958" stroke="#263238" stroke-linecap="round" stroke-linejoin="round"/>
<path d="M212.144 103.47L210.378 100.336" stroke="#263238" stroke-linecap="round" stroke-linejoin="round"/>
<path d="M204.806 128.511C204.806 128.511 208.326 125.87 211.947 123.23" stroke="#263238" stroke-linecap="round" stroke-linejoin="round"/>
<path d="M206.566 123.011C206.566 123.011 203.629 117.26 200.305 113.448" stroke="#263238" stroke-linecap="round" stroke-linejoin="round"/>
<path d="M206.566 152.284C208.575 148.573 211.113 145.174 214.1 142.194" stroke="#263238" stroke-linecap="round" stroke-linejoin="round"/>
<path d="M205.882 156.197C204.814 153.681 203.537 151.258 202.065 148.955C200.013 145.922 199.716 145.529 199.716 145.529" stroke="#263238" stroke-linecap="round" stroke-linejoin="round"/>
<path d="M202.513 175.128C203.406 172.918 204.467 170.78 205.686 168.731C206.905 166.828 208.279 165.028 209.794 163.35" stroke="#263238" stroke-linecap="round" stroke-linejoin="round"/>
<path d="M206.392 189.562C206.188 187.45 206.552 185.321 207.446 183.396C208.915 180.559 210.574 176.843 211.258 175.374" stroke="#263238" stroke-linecap="round" stroke-linejoin="round"/>
<path d="M180.376 137.833C180.376 137.833 180.074 136.084 182.097 133.208C184.121 130.332 185.461 128.668 185.461 128.668C185.461 128.668 187.378 132.479 185.528 135.316C184.154 137.328 182.615 139.222 180.926 140.978L180.376 137.833Z" fill="#407BFF"/>
<path d="M185.82 148.136C185.82 148.136 185.517 146.387 187.541 143.511C189.564 140.636 190.904 138.971 190.904 138.971C190.904 138.971 192.821 142.783 190.971 145.625C189.596 147.634 188.057 149.526 186.369 151.281L185.82 148.136Z" fill="#407BFF"/>
<path d="M181.043 140.781C181.043 140.781 180.561 139.1 177.489 137.368C174.417 135.635 172.5 134.727 172.5 134.727C172.5 134.727 172.422 138.993 175.303 140.753C177.413 141.968 179.62 143.005 181.901 143.853L181.043 140.781Z" fill="#407BFF"/>
<path d="M187.568 152.935C187.568 152.935 186.906 151.287 183.678 149.908C180.449 148.529 178.431 147.811 178.431 147.811C178.431 147.811 178.801 152.06 181.873 153.506C184.099 154.493 186.403 155.291 188.762 155.894L187.568 152.935Z" fill="#407BFF"/>
<path d="M189.194 167.134C189.194 167.134 188.897 165.385 186.021 163.361C183.145 161.338 181.335 160.211 181.335 160.211C181.335 160.211 180.808 164.443 183.504 166.495C185.474 167.929 187.561 169.195 189.743 170.279L189.194 167.134Z" fill="#407BFF"/>
<path d="M189.833 170.559C189.833 170.559 189.272 168.877 190.881 165.738C192.49 162.599 193.555 160.766 193.555 160.766C193.555 160.766 195.993 164.264 194.57 167.341C193.497 169.526 192.242 171.617 190.819 173.592L189.833 170.559Z" fill="#407BFF"/>
<path d="M194.732 184.657C194.732 184.657 194.934 182.897 197.686 180.733C200.439 178.569 202.171 177.319 202.171 177.319C202.171 177.319 202.939 181.518 200.366 183.721C198.481 185.263 196.471 186.645 194.356 187.852L194.732 184.657Z" fill="#407BFF"/>
<path d="M193.998 180.307C193.998 180.307 193.695 178.558 190.825 176.535C187.955 174.511 186.15 173.384 186.15 173.384C186.15 173.384 185.623 177.616 188.319 179.674C190.291 181.106 192.378 182.371 194.559 183.458L193.998 180.307Z" fill="#407BFF"/>
<path d="M193.998 189.814C193.998 189.814 194.144 188.043 191.879 185.358C189.614 182.673 188.146 181.126 188.146 181.126C188.146 181.126 186.559 185.083 188.65 187.757C190.183 189.64 191.87 191.392 193.695 192.993L193.998 189.814Z" fill="#407BFF"/>
<path d="M180.079 137.418C180.518 139.218 181.055 140.992 181.688 142.732C183.521 147.564 186.498 150.373 188.247 154.717C189.996 159.062 188.247 165.368 189.973 171.035C191.7 176.703 194.559 179.539 194.559 183.519C194.559 187.499 193.011 198.571 193.011 198.571" stroke="#263238" stroke-linecap="round" stroke-linejoin="round"/>
<path d="M181.273 141.936L178.285 140.372" stroke="#263238" stroke-linecap="round" stroke-linejoin="round"/>
<path d="M180.746 139.627L181.508 137.474" stroke="#263238" stroke-linecap="round" stroke-linejoin="round"/>
<path d="M188.062 154.538C188.062 154.538 185.567 153.265 183.017 151.998" stroke="#263238" stroke-linecap="round" stroke-linejoin="round"/>
<path d="M186.363 151.281C187.099 148.971 188.066 146.742 189.25 144.627" stroke="#263238" stroke-linecap="round" stroke-linejoin="round"/>
<path d="M189.541 169.634C187.878 167.529 185.918 165.677 183.723 164.135" stroke="#263238" stroke-linecap="round" stroke-linejoin="round"/>
<path d="M190.394 172.011C190.793 170.319 191.331 168.664 192.002 167.061C192.961 164.936 193.124 164.656 193.124 164.656" stroke="#263238" stroke-linecap="round" stroke-linejoin="round"/>
<path d="M194.424 186.541C195.396 185.336 196.473 184.22 197.641 183.205C198.385 182.658 199.082 182.05 199.727 181.389" stroke="#263238" stroke-linecap="round" stroke-linejoin="round"/>
<path d="M194.559 183.519C193.758 182.227 192.86 180.998 191.874 179.842C190.902 178.781 189.844 177.803 188.712 176.916" stroke="#263238" stroke-linecap="round" stroke-linejoin="round"/>
<path d="M193.696 192.993C193.595 191.645 193.137 190.348 192.367 189.237C191.139 187.617 189.693 185.464 189.104 184.618" stroke="#263238" stroke-linecap="round" stroke-linejoin="round"/>
<path d="M21.1565 113.414L18.7012 106.402L21.1565 109.378L19.2281 98.8565L22.2103 106.402L23.2642 91.6644L25.0188 105.695L26.9471 102.893V106.402L29.2287 101.665L28.001 109.905L30.1032 108.504L26.7734 113.061L21.1565 113.414Z" fill="#407BFF"/>
<path d="M28.8763 111.66H19.7559L21.3983 130.075H27.2339L28.8763 111.66Z" fill="#263238" stroke="#263238" stroke-linecap="round" stroke-linejoin="round"/>
<path d="M45.9845 129.867H14.9121V195.678H45.9845V129.867Z" fill="white" stroke="#263238" stroke-linecap="round" stroke-linejoin="round"/>
<path d="M47.6828 129.867H30.4453V195.678H47.6828V129.867Z" fill="white" stroke="#263238" stroke-linecap="round" stroke-linejoin="round"/>
<path d="M45.7433 129.867H30.4453V195.678H45.7433V129.867Z" fill="#263238" stroke="#263238" stroke-linecap="round" stroke-linejoin="round"/>
<path d="M44.0223 180.374H30.4453V193.851H44.0223V180.374Z" fill="#407BFF" stroke="#263238" stroke-linecap="round" stroke-linejoin="round"/>
<path d="M44.0223 181.103H30.4453V182.83H44.0223V181.103Z" fill="white" stroke="#263238" stroke-linecap="round" stroke-linejoin="round"/>
<path d="M44.0223 191.025H30.4453V192.752H44.0223V191.025Z" fill="white" stroke="#263238" stroke-linecap="round" stroke-linejoin="round"/>
<path d="M33.0186 180.655V197.696" stroke="#263238" stroke-linecap="round" stroke-linejoin="round"/>
<path d="M37.7549 180.655V197.696" stroke="#263238" stroke-linecap="round" stroke-linejoin="round"/>
<path d="M41.915 180.655V197.696" stroke="#263238" stroke-linecap="round" stroke-linejoin="round"/>
<path d="M44.0223 132.311H30.4453V152.127H44.0223V132.311Z" fill="#407BFF" stroke="#263238" stroke-linecap="round" stroke-linejoin="round"/>
<path d="M44.0223 133.141H30.4453V135.103H44.0223V133.141Z" fill="white" stroke="#263238" stroke-linecap="round" stroke-linejoin="round"/>
<path d="M44.0223 145.843H30.4453V147.805H44.0223V145.843Z" fill="white" stroke="#263238" stroke-linecap="round" stroke-linejoin="round"/>
<path d="M33.0186 132.625V151.993" stroke="#263238" stroke-linecap="round" stroke-linejoin="round"/>
<path d="M37.7549 132.625V151.993" stroke="#263238" stroke-linecap="round" stroke-linejoin="round"/>
<path d="M41.915 132.625V151.993" stroke="#263238" stroke-linecap="round" stroke-linejoin="round"/>
<path d="M44.0223 156.192H30.4453V176.008H44.0223V156.192Z" fill="#407BFF" stroke="#263238" stroke-linecap="round" stroke-linejoin="round"/>
<path d="M44.0223 157.021H30.4453V158.983H44.0223V157.021Z" fill="white" stroke="#263238" stroke-linecap="round" stroke-linejoin="round"/>
<path d="M44.0223 169.724H30.4453V171.686H44.0223V169.724Z" fill="white" stroke="#263238" stroke-linecap="round" stroke-linejoin="round"/>
<path d="M33.0186 156.511V175.873" stroke="#263238" stroke-linecap="round" stroke-linejoin="round"/>
<path d="M37.7549 156.511V175.873" stroke="#263238" stroke-linecap="round" stroke-linejoin="round"/>
<path d="M41.915 156.511V175.873" stroke="#263238" stroke-linecap="round" stroke-linejoin="round"/>
<path d="M45.9787 151.853H30.4453V154.106H45.9787V151.853Z" fill="white" stroke="#263238" stroke-linecap="round" stroke-linejoin="round"/>
<path d="M45.9787 175.884H30.4453V178.138H45.9787V175.884Z" fill="white" stroke="#263238" stroke-linecap="round" stroke-linejoin="round"/>
<path d="M45.9785 129.867V195.672" stroke="#263238" stroke-linecap="round" stroke-linejoin="round"/>
<path d="M28.2539 129.867V195.672H30.4457V132.311H45.71V129.839L28.2539 129.867Z" fill="white" stroke="#263238" stroke-linecap="round" stroke-linejoin="round"/>
<path d="M30.4453 132.311V129.867" stroke="#263238" stroke-linecap="round" stroke-linejoin="round"/>
<path d="M45.862 99.6356C44.2308 96.4908 43.5469 94.2373 43.5469 93.716C43.5469 92.6845 45.7891 92.0679 45.7891 92.0679C49.2871 90.2181 65.7398 92.892 73.1449 94.1252C77.2903 94.8479 81.4838 95.2601 85.6905 95.3585C85.6905 95.3585 86.7163 94.54 87.9328 93.5086C89.1492 92.4771 94.9231 85.6943 97.1878 85.1C99.4525 84.5058 101.504 85.9241 101.504 85.9241C101.504 85.9241 105.21 88.1664 104.587 88.598C103.965 89.0296 94.9231 96.8216 92.6584 98.2622C90.3937 99.7029 85.6681 99.0863 81.5535 99.9103C78.0107 100.617 63.6601 101.491 60.3696 101.76C57.8983 102.346 55.3047 102.13 52.9644 101.144" fill="white"/>
<mask id="mask0_426_2654" style="mask-type:luminance" maskUnits="userSpaceOnUse" x="43" y="84" width="62" height="19">
<path d="M45.862 99.6356C44.2308 96.4908 43.5469 94.2373 43.5469 93.716C43.5469 92.6845 45.7891 92.0679 45.7891 92.0679C49.2871 90.2181 65.7398 92.892 73.1449 94.1252C77.2903 94.8479 81.4838 95.2601 85.6905 95.3585C85.6905 95.3585 86.7163 94.54 87.9328 93.5086C89.1492 92.4771 94.9231 85.6943 97.1878 85.1C99.4525 84.5058 101.504 85.9241 101.504 85.9241C101.504 85.9241 105.21 88.1664 104.587 88.598C103.965 89.0296 94.9231 96.8216 92.6584 98.2622C90.3937 99.7029 85.6681 99.0863 81.5535 99.9103C78.0107 100.617 63.6601 101.491 60.3696 101.76C57.8983 102.346 55.3047 102.13 52.9644 101.144" fill="white"/>
</mask>
<g mask="url(#mask0_426_2654)">
<path d="M101.543 85.9017C101.543 85.9017 99.4859 84.461 97.2268 85.0776C94.9677 85.6943 89.2051 92.4827 87.9718 93.4862C86.7386 94.4896 85.7296 95.336 85.7296 95.336C81.5228 95.2377 77.3293 94.8255 73.184 94.1028C65.7789 92.8695 49.3262 90.1788 45.8282 92.0455C45.8282 92.0455 43.5859 92.6621 43.5859 93.6936C43.6638 94.2702 43.8126 94.8351 44.0288 95.3753L44.3371 95.4874C44.3371 95.4874 48.4461 95.0558 57.3143 95.2688C66.1825 95.4818 86.6937 96.6982 88.0111 97.1747C88.5716 97.3877 92.5461 96.4908 96.9522 94.9324C100.316 92.1913 104.268 88.7662 104.666 88.5251C105.249 88.1608 101.543 85.9017 101.543 85.9017Z" fill="#407BFF"/>
<path opacity="0.5" d="M101.543 85.9017C101.543 85.9017 99.4859 84.461 97.2268 85.0776C94.9677 85.6943 89.2051 92.4827 87.9718 93.4862C86.7386 94.4896 85.7296 95.336 85.7296 95.336C81.5228 95.2377 77.3293 94.8255 73.184 94.1028C65.7789 92.8695 49.3262 90.1788 45.8282 92.0455C45.8282 92.0455 43.5859 92.6621 43.5859 93.6936C43.6638 94.2702 43.8126 94.8351 44.0288 95.3753L44.3371 95.4874C44.3371 95.4874 48.4461 95.0558 57.3143 95.2688C66.1825 95.4818 86.6937 96.6982 88.0111 97.1747C88.5716 97.3877 92.5461 96.4908 96.9522 94.9324C100.316 92.1913 104.268 88.7662 104.666 88.5251C105.249 88.1608 101.543 85.9017 101.543 85.9017Z" fill="white"/>
</g>
<path d="M45.862 99.6356C44.2308 96.4908 43.5469 94.2373 43.5469 93.716C43.5469 92.6845 45.7891 92.0679 45.7891 92.0679C49.2871 90.2181 65.7398 92.892 73.1449 94.1252C77.2903 94.8479 81.4838 95.2601 85.6905 95.3585C85.6905 95.3585 86.7163 94.54 87.9328 93.5086C89.1492 92.4771 94.9231 85.6943 97.1878 85.1C99.4525 84.5058 101.504 85.9241 101.504 85.9241C101.504 85.9241 105.21 88.1664 104.587 88.598C103.965 89.0296 94.9231 96.8216 92.6584 98.2622C90.3937 99.7029 85.6681 99.0863 81.5535 99.9103C78.0107 100.617 63.6601 101.491 60.3696 101.76C57.8983 102.346 55.3047 102.13 52.9644 101.144" stroke="#263238" stroke-linecap="round" stroke-linejoin="round"/>
<path d="M127.094 117.921C127.466 117.215 128.024 116.624 128.708 116.212C129.392 115.8 130.175 115.583 130.973 115.584H168.363C168.363 115.584 171.065 115.584 170.258 120.719C169.451 125.853 158.363 157.206 155.683 166.685C153.004 176.165 152.437 196.143 152.437 196.143H107.592C107.592 196.143 111.146 148.366 127.094 117.921Z" fill="white"/>
<mask id="mask1_426_2654" style="mask-type:luminance" maskUnits="userSpaceOnUse" x="107" y="115" width="64" height="82">
<path d="M127.094 117.921C127.466 117.215 128.024 116.624 128.708 116.212C129.392 115.8 130.175 115.583 130.973 115.584H168.363C168.363 115.584 171.065 115.584 170.258 120.719C169.451 125.853 158.363 157.206 155.683 166.685C153.004 176.165 152.437 196.143 152.437 196.143H107.592C107.592 196.143 111.146 148.366 127.094 117.921Z" fill="white"/>
</mask>
<g mask="url(#mask1_426_2654)">
<path opacity="0.16" d="M143.934 115.584H130.973C130.175 115.583 129.392 115.8 128.708 116.212C128.024 116.624 127.466 117.215 127.094 117.921C111.146 148.366 107.553 196.126 107.553 196.126H127.666L132.627 177.286L153.312 181.552C153.458 179.971 153.626 178.362 153.822 176.776L153.368 171.73C153.368 171.73 149.13 167.274 147.796 166.158C146.462 165.043 147.348 163.03 147.123 154.336C146.899 145.642 139.096 139.391 136.192 134.038C133.288 128.684 137.756 125.338 141.77 119.984C143.199 118.05 143.782 116.626 143.934 115.584Z" fill="black"/>
</g>
<path d="M127.094 117.921C127.466 117.215 128.024 116.624 128.708 116.212C129.392 115.8 130.175 115.583 130.973 115.584H168.363C168.363 115.584 171.065 115.584 170.258 120.719C169.451 125.853 158.363 157.206 155.683 166.685C153.004 176.165 152.437 196.143 152.437 196.143H107.592C107.592 196.143 111.146 148.366 127.094 117.921Z" stroke="#263238" stroke-linecap="round" stroke-linejoin="round"/>
<path d="M161.877 124.502C158.099 133.32 150.105 168.227 148.805 196.126H152.415C152.415 196.126 152.975 176.125 155.66 166.669C158.346 157.212 169.445 125.853 170.235 120.702C171.026 115.55 168.341 115.567 168.341 115.567C168.341 115.567 164.91 117.434 161.877 124.502Z" fill="#263238" stroke="#263238" stroke-linecap="round" stroke-linejoin="round"/>
<path d="M96.1955 106.878C96.1955 106.878 90.2311 103.38 87.972 97.2139C85.7129 91.0477 105.658 81.1704 114.319 80.5538C122.98 79.9372 125.424 82.1963 130.575 91.0421C135.727 99.8879 139.214 112.019 136.54 117.983C133.866 123.947 129.342 125.388 132.616 130.316C135.889 135.243 145.161 149.235 144.545 155.816C143.928 162.397 137.554 168.148 128.288 168.776C119.022 169.404 106.689 163.838 96.4086 154.762C86.1277 145.686 88.796 132.339 92.4846 128.023C96.1731 123.706 101.74 122.058 102.149 117.742C102.558 113.426 96.1955 106.878 96.1955 106.878Z" fill="#263238" stroke="#263238" stroke-linecap="round" stroke-linejoin="round"/>
<path d="M121.617 97.1186C124.784 103.016 128.748 110.914 129.986 115.685C132.15 124.037 121.017 129.295 124.106 133.315" stroke="white" stroke-linecap="round" stroke-linejoin="round"/>
<path d="M117.301 89.394C117.301 89.394 118.534 91.4961 120.238 94.5905" stroke="white" stroke-linecap="round" stroke-linejoin="round"/>
<path d="M133.916 104.232C134.281 105.338 134.518 106.481 134.622 107.641" stroke="white" stroke-linecap="round" stroke-linejoin="round"/>
<path d="M119.442 86.3277C119.442 86.3277 129.185 93.5254 133.075 102.141" stroke="white" stroke-linecap="round" stroke-linejoin="round"/>
<path d="M105.921 91.7259C98.9645 93.6767 88.9583 96.8439 89.7712 98.6714" stroke="white" stroke-linecap="round" stroke-linejoin="round"/>
<path d="M112.351 90.0106C112.351 90.0106 110.866 90.3806 108.651 90.9748" stroke="white" stroke-linecap="round" stroke-linejoin="round"/>
<path d="M103.747 86.3781C107.732 85.1223 111.905 84.5721 116.08 84.7525" stroke="white" stroke-linecap="round" stroke-linejoin="round"/>
<path d="M100.91 87.5385C101.54 87.2102 102.192 86.9256 102.861 86.6865" stroke="white" stroke-linecap="round" stroke-linejoin="round"/>
<path d="M45.862 99.6356C44.9178 97.9067 44.1659 96.0796 43.6197 94.1869C44.1633 96.0805 44.9153 97.9079 45.862 99.6356ZM43.558 93.8674C43.558 93.901 43.558 93.9402 43.558 93.9907C43.5693 93.9402 43.5636 93.901 43.558 93.8674ZM45.862 99.63C47.9585 103.601 50.5668 107.28 53.6203 110.572C61.0254 118.594 82.4167 139.576 84.4516 141.017C86.4864 142.458 85.8922 146.566 84.4516 150.681C83.0109 154.796 77.6631 160.771 77.8705 167.341C78.0779 173.911 80.1128 184.001 79.9278 186.059C79.7428 188.116 74.5968 195.112 74.5968 195.112H127.66C127.66 195.112 121.046 186.703 121.046 183.828C121.046 180.952 130.127 144.106 130.536 141.432C130.945 138.758 129.303 136.908 126.012 136.7C122.722 136.493 110.176 133.819 109.559 131.762C108.943 129.705 112.85 121.89 112.85 121.89L100.518 122.507C100.518 122.507 99.9009 127.855 99.0768 128.886C98.2528 129.918 97.0196 127.855 94.1382 126.42C91.2569 124.985 85.7297 123.746 83.65 122.098C81.5702 120.45 61.8494 101.917 61.8494 101.917" fill="white"/>
<mask id="mask2_426_2654" style="mask-type:luminance" maskUnits="userSpaceOnUse" x="43" y="93" width="88" height="103">
<path d="M45.862 99.6356C44.9178 97.9067 44.1659 96.0796 43.6197 94.1869C44.1633 96.0805 44.9153 97.9079 45.862 99.6356ZM43.558 93.8674C43.558 93.901 43.558 93.9402 43.558 93.9907C43.5693 93.9402 43.5636 93.901 43.558 93.8674ZM45.862 99.63C47.9585 103.601 50.5668 107.28 53.6203 110.572C61.0254 118.594 82.4167 139.576 84.4516 141.017C86.4864 142.458 85.8922 146.566 84.4516 150.681C83.0109 154.796 77.6631 160.771 77.8705 167.341C78.0779 173.911 80.1128 184.001 79.9278 186.059C79.7428 188.116 74.5968 195.112 74.5968 195.112H127.66C127.66 195.112 121.046 186.703 121.046 183.828C121.046 180.952 130.127 144.106 130.536 141.432C130.945 138.758 129.303 136.908 126.012 136.7C122.722 136.493 110.176 133.819 109.559 131.762C108.943 129.705 112.85 121.89 112.85 121.89L100.518 122.507C100.518 122.507 99.9009 127.855 99.0768 128.886C98.2528 129.918 97.0196 127.855 94.1382 126.42C91.2569 124.985 85.7297 123.746 83.65 122.098C81.5702 120.45 61.8494 101.917 61.8494 101.917" fill="white"/>
</mask>
<g mask="url(#mask2_426_2654)">
<path d="M86.8008 123.684C87.8266 125.478 88.8525 127.098 88.8525 127.098C88.8525 127.098 92.3112 129.043 93.1744 129.043C94.0377 129.043 99.2286 131.846 99.2286 131.846C99.2286 131.846 103.556 130.764 102.031 127.087C101.55 126.145 100.943 125.274 100.226 124.497C99.9685 126.128 99.5537 128.264 99.066 128.875C98.242 129.901 97.0087 127.843 94.1274 126.408C92.2607 125.478 89.2393 124.626 86.8008 123.684Z" fill="#407BFF"/>
<path d="M76.2398 115.36C69.8885 109.479 61.85 101.94 61.85 101.94L57.1748 101.267L56.6143 101.581C56.6143 101.581 69.8101 113.257 72.6185 114.558C73.7547 115.08 74.9894 115.353 76.2398 115.36Z" fill="#407BFF"/>
<path d="M82.8942 121.447L82.3896 120.999C82.6475 121.425 82.7933 121.694 82.7933 121.694L82.8942 121.447Z" fill="#407BFF"/>
<g opacity="0.5">
<path d="M86.8008 123.684C87.8266 125.478 88.8525 127.098 88.8525 127.098C88.8525 127.098 92.3112 129.043 93.1744 129.043C94.0377 129.043 99.2286 131.846 99.2286 131.846C99.2286 131.846 103.556 130.764 102.031 127.087C101.55 126.145 100.943 125.274 100.226 124.497C99.9685 126.128 99.5537 128.264 99.066 128.875C98.242 129.901 97.0087 127.843 94.1274 126.408C92.2607 125.478 89.2393 124.626 86.8008 123.684Z" fill="white"/>
<path d="M76.2398 115.36C69.8885 109.479 61.85 101.94 61.85 101.94L57.1748 101.267L56.6143 101.581C56.6143 101.581 69.8101 113.257 72.6185 114.558C73.7547 115.08 74.9894 115.353 76.2398 115.36Z" fill="white"/>
<path d="M82.8942 121.447L82.3896 120.999C82.6475 121.425 82.7933 121.694 82.7933 121.694L82.8942 121.447Z" fill="white"/>
</g>
</g>
<path d="M43.5468 93.716C43.5443 93.7552 43.5443 93.7945 43.5468 93.8337M43.6197 94.1869C44.1659 96.0796 44.9178 97.9067 45.862 99.6356C44.9153 97.9079 44.1633 96.0805 43.6197 94.1869ZM43.6197 94.1869C43.6042 94.1337 43.593 94.0793 43.5861 94.0243M45.862 99.63C47.9585 103.601 50.5668 107.28 53.6203 110.572C61.0254 118.594 82.4167 139.576 84.4516 141.017C86.4864 142.458 85.8922 146.566 84.4516 150.681C83.0109 154.796 77.6631 160.771 77.8705 167.341C78.0779 173.911 80.1128 184.001 79.9278 186.059C79.7428 188.116 74.5968 195.112 74.5968 195.112H127.66C127.66 195.112 121.046 186.703 121.046 183.828C121.046 180.952 130.127 144.106 130.536 141.432C130.945 138.758 129.303 136.908 126.012 136.7C122.722 136.493 110.176 133.819 109.559 131.762C108.943 129.705 112.85 121.89 112.85 121.89L100.518 122.507C100.518 122.507 99.9009 127.855 99.0768 128.886C98.2528 129.918 97.0195 127.855 94.1382 126.42C91.2569 124.985 85.7297 123.746 83.65 122.098C81.5703 120.45 61.8494 101.917 61.8494 101.917M43.558 93.8674C43.558 93.901 43.558 93.9402 43.558 93.9907C43.5693 93.9402 43.5636 93.901 43.558 93.8674Z" stroke="#263238" stroke-linecap="round" stroke-linejoin="round"/>
<path d="M61.8493 101.94C61.8493 101.94 55.2794 102.063 51.6133 99.0414" stroke="#263238" stroke-linecap="round" stroke-linejoin="round"/>
<path d="M109.566 131.762C108.949 129.71 112.856 121.89 112.856 121.89L100.524 122.507C100.524 122.507 99.9069 127.855 99.0829 128.886C98.2588 129.918 97.0256 127.855 94.1442 126.42C93.9256 126.308 93.6846 126.201 93.4379 126.095L92.6924 137.816C92.6924 137.816 93.7743 149.168 106.746 147.009C111.998 146.135 117.604 141.449 122.442 136.179C117.464 135.265 110.036 133.337 109.566 131.762Z" fill="white"/>
<mask id="mask3_426_2654" style="mask-type:luminance" maskUnits="userSpaceOnUse" x="92" y="121" width="31" height="27">
<path d="M109.566 131.762C108.949 129.71 112.856 121.89 112.856 121.89L100.524 122.507C100.524 122.507 99.9069 127.855 99.0829 128.886C98.2588 129.918 97.0256 127.855 94.1442 126.42C93.9256 126.308 93.6846 126.201 93.4379 126.095L92.6924 137.816C92.6924 137.816 93.7743 149.168 106.746 147.009C111.998 146.135 117.604 141.449 122.442 136.179C117.464 135.265 110.036 133.337 109.566 131.762Z" fill="white"/>
</mask>
<g mask="url(#mask3_426_2654)">
<path d="M109.218 123.443C109.218 123.443 108.473 127.625 107.873 132.25C107.273 136.874 106.83 140.316 106.83 140.316L109.566 131.762L112.649 122.698C112.649 122.698 109.667 122.698 109.218 123.443Z" fill="#407BFF"/>
<path opacity="0.5" d="M109.218 123.443C109.218 123.443 108.473 127.625 107.873 132.25C107.273 136.874 106.83 140.316 106.83 140.316L109.566 131.762L112.649 122.698C112.649 122.698 109.667 122.698 109.218 123.443Z" fill="white"/>
</g>
<path d="M109.566 131.762C108.949 129.71 112.856 121.89 112.856 121.89L100.524 122.507C100.524 122.507 99.9069 127.855 99.0829 128.886C98.2588 129.918 97.0256 127.855 94.1442 126.42C93.9256 126.308 93.6846 126.201 93.4379 126.095L92.6924 137.816C92.6924 137.816 93.7743 149.168 106.746 147.009C111.998 146.135 117.604 141.449 122.442 136.179C117.464 135.265 110.036 133.337 109.566 131.762Z" stroke="#263238" stroke-linecap="round" stroke-linejoin="round"/>
<path d="M99.0773 128.886C98.2532 129.912 97.02 127.855 94.1387 126.42C92.3224 125.506 89.4299 124.676 87.0362 123.779C86.3579 122.171 85.461 120.074 84.8837 118.807C83.8578 116.565 82.2097 117.983 82.2097 117.983C81.3499 117.005 80.6551 115.894 80.1524 114.693C79.1266 112.45 77.4785 112.635 75.2194 112.226C72.9603 111.817 68.2235 107.495 68.2235 107.495C68.2235 107.495 66.0093 105.813 65.0955 104.978C64.0305 107.074 61.4799 110.763 55.9639 113.067C64.7592 122.255 82.6021 139.711 84.4744 141.022C86.5317 142.458 85.9151 146.572 84.4744 150.687C83.0338 154.801 77.6859 160.777 77.8933 167.347C78.1008 173.917 80.1356 184.007 79.9506 186.064C79.7657 187.897 75.6623 193.643 74.771 194.876L76.8619 195.112H87.7482C87.6865 189.596 87.6921 167.083 91.4647 158.114C95.7867 147.805 99.0773 128.886 99.0773 128.886Z" fill="#407BFF"/>
<mask id="mask4_426_2654" style="mask-type:luminance" maskUnits="userSpaceOnUse" x="55" y="104" width="45" height="92">
<path d="M99.0773 128.886C98.2532 129.912 97.02 127.855 94.1387 126.42C92.3224 125.506 89.4299 124.676 87.0362 123.779C86.3579 122.171 85.461 120.074 84.8837 118.807C83.8578 116.565 82.2097 117.983 82.2097 117.983C81.3499 117.005 80.6551 115.894 80.1524 114.693C79.1266 112.45 77.4785 112.635 75.2194 112.226C72.9603 111.817 68.2235 107.495 68.2235 107.495C68.2235 107.495 66.0093 105.813 65.0955 104.978C64.0305 107.074 61.4799 110.763 55.9639 113.067C64.7592 122.255 82.6021 139.711 84.4744 141.022C86.5317 142.458 85.9151 146.572 84.4744 150.687C83.0338 154.801 77.6859 160.777 77.8933 167.347C78.1008 173.917 80.1356 184.007 79.9506 186.064C79.7657 187.897 75.6623 193.643 74.771 194.876L76.8619 195.112H87.7482C87.6865 189.596 87.6921 167.083 91.4647 158.114C95.7867 147.805 99.0773 128.886 99.0773 128.886Z" fill="white"/>
</mask>
<g mask="url(#mask4_426_2654)">
<path opacity="0.16" d="M94.1387 126.42C92.3225 125.506 89.4299 124.676 87.0363 123.779C86.358 122.17 85.4611 120.074 84.8837 118.807C83.8579 116.565 82.2098 117.983 82.2098 117.983C81.35 117.005 80.6552 115.894 80.1525 114.692C79.1267 112.45 77.4786 112.635 75.2195 112.226C72.9604 111.817 68.2236 107.495 68.2236 107.495C68.2236 107.495 66.0094 105.813 65.0956 104.978C64.6397 105.868 64.097 106.711 63.4756 107.495C67.1529 110.606 71.2114 113.902 72.6297 114.558C75.4325 115.853 76.0884 114.771 78.2354 116.071C80.3824 117.372 82.776 121.677 82.776 121.677C82.776 121.677 84.0765 118.213 85.1584 120.595C86.2403 122.978 88.8357 127.081 88.8357 127.081C88.8357 127.081 92.2945 129.026 93.1577 129.026C93.836 129.026 97.1602 130.753 98.5728 131.498C98.8868 129.856 99.0605 128.869 99.0605 128.869C98.2533 129.912 97.0201 127.855 94.1387 126.42Z" fill="black"/>
</g>
<path d="M99.0773 128.886C98.2532 129.912 97.02 127.855 94.1387 126.42C92.3224 125.506 89.4299 124.676 87.0362 123.779C86.3579 122.171 85.461 120.074 84.8837 118.807C83.8578 116.565 82.2097 117.983 82.2097 117.983C81.3499 117.005 80.6551 115.894 80.1524 114.693C79.1266 112.45 77.4785 112.635 75.2194 112.226C72.9603 111.817 68.2235 107.495 68.2235 107.495C68.2235 107.495 66.0093 105.813 65.0955 104.978C64.0305 107.074 61.4799 110.763 55.9639 113.067C64.7592 122.255 82.6021 139.711 84.4744 141.022C86.5317 142.458 85.9151 146.572 84.4744 150.687C83.0338 154.801 77.6859 160.777 77.8933 167.347C78.1008 173.917 80.1356 184.007 79.9506 186.064C79.7657 187.897 75.6623 193.643 74.771 194.876L76.8619 195.112H87.7482C87.6865 189.596 87.6921 167.083 91.4647 158.114C95.7867 147.805 99.0773 128.886 99.0773 128.886Z" stroke="#263238" stroke-linecap="round" stroke-linejoin="round"/>
<path d="M99.2223 128.169C99.2223 128.169 96.6661 127.384 95.0909 128.763C93.5157 130.142 91.1669 137.216 89.7823 144.89C88.9289 149.358 89.5178 153.981 91.464 158.092C91.464 158.092 94.6985 149.61 95.6795 145.479C96.6605 141.348 99.2223 128.169 99.2223 128.169Z" fill="#407BFF"/>
<mask id="mask5_426_2654" style="mask-type:luminance" maskUnits="userSpaceOnUse" x="89" y="127" width="11" height="32">
<path d="M99.2223 128.169C99.2223 128.169 96.6661 127.384 95.0909 128.763C93.5157 130.142 91.1669 137.216 89.7823 144.89C88.9289 149.358 89.5178 153.981 91.464 158.092C91.464 158.092 94.6985 149.61 95.6795 145.479C96.6605 141.348 99.2223 128.169 99.2223 128.169Z" fill="white"/>
</mask>
<g mask="url(#mask5_426_2654)">
<path opacity="0.16" d="M94.3174 129.419C94.3174 129.419 96.1673 128.97 96.9296 129.228C97.5716 129.503 98.1717 129.867 98.7122 130.31L99.2224 128.168C98.4572 127.777 97.5892 127.634 96.739 127.759C95.4665 128.017 94.3174 129.419 94.3174 129.419Z" fill="black"/>
</g>
<path d="M99.2223 128.169C99.2223 128.169 96.6661 127.384 95.0909 128.763C93.5157 130.142 91.1669 137.216 89.7823 144.89C88.9289 149.358 89.5178 153.981 91.464 158.092C91.464 158.092 94.6985 149.61 95.6795 145.479C96.6605 141.348 99.2223 128.169 99.2223 128.169Z" stroke="#263238" stroke-linecap="round" stroke-linejoin="round"/>
<path d="M82.0081 128.841L85.2987 142.211L77.8935 125.343" stroke="#263238" stroke-linecap="round" stroke-linejoin="round"/>
<path d="M103.685 195.112H127.666C127.666 195.112 121.051 186.703 121.051 183.828C121.051 180.952 130.133 144.106 130.542 141.432C130.951 138.758 129.309 136.908 126.018 136.7C122.727 136.493 110.182 133.819 109.565 131.762C109.565 131.762 104.834 148.422 103.192 159.734C101.779 169.438 103.242 189.573 103.685 195.112Z" fill="#407BFF"/>
<mask id="mask6_426_2654" style="mask-type:luminance" maskUnits="userSpaceOnUse" x="102" y="131" width="29" height="65">
<path d="M103.685 195.112H127.666C127.666 195.112 121.051 186.703 121.051 183.828C121.051 180.952 130.133 144.106 130.542 141.432C130.951 138.758 129.309 136.908 126.018 136.7C122.727 136.493 110.182 133.819 109.565 131.762C109.565 131.762 104.834 148.422 103.192 159.734C101.779 169.438 103.242 189.573 103.685 195.112Z" fill="white"/>
</mask>
<g mask="url(#mask6_426_2654)">
<path opacity="0.16" d="M126.018 136.701C123.322 136.532 114.414 134.705 110.944 132.922L112.206 135.837C114.491 137.05 116.949 137.904 119.493 138.371C123.669 139.117 127.554 138.971 130.093 142.704L130.217 142.889C130.374 142.172 130.48 141.667 130.514 141.432C130.957 138.758 129.309 136.908 126.018 136.701Z" fill="black"/>
</g>
<path d="M103.685 195.112H127.666C127.666 195.112 121.051 186.703 121.051 183.828C121.051 180.952 130.133 144.106 130.542 141.432C130.951 138.758 129.309 136.908 126.018 136.7C122.727 136.493 110.182 133.819 109.565 131.762C109.565 131.762 104.834 148.422 103.192 159.734C101.779 169.438 103.242 189.573 103.685 195.112Z" stroke="#263238" stroke-linecap="round" stroke-linejoin="round"/>
<path d="M109.565 131.762C109.565 131.762 103.219 151.942 103.191 159.734C103.191 159.734 112.205 148.82 113.383 141.151C114.56 133.483 109.565 131.762 109.565 131.762Z" fill="#407BFF"/>
<mask id="mask7_426_2654" style="mask-type:luminance" maskUnits="userSpaceOnUse" x="103" y="131" width="11" height="29">
<path d="M109.565 131.762C109.565 131.762 103.219 151.942 103.191 159.734C103.191 159.734 112.205 148.82 113.383 141.151C114.56 133.483 109.565 131.762 109.565 131.762Z" fill="white"/>
</mask>
<g mask="url(#mask7_426_2654)">
<path opacity="0.16" d="M108.472 134.341C109.425 134.309 110.372 134.509 111.231 134.925C112.089 135.341 112.833 135.96 113.399 136.729C113.399 136.729 112.155 133.068 109.565 131.762L108.472 134.341Z" fill="black"/>
</g>
<path d="M109.565 131.762C109.565 131.762 103.219 151.942 103.191 159.734C103.191 159.734 112.205 148.82 113.383 141.151C114.56 133.483 109.565 131.762 109.565 131.762Z" stroke="#263238" stroke-linecap="round" stroke-linejoin="round"/>
<path d="M177.31 191.317C177.31 191.317 181.957 191.507 185.001 191.945C187.031 192.22 189.075 192.383 191.123 192.432C191.123 192.432 189.441 189.035 187.647 188.077C185.853 187.118 182.602 185.403 179.878 185.784C177.153 186.165 173.257 188.912 173.583 189.786C173.908 190.661 175.36 191.053 177.31 191.317Z" fill="white"/>
<mask id="mask8_426_2654" style="mask-type:luminance" maskUnits="userSpaceOnUse" x="173" y="185" width="19" height="8">
<path d="M177.31 191.317C177.31 191.317 181.957 191.507 185.001 191.945C187.031 192.22 189.075 192.383 191.123 192.432C191.123 192.432 189.441 189.035 187.647 188.077C185.853 187.118 182.602 185.403 179.878 185.784C177.153 186.165 173.257 188.912 173.583 189.786C173.908 190.661 175.36 191.053 177.31 191.317Z" fill="white"/>
</mask>
<g mask="url(#mask8_426_2654)">
<path d="M177.31 191.317C177.31 191.317 181.957 191.507 185.001 191.945C187.031 192.22 189.075 192.383 191.123 192.432C191.123 192.432 189.441 189.035 187.647 188.077C185.853 187.118 182.602 185.403 179.878 185.784C177.153 186.165 173.257 188.912 173.583 189.786C173.908 190.661 175.36 191.053 177.31 191.317Z" fill="#407BFF"/>
<path opacity="0.5" d="M177.31 191.317C177.31 191.317 181.957 191.507 185.001 191.945C187.031 192.22 189.075 192.383 191.123 192.432C191.123 192.432 189.441 189.035 187.647 188.077C185.853 187.118 182.602 185.403 179.878 185.784C177.153 186.165 173.257 188.912 173.583 189.786C173.908 190.661 175.36 191.053 177.31 191.317Z" fill="white"/>
</g>
<path d="M177.31 191.317C177.31 191.317 181.957 191.507 185.001 191.945C187.031 192.22 189.075 192.383 191.123 192.432C191.123 192.432 189.441 189.035 187.647 188.077C185.853 187.118 182.602 185.403 179.878 185.784C177.153 186.165 173.257 188.912 173.583 189.786C173.908 190.661 175.36 191.053 177.31 191.317Z" stroke="#263238" stroke-linecap="round" stroke-linejoin="round"/>
<path d="M185.029 189.927C185.029 189.927 188.712 188.015 189.632 188.043C190.551 188.071 196.661 192.202 196.358 192.864C196.153 193.171 195.856 193.405 195.51 193.534C195.164 193.663 194.786 193.679 194.43 193.581C193.752 193.262 189.637 191.513 189.637 191.513L186.946 192.146L185.029 189.927Z" fill="white"/>
<mask id="mask9_426_2654" style="mask-type:luminance" maskUnits="userSpaceOnUse" x="185" y="188" width="12" height="6">
<path d="M185.029 189.927C185.029 189.927 188.712 188.015 189.632 188.043C190.551 188.071 196.661 192.202 196.358 192.864C196.153 193.171 195.856 193.405 195.51 193.534C195.164 193.663 194.786 193.679 194.43 193.581C193.752 193.262 189.637 191.513 189.637 191.513L186.946 192.146L185.029 189.927Z" fill="white"/>
</mask>
<g mask="url(#mask9_426_2654)">
<path d="M185.029 189.927C185.029 189.927 188.712 188.015 189.632 188.043C190.551 188.071 196.661 192.202 196.358 192.864C196.056 193.525 194.609 194.064 194.43 193.581C194.251 193.099 189.637 191.513 189.637 191.513L186.946 192.146L185.029 189.927Z" fill="#407BFF"/>
<path opacity="0.5" d="M185.029 189.927C185.029 189.927 188.712 188.015 189.632 188.043C190.551 188.071 196.661 192.202 196.358 192.864C196.056 193.525 194.609 194.064 194.43 193.581C194.251 193.099 189.637 191.513 189.637 191.513L186.946 192.146L185.029 189.927Z" fill="white"/>
</g>
<path d="M185.029 189.927C185.029 189.927 188.712 188.015 189.632 188.043C190.551 188.071 196.661 192.202 196.358 192.864C196.153 193.171 195.856 193.405 195.51 193.534C195.164 193.663 194.786 193.679 194.43 193.581C193.752 193.262 189.637 191.513 189.637 191.513L186.946 192.146L185.029 189.927Z" stroke="#263238" stroke-linecap="round" stroke-linejoin="round"/>
<path d="M182.4 186.782C182.4 186.782 187.311 186.625 188.286 187.118C189.262 187.611 193.668 195.168 193.006 195.717C192.345 196.267 190.517 196.104 190.573 195.493C190.63 194.882 186.515 190.835 186.515 190.835L183.314 190.134L182.4 186.782Z" fill="white"/>
<mask id="mask10_426_2654" style="mask-type:luminance" maskUnits="userSpaceOnUse" x="182" y="186" width="12" height="11">
<path d="M182.4 186.782C182.4 186.782 187.311 186.625 188.286 187.118C189.262 187.611 193.668 195.168 193.006 195.717C192.345 196.267 190.517 196.104 190.573 195.493C190.63 194.882 186.515 190.835 186.515 190.835L183.314 190.134L182.4 186.782Z" fill="white"/>
</mask>
<g mask="url(#mask10_426_2654)">
<path d="M182.4 186.782C182.4 186.782 187.311 186.625 188.286 187.118C189.262 187.611 193.668 195.168 193.006 195.717C192.345 196.267 190.517 196.104 190.573 195.493C190.63 194.882 186.515 190.835 186.515 190.835L183.314 190.134L182.4 186.782Z" fill="#407BFF"/>
<path opacity="0.5" d="M182.4 186.782C182.4 186.782 187.311 186.625 188.286 187.118C189.262 187.611 193.668 195.168 193.006 195.717C192.345 196.267 190.517 196.104 190.573 195.493C190.63 194.882 186.515 190.835 186.515 190.835L183.314 190.134L182.4 186.782Z" fill="white"/>
</g>
<path d="M182.4 186.782C182.4 186.782 187.311 186.625 188.286 187.118C189.262 187.611 193.668 195.168 193.006 195.717C192.345 196.267 190.517 196.104 190.573 195.493C190.63 194.882 186.515 190.835 186.515 190.835L183.314 190.134L182.4 186.782Z" stroke="#263238" stroke-linecap="round" stroke-linejoin="round"/>
<path d="M179.49 185.767C179.49 185.767 184.462 185.605 185.449 186.109C186.436 186.614 190.898 194.254 190.225 194.815C189.552 195.375 187.714 195.201 187.77 194.585C187.826 193.968 183.661 189.87 183.661 189.87L180.421 189.159L179.49 185.767Z" fill="white"/>
<mask id="mask11_426_2654" style="mask-type:luminance" maskUnits="userSpaceOnUse" x="179" y="185" width="12" height="11">
<path d="M179.49 185.767C179.49 185.767 184.462 185.605 185.449 186.109C186.436 186.614 190.898 194.254 190.225 194.815C189.552 195.375 187.714 195.201 187.77 194.585C187.826 193.968 183.661 189.87 183.661 189.87L180.421 189.159L179.49 185.767Z" fill="white"/>
</mask>
<g mask="url(#mask11_426_2654)">
<path d="M179.49 185.767C179.49 185.767 184.462 185.605 185.449 186.109C186.436 186.614 190.898 194.254 190.225 194.815C189.552 195.375 187.714 195.201 187.77 194.585C187.826 193.968 183.661 189.87 183.661 189.87L180.421 189.159L179.49 185.767Z" fill="#407BFF"/>
<path opacity="0.5" d="M179.49 185.767C179.49 185.767 184.462 185.605 185.449 186.109C186.436 186.614 190.898 194.254 190.225 194.815C189.552 195.375 187.714 195.201 187.77 194.585C187.826 193.968 183.661 189.87 183.661 189.87L180.421 189.159L179.49 185.767Z" fill="white"/>
</g>
<path d="M179.49 185.767C179.49 185.767 184.462 185.605 185.449 186.109C186.436 186.614 190.898 194.254 190.225 194.815C189.552 195.375 187.714 195.201 187.77 194.585C187.826 193.968 183.661 189.87 183.661 189.87L180.421 189.159L179.49 185.767Z" stroke="#263238" stroke-linecap="round" stroke-linejoin="round"/>
<path d="M122.957 157.279C126.556 162.823 133.782 176.871 135.89 178.452C139.18 180.918 161.177 186.905 163.296 188.542C165.415 190.179 165.269 191.821 167.276 192.421C169.283 193.021 176.806 194.742 179.676 195.011C182.546 195.28 181.262 193.503 181.262 193.503L176.369 190.14L180.634 189.086C180.634 189.086 184.912 194.232 185.713 194.512C186.515 194.792 187.928 194.512 187.838 193.879C187.681 192.864 183.118 184.562 181.498 184.209C179.878 183.856 170.045 185.218 170.045 185.218C170.045 185.218 149.422 171.31 149.052 170.817C149.052 170.817 147.819 167.319 146.81 165.878C145.801 164.437 145.162 164.852 145.162 164.852C145.162 164.852 145.576 162.997 144.96 162.38L141.669 159.09L141.552 159.247C140.991 158.125 140.43 156.847 139.814 155.39C138.093 151.337 131.999 139.963 130.974 138.32C130.206 137.093 123.77 136.213 120.508 135.843" fill="#407BFF"/>
<mask id="mask12_426_2654" style="mask-type:luminance" maskUnits="userSpaceOnUse" x="120" y="135" width="68" height="61">
<path d="M122.957 157.279C126.556 162.823 133.782 176.871 135.89 178.452C139.18 180.918 161.177 186.905 163.296 188.542C165.415 190.179 165.269 191.821 167.276 192.421C169.283 193.021 176.806 194.742 179.676 195.011C182.546 195.28 181.262 193.503 181.262 193.503L176.369 190.14L180.634 189.086C180.634 189.086 184.912 194.232 185.713 194.512C186.515 194.792 187.928 194.512 187.838 193.879C187.681 192.864 183.118 184.562 181.498 184.209C179.878 183.856 170.045 185.218 170.045 185.218C170.045 185.218 149.422 171.31 149.052 170.817C149.052 170.817 147.819 167.319 146.81 165.878C145.801 164.437 145.162 164.852 145.162 164.852C145.162 164.852 145.576 162.997 144.96 162.38L141.669 159.09L141.552 159.247C140.991 158.125 140.43 156.847 139.814 155.39C138.093 151.337 131.999 139.963 130.974 138.32C130.206 137.093 123.77 136.213 120.508 135.843" fill="white"/>
</mask>
<g mask="url(#mask12_426_2654)">
<path opacity="0.16" d="M137.286 157.632C139.977 160.02 139.08 160.02 138.48 162.117C137.88 164.213 138.928 161.371 141.468 161.523C144.007 161.674 143.262 164.953 142.959 165.553C142.656 166.153 146.098 166.898 145.498 168.238C144.898 169.578 141.468 171.523 139.528 173.468C137.589 175.413 144.601 170.329 146.989 170.183C147.718 170.133 148.318 170.228 148.822 170.217C148.293 168.717 147.613 167.275 146.793 165.912C145.762 164.471 145.145 164.886 145.145 164.886C145.145 164.886 145.56 163.03 144.943 162.414L141.653 159.123L141.535 159.28C140.974 158.159 140.414 156.881 139.797 155.424C138.076 151.371 131.983 139.997 130.957 138.354C130.189 137.127 123.754 136.246 120.491 135.876L120.788 138.472L120.861 138.528C120.861 138.528 124.892 139.273 126.237 139.425C127.582 139.576 129.225 140.765 129.074 141.667C128.922 142.57 125.043 146.595 126.237 146.897C127.431 147.2 128.776 143.909 130.122 144.358C131.467 144.806 134.578 155.244 137.286 157.632Z" fill="black"/>
</g>
<path d="M122.957 157.279C126.556 162.823 133.782 176.871 135.89 178.452C139.18 180.918 161.177 186.905 163.296 188.542C165.415 190.179 165.269 191.821 167.276 192.421C169.283 193.021 176.806 194.742 179.676 195.011C182.546 195.28 181.262 193.503 181.262 193.503L176.369 190.14L180.634 189.086C180.634 189.086 184.912 194.232 185.713 194.512C186.515 194.792 187.928 194.512 187.838 193.879C187.681 192.864 183.118 184.562 181.498 184.209C179.878 183.856 170.045 185.218 170.045 185.218C170.045 185.218 149.422 171.31 149.052 170.817C149.052 170.817 147.819 167.319 146.81 165.878C145.801 164.437 145.162 164.852 145.162 164.852C145.162 164.852 145.576 162.997 144.96 162.38L141.669 159.09L141.552 159.247C140.991 158.125 140.43 156.847 139.814 155.39C138.093 151.337 131.999 139.963 130.974 138.32C130.206 137.093 123.77 136.213 120.508 135.843" stroke="#263238" stroke-linecap="round" stroke-linejoin="round"/>
<path d="M123.013 149.672C122.862 150.177 122.733 150.681 122.632 151.197" stroke="#263238" stroke-linecap="round" stroke-linejoin="round"/>
<path d="M128.462 140.395C126.701 142.402 125.215 144.636 124.045 147.037" stroke="#263238" stroke-linecap="round" stroke-linejoin="round"/>
<path d="M136.697 172.224C138.211 169.981 140.621 167.139 143.278 166.327" stroke="#263238" stroke-linecap="round" stroke-linejoin="round"/>
<path d="M135.02 174.982C135.02 174.982 135.29 174.455 135.772 173.659" stroke="#263238" stroke-linecap="round" stroke-linejoin="round"/>
<path d="M135.02 171.439C135.02 171.439 137.773 164.555 140.525 162.784C143.278 161.012 141.702 164.555 141.702 164.555" stroke="#263238" stroke-linecap="round" stroke-linejoin="round"/>
<path d="M163.295 188.548C165.42 190.19 165.268 191.827 167.275 192.427C169.282 193.027 176.805 194.747 179.675 195.017C182.545 195.286 181.262 193.509 181.262 193.509L176.368 190.145L180.634 189.091C180.634 189.091 184.911 194.237 185.712 194.518C186.514 194.798 188.039 194.899 187.837 193.884C187.445 191.922 183.117 184.568 181.497 184.214C179.877 183.861 170.045 185.223 170.045 185.223C170.045 185.223 151.26 172.33 149.203 170.934C141.226 171.702 137.431 175.879 135.833 178.384L135.889 178.429C139.18 180.918 161.176 186.905 163.295 188.548Z" fill="white"/>
<mask id="mask13_426_2654" style="mask-type:luminance" maskUnits="userSpaceOnUse" x="135" y="170" width="53" height="26">
<path d="M163.295 188.548C165.42 190.19 165.268 191.827 167.275 192.427C169.282 193.027 176.805 194.747 179.675 195.017C182.545 195.286 181.262 193.509 181.262 193.509L176.368 190.145L180.634 189.091C180.634 189.091 184.911 194.237 185.712 194.518C186.514 194.798 188.039 194.899 187.837 193.884C187.445 191.922 183.117 184.568 181.497 184.214C179.877 183.861 170.045 185.223 170.045 185.223C170.045 185.223 151.26 172.33 149.203 170.934C141.226 171.702 137.431 175.879 135.833 178.384L135.889 178.429C139.18 180.918 161.176 186.905 163.295 188.548Z" fill="white"/>
</mask>
<g mask="url(#mask13_426_2654)">
<path d="M187.831 193.907C186.811 191.412 183.111 184.59 181.491 184.237C179.871 183.884 170.039 185.246 170.039 185.246C170.039 185.246 151.254 172.353 149.197 170.957C147.103 171.139 145.049 171.636 143.104 172.431C146.069 174.113 165.835 185.324 168.329 185.823C170.975 186.384 179.804 184.932 181.357 185.975C182.343 186.636 185.281 191.294 187.265 194.602C187.831 194.518 188.039 194.411 187.831 193.907Z" fill="#407BFF"/>
<path opacity="0.5" d="M187.831 193.907C186.239 190.336 183.111 184.59 181.491 184.237C179.871 183.884 170.039 185.246 170.039 185.246C170.039 185.246 151.254 172.353 149.197 170.957C147.103 171.139 145.049 171.636 143.104 172.431C146.069 174.113 165.835 185.324 168.329 185.823C170.975 186.384 179.804 184.932 181.357 185.975C182.343 186.636 185.281 191.294 187.265 194.602C187.831 194.518 188.056 194.406 187.831 193.907Z" fill="white"/>
</g>
<path d="M163.295 188.548C165.42 190.19 165.268 191.827 167.275 192.427C169.282 193.027 176.805 194.747 179.675 195.017C182.545 195.286 181.262 193.509 181.262 193.509L176.368 190.145L180.634 189.091C180.634 189.091 184.911 194.237 185.712 194.518C186.514 194.798 188.039 194.899 187.837 193.884C187.445 191.922 183.117 184.568 181.497 184.214C179.877 183.861 170.045 185.223 170.045 185.223C170.045 185.223 151.26 172.33 149.203 170.934C141.226 171.702 137.431 175.879 135.833 178.384L135.889 178.429C139.18 180.918 161.176 186.905 163.295 188.548Z" stroke="#263238" stroke-linecap="round" stroke-linejoin="round"/>
<path d="M113.753 90.6609L96.8684 97.7072C96.6638 100.675 95.929 103.581 94.699 106.29C92.7034 110.511 93.8693 118.499 95.7865 122.81C97.7036 127.12 106.151 125.433 109.24 124.895C111.335 124.496 113.387 123.897 115.367 123.107C116.269 123.454 117.244 123.567 118.201 123.433C119.159 123.3 120.066 122.925 120.838 122.344C120.838 122.344 111.802 96.9785 113.753 90.6609Z" fill="white"/>
<mask id="mask14_426_2654" style="mask-type:luminance" maskUnits="userSpaceOnUse" x="93" y="90" width="28" height="36">
<path d="M113.753 90.6609L96.8684 97.7072C96.6638 100.675 95.929 103.581 94.699 106.29C92.7034 110.511 93.8693 118.499 95.7865 122.81C97.7036 127.12 106.151 125.433 109.24 124.895C111.335 124.496 113.387 123.897 115.367 123.107C116.269 123.454 117.244 123.567 118.201 123.433C119.159 123.3 120.066 122.925 120.838 122.344C120.838 122.344 111.802 96.9785 113.753 90.6609Z" fill="white"/>
</mask>
<g mask="url(#mask14_426_2654)">
<path d="M113.753 90.6609L96.8684 97.7072C96.6638 100.675 95.929 103.581 94.699 106.29C92.7034 110.511 93.8693 118.499 95.7865 122.81C96.1074 123.503 96.6237 124.087 97.272 124.491V124.166C97.272 124.166 94.1384 116.402 94.7326 111.923C95.3268 107.444 97.8718 105.196 98.1689 102.366C98.466 99.5347 98.3147 98.1893 103.993 96.0984C109.672 94.0074 112.054 92.0679 112.648 94.1532C113.243 96.2385 115.636 109.984 117.279 113.269C118.921 116.554 118.77 119.995 116.236 121.481C113.675 123.018 110.931 124.227 108.069 125.08L109.263 124.872C111.357 124.474 113.409 123.875 115.39 123.084C116.291 123.432 117.267 123.544 118.224 123.411C119.181 123.277 120.088 122.903 120.861 122.322C120.861 122.322 111.802 96.9785 113.753 90.6609Z" fill="#407BFF"/>
<path opacity="0.5" d="M113.753 90.6609L96.8684 97.7072C96.6638 100.675 95.929 103.581 94.699 106.29C92.7034 110.511 93.8693 118.499 95.7865 122.81C96.1074 123.503 96.6237 124.087 97.272 124.491V124.166C97.272 124.166 94.1384 116.402 94.7326 111.923C95.3268 107.444 97.8718 105.196 98.1689 102.366C98.466 99.5347 98.3147 98.1893 103.993 96.0984C109.672 94.0074 112.054 92.0679 112.648 94.1532C113.243 96.2385 115.636 109.984 117.279 113.269C118.921 116.554 118.77 119.995 116.236 121.481C113.675 123.018 110.931 124.227 108.069 125.08L109.263 124.872C111.357 124.474 113.409 123.875 115.39 123.084C116.291 123.432 117.267 123.544 118.224 123.411C119.181 123.277 120.088 122.903 120.861 122.322C120.861 122.322 111.802 96.9785 113.753 90.6609Z" fill="white"/>
</g>
<path d="M113.753 90.6609L96.8684 97.7072C96.6638 100.675 95.929 103.581 94.699 106.29C92.7034 110.511 93.8693 118.499 95.7865 122.81C97.7036 127.12 106.151 125.433 109.24 124.895C111.335 124.496 113.387 123.897 115.367 123.107C116.269 123.454 117.244 123.567 118.201 123.433C119.159 123.3 120.066 122.925 120.838 122.344C120.838 122.344 111.802 96.9785 113.753 90.6609Z" stroke="#263238" stroke-linecap="round" stroke-linejoin="round"/>
<path d="M105.221 101.71C105.267 102.702 105.143 103.696 104.856 104.647C104.408 105.768 100.176 110.174 100.305 110.651C100.434 111.127 100.815 112.658 101.566 112.803" stroke="#263238" stroke-linecap="round" stroke-linejoin="round"/>
<path d="M109.913 105.651C110.502 104.473 112.436 105.622 112.408 108.274" stroke="#263238" stroke-linecap="round" stroke-linejoin="round"/>
<path d="M100.327 102.186C100.327 102.186 101.975 101.463 103.45 104.131" stroke="#263238" stroke-linecap="round" stroke-linejoin="round"/>
<path d="M107.569 109.535C109.474 109.631 111.284 110.391 112.687 111.682" stroke="#263238" stroke-width="0.5" stroke-linecap="round" stroke-linejoin="round"/>
<path d="M98.3369 106.032C99.3215 106.163 100.283 106.429 101.196 106.822" stroke="#263238" stroke-width="0.5" stroke-linecap="round" stroke-linejoin="round"/>
<path d="M105.036 99.2208C104.601 98.9906 104.118 98.8648 103.626 98.8531C103.134 98.8414 102.646 98.9443 102.2 99.1535C100.692 99.8766 99.7669 100.673 99.8678 99.7477C99.9687 98.8228 101.74 97.8025 102.273 97.668C102.805 97.5335 105.188 97.1635 105.036 99.2208Z" fill="#263238"/>
<path d="M109.263 97.1298C110.834 98.4013 112.083 100.026 112.906 101.872C114.028 104.675 114.913 101.614 114.028 99.7813C113.142 97.9482 110.58 95.9975 109.263 97.1298Z" fill="#263238"/>
<path d="M121.085 127.137C121.085 128.443 120.345 129.503 119.437 129.503C118.529 129.503 117.795 128.443 117.795 127.137C117.795 125.831 118.529 122.507 119.437 122.507C120.345 122.507 121.085 125.831 121.085 127.137Z" fill="#407BFF" stroke="#263238" stroke-linecap="round" stroke-linejoin="round"/>
<path d="M110.059 105.14C109.994 105.312 109.944 105.488 109.907 105.667C109.745 106.497 109.582 108.229 109.907 108.302C110.233 108.375 111.029 106.755 111.169 105.925C111.2 105.762 111.219 105.598 111.225 105.432C110.842 105.312 110.453 105.215 110.059 105.14Z" fill="#263238"/>
<path d="M100.495 102.024C100.446 102.17 100.406 102.32 100.378 102.472C100.21 103.302 100.215 105.124 100.568 105.191C100.922 105.258 101.499 103.554 101.661 102.724C101.702 102.523 101.725 102.319 101.729 102.113C101.327 102.003 100.908 101.972 100.495 102.024Z" fill="#263238"/>
<path d="M109.913 105.679L110.474 104.636C111.362 104.809 112.168 105.275 112.761 105.959" stroke="#263238" stroke-width="0.75" stroke-linecap="round" stroke-linejoin="round"/>
<path d="M100.495 102.024L101.056 101.368C101.056 101.368 101.297 101.25 102.62 101.85" stroke="#263238" stroke-width="0.75" stroke-linecap="round" stroke-linejoin="round"/>
<path d="M98.3701 117.226C98.3701 117.226 99.3119 115.494 100.573 115.494C101.834 115.494 102.776 118.325 102.776 118.325" stroke="#263238" stroke-linecap="round" stroke-linejoin="round"/>
<path d="M57.7791 191.928C56.5602 191.867 55.3629 191.582 54.2475 191.087C54.092 191.029 53.9498 190.941 53.8296 190.827C53.7093 190.712 53.6136 190.575 53.5483 190.423C53.4829 190.27 53.4492 190.106 53.4493 189.94C53.4493 189.774 53.4832 189.61 53.5487 189.458C53.6142 189.306 53.71 189.168 53.8303 189.054C53.9506 188.94 54.0929 188.852 54.2485 188.794C54.404 188.737 54.5697 188.712 54.7353 188.72C54.9008 188.729 55.0629 188.771 55.2117 188.845C56.3328 189.321 57.7847 189.618 58.1715 189.45C58.8834 188.654 59.9765 183.844 58.5639 181.524C58.2444 181.008 57.9473 180.913 57.7511 180.89C56.9494 180.778 55.761 181.602 55.3406 182.011C55.2236 182.122 55.0859 182.208 54.9355 182.265C54.7851 182.322 54.6249 182.349 54.4641 182.345C54.3032 182.34 54.1449 182.304 53.9981 182.238C53.8513 182.172 53.7189 182.078 53.6084 181.961C53.498 181.844 53.4117 181.706 53.3545 181.556C53.2973 181.405 53.2702 181.245 53.2749 181.084C53.2796 180.923 53.3159 180.765 53.3818 180.618C53.4477 180.471 53.5418 180.339 53.6589 180.229C53.8775 180.016 55.9012 178.194 58.0594 178.485C58.5946 178.563 59.1047 178.764 59.55 179.071C59.9952 179.378 60.3637 179.784 60.6268 180.257C62.7065 183.648 61.2826 190.1 59.685 191.378C59.1298 191.771 58.4582 191.965 57.7791 191.928Z" fill="white"/>
<mask id="mask15_426_2654" style="mask-type:luminance" maskUnits="userSpaceOnUse" x="53" y="178" width="9" height="14">
<path d="M57.7791 191.928C56.5602 191.867 55.3629 191.582 54.2475 191.087C54.092 191.029 53.9498 190.941 53.8296 190.827C53.7093 190.712 53.6136 190.575 53.5483 190.423C53.4829 190.27 53.4492 190.106 53.4493 189.94C53.4493 189.774 53.4832 189.61 53.5487 189.458C53.6142 189.306 53.71 189.168 53.8303 189.054C53.9506 188.94 54.0929 188.852 54.2485 188.794C54.404 188.737 54.5697 188.712 54.7353 188.72C54.9008 188.729 55.0629 188.771 55.2117 188.845C56.3328 189.321 57.7847 189.618 58.1715 189.45C58.8834 188.654 59.9765 183.844 58.5639 181.524C58.2444 181.008 57.9473 180.913 57.7511 180.89C56.9494 180.778 55.761 181.602 55.3406 182.011C55.2236 182.122 55.0859 182.208 54.9355 182.265C54.7851 182.322 54.6249 182.349 54.4641 182.345C54.3032 182.34 54.1449 182.304 53.9981 182.238C53.8513 182.172 53.7189 182.078 53.6084 181.961C53.498 181.844 53.4117 181.706 53.3545 181.556C53.2973 181.405 53.2702 181.245 53.2749 181.084C53.2796 180.923 53.3159 180.765 53.3818 180.618C53.4477 180.471 53.5418 180.339 53.6589 180.229C53.8775 180.016 55.9012 178.194 58.0594 178.485C58.5946 178.563 59.1047 178.764 59.55 179.071C59.9952 179.378 60.3637 179.784 60.6268 180.257C62.7065 183.648 61.2826 190.1 59.685 191.378C59.1298 191.771 58.4582 191.965 57.7791 191.928Z" fill="white"/>
</mask>
<g mask="url(#mask15_426_2654)">
<path d="M59.422 181.154C59.275 180.805 59.0449 180.499 58.7516 180.26C58.4584 180.022 58.1112 179.859 57.7403 179.786C56.3389 179.562 55.0216 180.969 54.8758 181.126C54.7418 181.287 54.6591 181.485 54.6381 181.693C54.6171 181.902 54.6589 182.112 54.7581 182.297C54.9786 182.253 55.1824 182.148 55.3467 181.994C55.7671 181.602 56.9555 180.778 57.7572 180.873C57.9534 180.873 58.2505 180.991 58.57 181.507C59.9826 183.805 58.8895 188.637 58.1776 189.433C57.7908 189.601 56.3445 189.304 55.2178 188.828C55.0791 188.769 54.9309 188.737 54.7805 188.732C54.7908 188.886 54.8392 189.035 54.9214 189.165C55.0036 189.295 55.1171 189.403 55.2514 189.478C55.9602 189.857 56.7421 190.078 57.5441 190.128C58.0018 190.15 58.45 189.993 58.7942 189.691C59.8481 188.721 60.7786 183.76 59.422 181.154Z" fill="#407BFF"/>
<path opacity="0.5" d="M59.422 181.154C59.275 180.805 59.0449 180.499 58.7516 180.26C58.4584 180.022 58.1112 179.859 57.7403 179.786C56.3389 179.562 55.0216 180.969 54.8758 181.126C54.7418 181.287 54.6591 181.485 54.6381 181.693C54.6171 181.902 54.6589 182.112 54.7581 182.297C54.9786 182.253 55.1824 182.148 55.3467 181.994C55.7671 181.602 56.9555 180.778 57.7572 180.873C57.9534 180.873 58.2505 180.991 58.57 181.507C59.9826 183.805 58.8895 188.637 58.1776 189.433C57.7908 189.601 56.3445 189.304 55.2178 188.828C55.0791 188.769 54.9309 188.737 54.7805 188.732C54.7908 188.886 54.8392 189.035 54.9214 189.165C55.0036 189.295 55.1171 189.403 55.2514 189.478C55.9602 189.857 56.7421 190.078 57.5441 190.128C58.0018 190.15 58.45 189.993 58.7942 189.691C59.8481 188.721 60.7786 183.76 59.422 181.154Z" fill="white"/>
</g>
<path d="M57.7791 191.928C56.5602 191.867 55.3629 191.582 54.2475 191.087C54.092 191.029 53.9498 190.941 53.8296 190.827C53.7093 190.712 53.6136 190.575 53.5483 190.423C53.4829 190.27 53.4492 190.106 53.4493 189.94C53.4493 189.774 53.4832 189.61 53.5487 189.458C53.6142 189.306 53.71 189.168 53.8303 189.054C53.9506 188.94 54.0929 188.852 54.2485 188.794C54.404 188.737 54.5697 188.712 54.7353 188.72C54.9008 188.729 55.0629 188.771 55.2117 188.845C56.3328 189.321 57.7847 189.618 58.1715 189.45C58.8834 188.654 59.9765 183.844 58.5639 181.524C58.2444 181.008 57.9473 180.913 57.7511 180.89C56.9494 180.778 55.761 181.602 55.3406 182.011C55.2236 182.122 55.0859 182.208 54.9355 182.265C54.7851 182.322 54.6249 182.349 54.4641 182.345C54.3032 182.34 54.1449 182.304 53.9981 182.238C53.8513 182.172 53.7189 182.078 53.6084 181.961C53.498 181.844 53.4117 181.706 53.3545 181.556C53.2973 181.405 53.2702 181.245 53.2749 181.084C53.2796 180.923 53.3159 180.765 53.3818 180.618C53.4477 180.471 53.5418 180.339 53.6589 180.229C53.8775 180.016 55.9012 178.194 58.0594 178.485C58.5946 178.563 59.1047 178.764 59.55 179.071C59.9952 179.378 60.3637 179.784 60.6268 180.257C62.7065 183.648 61.2826 190.1 59.685 191.378C59.1298 191.771 58.4582 191.965 57.7791 191.928Z" stroke="#263238" stroke-linecap="round" stroke-linejoin="round"/>
<path d="M55.6379 177.465H42.1562V195.358H55.6379V177.465Z" fill="white"/>
<mask id="mask16_426_2654" style="mask-type:luminance" maskUnits="userSpaceOnUse" x="42" y="177" width="14" height="19">
<path d="M55.6379 177.465H42.1562V195.358H55.6379V177.465Z" fill="white"/>
</mask>
<g mask="url(#mask16_426_2654)">
<path d="M47.6779 177.465H42.1562V195.358H47.6779V177.465Z" fill="#407BFF"/>
<path opacity="0.5" d="M47.6779 177.465H42.1562V195.358H47.6779V177.465Z" fill="white"/>
</g>
<path d="M55.6379 177.465H42.1562V195.358H55.6379V177.465Z" stroke="#263238" stroke-linecap="round" stroke-linejoin="round"/>
<path d="M129.723 195.112H72.1297L70.2518 163.451C70.1999 163.144 70.2152 162.829 70.2967 162.529C70.3781 162.228 70.5238 161.949 70.7236 161.71C70.9235 161.472 71.1727 161.279 71.4542 161.146C71.7356 161.013 72.0426 160.942 72.3539 160.94H129.476C129.789 160.939 130.099 161.007 130.383 161.139C130.667 161.271 130.919 161.463 131.121 161.702C131.324 161.941 131.471 162.221 131.554 162.523C131.637 162.825 131.653 163.142 131.601 163.451L129.723 195.112Z" fill="#263238" stroke="#263238" stroke-linecap="round" stroke-linejoin="round"/>
<path d="M74.9658 161.696H129.061C129.366 161.693 129.669 161.757 129.947 161.883C130.226 162.009 130.473 162.194 130.672 162.426C130.872 162.658 131.018 162.931 131.1 163.225C131.183 163.519 131.201 163.828 131.152 164.129" stroke="white" stroke-linecap="round" stroke-linejoin="round"/>
<path d="M70.6719 163.63C70.717 163.1 70.9602 162.607 71.3529 162.249C71.7457 161.89 72.2591 161.693 72.7908 161.696" stroke="white" stroke-linecap="round" stroke-linejoin="round"/>
<path d="M129.964 192.029H71.8887V195.112H129.964V192.029Z" fill="white" stroke="#263238" stroke-linecap="round" stroke-linejoin="round"/>
<path d="M100.719 180.616C102.991 180.616 104.834 179.511 104.834 178.149C104.834 176.787 102.991 175.682 100.719 175.682C98.4467 175.682 96.6045 176.787 96.6045 178.149C96.6045 179.511 98.4467 180.616 100.719 180.616Z" fill="white" stroke="#263238" stroke-linecap="round" stroke-linejoin="round"/>
<path d="M217.558 194.747H1.25684V200H217.558V194.747Z" fill="#263238"/>
<path d="M161.473 0H57.4147C53.907 0 51.0635 2.84355 51.0635 6.35125V66.0575C51.0635 69.5652 53.907 72.4088 57.4147 72.4088H161.473C164.981 72.4088 167.824 69.5652 167.824 66.0575V6.35125C167.824 2.84355 164.981 0 161.473 0Z" fill="#407BFF"/>
<path d="M112.19 41.6112C121.629 40.0942 128.051 31.2125 126.534 21.7733C125.017 12.3342 116.136 5.91202 106.697 7.42899C97.2574 8.94597 90.8352 17.8277 92.3522 27.2668C93.8692 36.7059 102.751 43.1281 112.19 41.6112Z" fill="#263238"/>
<path d="M109.312 27.7202L103.544 35.1253C103.348 35.4336 103.078 35.6882 102.759 35.8663C102.44 36.0444 102.082 36.1404 101.716 36.1455C101.215 36.1524 100.732 35.961 100.371 35.613C100.188 35.4448 100.043 35.2391 99.9458 35.0098C99.8491 34.7806 99.8029 34.5332 99.8103 34.2845C99.8284 33.7275 100.025 33.191 100.371 32.7541L106.946 24.6202L100.78 16.4808C100.494 16.0988 100.336 15.6353 100.332 15.1578C100.33 14.8731 100.388 14.5911 100.501 14.3296C100.613 14.0682 100.779 13.8329 100.988 13.6387C101.183 13.4345 101.418 13.272 101.678 13.1612C101.938 13.0504 102.218 12.9936 102.501 12.994C102.863 12.9999 103.218 13.0963 103.533 13.2745C103.849 13.4527 104.114 13.7071 104.306 14.0143L109.878 21.3521L115.484 14.1376C115.684 13.801 115.965 13.519 116.3 13.3166C116.635 13.1142 117.015 12.9976 117.407 12.9772C117.649 12.9766 117.89 13.0261 118.113 13.1225C118.335 13.219 118.536 13.3603 118.702 13.5378C118.878 13.7041 119.019 13.9047 119.115 14.1274C119.212 14.3501 119.262 14.5901 119.262 14.8327C119.256 15.2669 119.106 15.6868 118.836 16.0267L112.238 24.4689L118.612 32.8774C118.913 33.2533 119.081 33.7187 119.088 34.2004C119.09 34.4789 119.031 34.7545 118.916 35.008C118.801 35.2616 118.632 35.4872 118.421 35.6691C118.01 36.0646 117.462 36.2856 116.891 36.2857C116.527 36.2812 116.17 36.1854 115.853 36.0072C115.535 35.8289 115.268 35.5739 115.075 35.2655L109.312 27.7202Z" fill="white"/>
<path d="M142.425 59.8688H76.4406C75.1026 59.8688 73.8193 59.3373 72.8732 58.3912C71.927 57.445 71.3955 56.1618 71.3955 54.8237C71.3955 53.4857 71.927 52.2024 72.8732 51.2563C73.8193 50.3101 75.1026 49.7786 76.4406 49.7786H142.425C143.763 49.7786 145.047 50.3101 145.993 51.2563C146.939 52.2024 147.47 53.4857 147.47 54.8237C147.47 56.1618 146.939 57.445 145.993 58.3912C145.047 59.3373 143.763 59.8688 142.425 59.8688Z" fill="white"/>
<path d="M85.4818 56.4494C85.4377 56.4494 85.3942 56.4404 85.3537 56.4231C85.3132 56.4058 85.2767 56.3804 85.2463 56.3485C85.2132 56.3156 85.1871 56.2762 85.1698 56.2328C85.1524 56.1894 85.1441 56.1429 85.1454 56.0962C85.1454 56.0173 85.1667 55.9398 85.2071 55.872L85.7116 55.0872H84.6802C84.6325 55.0897 84.5848 55.0819 84.5404 55.0645C84.4959 55.0471 84.4557 55.0205 84.4223 54.9863C84.3647 54.9192 84.333 54.8337 84.333 54.7453C84.333 54.6568 84.3647 54.5713 84.4223 54.5042C84.4557 54.4701 84.4959 54.4434 84.5404 54.426C84.5848 54.4086 84.6325 54.4009 84.6802 54.4033L85.6948 54.4313L85.2463 53.7026C85.2014 53.628 85.1763 53.543 85.1735 53.4559C85.1722 53.4092 85.1804 53.3627 85.1978 53.3194C85.2151 53.276 85.2412 53.2366 85.2744 53.2037C85.3058 53.1716 85.3433 53.1462 85.3847 53.1289C85.4261 53.1115 85.4705 53.1027 85.5154 53.1028C85.5782 53.1019 85.6398 53.1194 85.6927 53.1533C85.7455 53.1872 85.7872 53.2359 85.8125 53.2934L86.3058 54.1735L86.7767 53.3326C86.8063 53.2672 86.8534 53.2112 86.9127 53.1706C86.972 53.1301 87.0413 53.1066 87.113 53.1028C87.1571 53.1028 87.2006 53.1117 87.2411 53.1291C87.2816 53.1464 87.3181 53.1718 87.3485 53.2037C87.3813 53.2345 87.4073 53.2719 87.4247 53.3134C87.4421 53.355 87.4505 53.3997 87.4494 53.4447C87.4486 53.5243 87.4253 53.6021 87.3821 53.669L86.8888 54.4594L87.9146 54.4313C87.9624 54.4285 88.0101 54.4361 88.0547 54.4535C88.0992 54.4709 88.1394 54.4978 88.1725 54.5322C88.2301 54.5993 88.2618 54.6848 88.2618 54.7733C88.2618 54.8617 88.2301 54.9472 88.1725 55.0143C88.1394 55.0488 88.0992 55.0756 88.0547 55.0931C88.0101 55.1105 87.9624 55.118 87.9146 55.1152H86.8776L87.3373 55.8328C87.3891 55.9194 87.4181 56.0178 87.4214 56.1187C87.423 56.1641 87.4153 56.2093 87.399 56.2517C87.3826 56.2941 87.3578 56.3328 87.3261 56.3653C87.2965 56.3968 87.261 56.4219 87.2215 56.4393C87.182 56.4566 87.1394 56.4658 87.0962 56.4662C87.0268 56.4645 86.9594 56.443 86.9018 56.4043C86.8442 56.3656 86.7988 56.3112 86.7711 56.2476L86.3058 55.4235L85.8405 56.2476C85.8069 56.3125 85.755 56.3662 85.6913 56.402C85.6275 56.4379 85.5547 56.4543 85.4818 56.4494Z" fill="black"/>
<path d="M90.6283 56.4493C90.5842 56.4493 90.5407 56.4404 90.5002 56.4231C90.4597 56.4057 90.4232 56.3803 90.3928 56.3484C90.3597 56.3155 90.3336 56.2761 90.3162 56.2328C90.2989 56.1894 90.2906 56.1429 90.2919 56.0962C90.2919 56.0172 90.3132 55.9398 90.3536 55.872L90.8581 55.0872H89.8266C89.779 55.0896 89.7313 55.0819 89.6869 55.0645C89.6424 55.0471 89.6021 55.0204 89.5688 54.9863C89.5112 54.9192 89.4795 54.8336 89.4795 54.7452C89.4795 54.6568 89.5112 54.5713 89.5688 54.5042C89.6021 54.47 89.6424 54.4433 89.6869 54.4259C89.7313 54.4085 89.779 54.4008 89.8266 54.4033L90.8413 54.4313L90.3648 53.6745C90.3198 53.5999 90.2947 53.515 90.2919 53.4279C90.2906 53.3812 90.2989 53.3347 90.3162 53.2913C90.3336 53.2479 90.3597 53.2085 90.3928 53.1756C90.4242 53.1436 90.4617 53.1181 90.5031 53.1008C90.5445 53.0835 90.589 53.0746 90.6339 53.0747C90.6966 53.0738 90.7583 53.0914 90.8111 53.1253C90.864 53.1592 90.9056 53.2079 90.931 53.2653L91.4243 54.1454L91.8951 53.3045C91.9248 53.2391 91.9718 53.1831 92.0312 53.1426C92.0905 53.102 92.1598 53.0786 92.2315 53.0747C92.2755 53.0747 92.3191 53.0837 92.3596 53.101C92.4 53.1183 92.4366 53.1437 92.4669 53.1756C92.4998 53.2064 92.5258 53.2438 92.5431 53.2853C92.5605 53.3269 92.5689 53.3716 92.5678 53.4167C92.5671 53.4963 92.5438 53.574 92.5006 53.6409L92.0073 54.4313L93.0331 54.4033C93.0808 54.4004 93.1286 54.408 93.1731 54.4254C93.2176 54.4428 93.2578 54.4697 93.291 54.5042C93.3486 54.5713 93.3803 54.6568 93.3803 54.7452C93.3803 54.8336 93.3486 54.9192 93.291 54.9863C93.2578 55.0207 93.2176 55.0476 93.1731 55.065C93.1286 55.0824 93.0808 55.09 93.0331 55.0872H91.996L92.4557 55.8047C92.5076 55.8913 92.5365 55.9897 92.5398 56.0906C92.5414 56.136 92.5338 56.1813 92.5174 56.2237C92.501 56.2661 92.4762 56.3047 92.4445 56.3372C92.415 56.3687 92.3794 56.3938 92.3399 56.4112C92.3004 56.4285 92.2578 56.4377 92.2147 56.4381C92.1451 56.4371 92.0774 56.4159 92.0196 56.3771C91.9619 56.3383 91.9167 56.2835 91.8895 56.2195L91.4243 55.3955L90.959 56.2195C90.9314 56.2853 90.8856 56.3418 90.827 56.3825C90.7685 56.4232 90.6995 56.4464 90.6283 56.4493Z" fill="black"/>
<path d="M95.7747 56.4493C95.7307 56.4493 95.6871 56.4404 95.6467 56.4231C95.6062 56.4057 95.5697 56.3803 95.5393 56.3484C95.5061 56.3155 95.4801 56.2761 95.4627 56.2328C95.4454 56.1894 95.4371 56.1429 95.4384 56.0962C95.4383 56.0172 95.4596 55.9398 95.5001 55.872L96.0046 55.0872H94.9731C94.9255 55.0896 94.8778 55.0819 94.8333 55.0645C94.7889 55.0471 94.7486 55.0204 94.7153 54.9863C94.6576 54.9192 94.626 54.8336 94.626 54.7452C94.626 54.6568 94.6576 54.5713 94.7153 54.5042C94.7486 54.47 94.7889 54.4433 94.8333 54.4259C94.8778 54.4085 94.9255 54.4008 94.9731 54.4033L95.9878 54.4313L95.5113 53.6745C95.4663 53.5999 95.4412 53.515 95.4384 53.4279C95.4371 53.3812 95.4454 53.3347 95.4627 53.2913C95.4801 53.2479 95.5061 53.2085 95.5393 53.1756C95.5707 53.1436 95.6082 53.1181 95.6496 53.1008C95.691 53.0835 95.7355 53.0746 95.7803 53.0747C95.8431 53.0738 95.9048 53.0914 95.9576 53.1253C96.0105 53.1592 96.0521 53.2079 96.0775 53.2653L96.5708 54.1454L97.0416 53.3045C97.0713 53.2391 97.1183 53.1831 97.1776 53.1426C97.2369 53.102 97.3062 53.0786 97.378 53.0747C97.422 53.0747 97.4656 53.0837 97.506 53.101C97.5465 53.1183 97.583 53.1437 97.6134 53.1756C97.6463 53.2064 97.6722 53.2438 97.6896 53.2853C97.707 53.3269 97.7154 53.3716 97.7143 53.4167C97.7136 53.4963 97.6902 53.574 97.647 53.6409L97.1537 54.4313L98.1796 54.4033C98.2273 54.4004 98.2751 54.408 98.3196 54.4254C98.3641 54.4428 98.4043 54.4697 98.4375 54.5042C98.4951 54.5713 98.5267 54.6568 98.5267 54.7452C98.5267 54.8336 98.4951 54.9192 98.4375 54.9863C98.4043 55.0207 98.3641 55.0476 98.3196 55.065C98.2751 55.0824 98.2273 55.09 98.1796 55.0872H97.1425L97.6022 55.8047C97.6541 55.8913 97.683 55.9897 97.6863 56.0906C97.6879 56.136 97.6803 56.1813 97.6639 56.2237C97.6475 56.2661 97.6227 56.3047 97.591 56.3372C97.5615 56.3687 97.5259 56.3938 97.4864 56.4112C97.4469 56.4285 97.4043 56.4377 97.3612 56.4381C97.2916 56.4371 97.2238 56.4159 97.1661 56.3771C97.1084 56.3383 97.0632 56.2835 97.036 56.2195L96.5708 55.3955L96.1055 56.2195C96.0779 56.2853 96.0321 56.3418 95.9735 56.3825C95.915 56.4232 95.846 56.4464 95.7747 56.4493Z" fill="black"/>
<path d="M100.943 56.4493C100.899 56.4493 100.855 56.4404 100.815 56.4231C100.774 56.4057 100.738 56.3803 100.707 56.3484C100.674 56.3155 100.648 56.2761 100.631 56.2328C100.613 56.1894 100.605 56.1429 100.606 56.0962C100.606 56.0172 100.628 55.9398 100.668 55.872L101.173 55.0872H100.141C100.093 55.0896 100.046 55.0819 100.001 55.0645C99.9568 55.0471 99.9166 55.0204 99.8832 54.9863C99.8256 54.9192 99.7939 54.8336 99.7939 54.7452C99.7939 54.6568 99.8256 54.5713 99.8832 54.5042C99.9166 54.47 99.9568 54.4433 100.001 54.4259C100.046 54.4085 100.093 54.4008 100.141 54.4033L101.156 54.4313L100.679 53.6745C100.634 53.5999 100.609 53.515 100.606 53.4279C100.605 53.3812 100.613 53.3347 100.631 53.2913C100.648 53.2479 100.674 53.2085 100.707 53.1756C100.739 53.1436 100.776 53.1181 100.818 53.1008C100.859 53.0835 100.903 53.0746 100.948 53.0747C101.011 53.0738 101.073 53.0914 101.126 53.1253C101.178 53.1592 101.22 53.2079 101.245 53.2653L101.739 54.1454L102.21 53.3045C102.239 53.2391 102.286 53.1831 102.346 53.1426C102.405 53.102 102.474 53.0786 102.546 53.0747C102.59 53.0747 102.634 53.0837 102.674 53.101C102.714 53.1183 102.751 53.1437 102.781 53.1756C102.814 53.2064 102.84 53.2438 102.858 53.2853C102.875 53.3269 102.883 53.3716 102.882 53.4167C102.882 53.4963 102.858 53.574 102.815 53.6409L102.322 54.4313L103.348 54.4033C103.395 54.4004 103.443 54.408 103.488 54.4254C103.532 54.4428 103.572 54.4697 103.605 54.5042C103.663 54.5713 103.695 54.6568 103.695 54.7452C103.695 54.8336 103.663 54.9192 103.605 54.9863C103.572 55.0207 103.532 55.0476 103.488 55.065C103.443 55.0824 103.395 55.09 103.348 55.0872H102.311L102.77 55.8047C102.822 55.8913 102.851 55.9897 102.854 56.0906C102.856 56.136 102.848 56.1813 102.832 56.2237C102.815 56.2661 102.791 56.3047 102.759 56.3372C102.729 56.3687 102.694 56.3938 102.654 56.4112C102.615 56.4285 102.572 56.4377 102.529 56.4381C102.46 56.4364 102.392 56.415 102.335 56.3762C102.277 56.3375 102.232 56.2831 102.204 56.2195L101.739 55.3955L101.273 56.2195C101.246 56.2853 101.2 56.3418 101.141 56.3825C101.083 56.4232 101.014 56.4464 100.943 56.4493Z" fill="black"/>
<path d="M106.067 56.4493C106.023 56.4493 105.979 56.4404 105.939 56.4231C105.898 56.4057 105.862 56.3803 105.831 56.3484C105.798 56.3155 105.772 56.2761 105.755 56.2328C105.737 56.1894 105.729 56.1429 105.73 56.0962C105.733 56.0176 105.754 55.9408 105.792 55.872L106.297 55.0872H105.265C105.217 55.0896 105.17 55.0819 105.125 55.0645C105.081 55.0471 105.041 55.0204 105.007 54.9863C104.95 54.9192 104.918 54.8337 104.918 54.7452C104.918 54.6568 104.95 54.5713 105.007 54.5042C105.041 54.47 105.081 54.4433 105.125 54.4259C105.17 54.4086 105.217 54.4008 105.265 54.4033L106.28 54.4313L105.803 53.6745C105.758 53.5999 105.733 53.515 105.73 53.4279C105.729 53.3812 105.737 53.3347 105.755 53.2913C105.772 53.2479 105.798 53.2085 105.831 53.1756C105.863 53.1436 105.9 53.1181 105.942 53.1008C105.983 53.0835 106.027 53.0746 106.072 53.0747C106.135 53.0738 106.197 53.0914 106.25 53.1253C106.302 53.1592 106.344 53.2079 106.369 53.2653L106.863 54.1454L107.334 53.3045C107.363 53.2391 107.41 53.1831 107.47 53.1426C107.529 53.102 107.598 53.0786 107.67 53.0747C107.714 53.074 107.758 53.0827 107.798 53.1001C107.839 53.1174 107.875 53.1432 107.905 53.1756C107.938 53.2064 107.964 53.2438 107.982 53.2854C107.999 53.3269 108.007 53.3716 108.006 53.4167C108.006 53.4963 107.982 53.574 107.939 53.6409L107.446 54.4313L108.472 54.4033C108.519 54.4004 108.567 54.408 108.612 54.4254C108.656 54.4428 108.696 54.4697 108.729 54.5042C108.787 54.5713 108.819 54.6568 108.819 54.7452C108.819 54.8337 108.787 54.9192 108.729 54.9863C108.696 55.0207 108.656 55.0476 108.612 55.065C108.567 55.0824 108.519 55.09 108.472 55.0872H107.435L107.894 55.8047C107.946 55.8913 107.975 55.9897 107.978 56.0906C107.98 56.136 107.972 56.1813 107.956 56.2237C107.94 56.2661 107.915 56.3047 107.883 56.3372C107.853 56.3687 107.818 56.3938 107.778 56.4112C107.739 56.4285 107.696 56.4377 107.653 56.4381C107.584 56.4364 107.516 56.415 107.459 56.3762C107.401 56.3375 107.356 56.2831 107.328 56.2195L106.863 55.3955L106.397 56.2195C106.37 56.2853 106.324 56.3418 106.266 56.3825C106.207 56.4232 106.138 56.4464 106.067 56.4493Z" fill="black"/>
<path d="M111.212 56.4493C111.168 56.4493 111.125 56.4404 111.084 56.4231C111.044 56.4057 111.007 56.3803 110.977 56.3484C110.944 56.3155 110.918 56.2761 110.9 56.2328C110.883 56.1894 110.875 56.1429 110.876 56.0962C110.879 56.0176 110.9 55.9408 110.938 55.872L111.442 55.0872H110.416C110.368 55.0901 110.319 55.0825 110.274 55.0651C110.228 55.0477 110.187 55.0208 110.153 54.9863C110.095 54.9192 110.063 54.8337 110.063 54.7452C110.063 54.6568 110.095 54.5713 110.153 54.5042C110.187 54.4696 110.228 54.4427 110.274 54.4253C110.319 54.4079 110.368 54.4004 110.416 54.4033L111.425 54.4313L110.949 53.6745C110.904 53.5999 110.879 53.515 110.876 53.4279C110.875 53.3812 110.883 53.3347 110.9 53.2913C110.918 53.2479 110.944 53.2085 110.977 53.1756C111.008 53.1436 111.046 53.1181 111.087 53.1008C111.129 53.0835 111.173 53.0746 111.218 53.0747C111.281 53.0738 111.342 53.0914 111.395 53.1253C111.448 53.1592 111.49 53.2079 111.515 53.2653L112.008 54.1454L112.479 53.3045C112.509 53.2391 112.556 53.1831 112.615 53.1426C112.674 53.102 112.744 53.0786 112.815 53.0747C112.86 53.074 112.903 53.0827 112.944 53.1001C112.985 53.1174 113.021 53.1432 113.051 53.1756C113.084 53.2064 113.11 53.2438 113.127 53.2854C113.145 53.3269 113.153 53.3716 113.152 53.4167C113.151 53.4963 113.128 53.574 113.085 53.6409L112.591 54.4313L113.617 54.4033C113.665 54.4004 113.713 54.408 113.757 54.4254C113.802 54.4428 113.842 54.4697 113.875 54.5042C113.933 54.5713 113.964 54.6568 113.964 54.7452C113.964 54.8337 113.933 54.9192 113.875 54.9863C113.842 55.0207 113.802 55.0476 113.757 55.065C113.713 55.0824 113.665 55.09 113.617 55.0872H112.58L113.04 55.8047C113.092 55.8913 113.12 55.9897 113.124 56.0906C113.125 56.136 113.118 56.1813 113.101 56.2237C113.085 56.2661 113.06 56.3047 113.028 56.3372C112.999 56.3687 112.963 56.3938 112.924 56.4112C112.884 56.4285 112.842 56.4377 112.799 56.4381C112.729 56.4364 112.662 56.415 112.604 56.3762C112.547 56.3375 112.501 56.2831 112.474 56.2195L112.008 55.3955L111.543 56.2195C111.515 56.2853 111.47 56.3418 111.411 56.3825C111.352 56.4232 111.284 56.4464 111.212 56.4493Z" fill="black"/>
<path d="M116.359 56.4494C116.315 56.4494 116.271 56.4404 116.231 56.4231C116.19 56.4058 116.154 56.3804 116.123 56.3485C116.09 56.3156 116.064 56.2762 116.047 56.2328C116.029 56.1894 116.021 56.1429 116.022 56.0962C116.022 56.0173 116.044 55.9398 116.084 55.872L116.589 55.0872H115.557C115.509 55.0897 115.462 55.0819 115.417 55.0645C115.373 55.0471 115.333 55.0205 115.299 54.9863C115.242 54.9192 115.21 54.8337 115.21 54.7453C115.21 54.6568 115.242 54.5713 115.299 54.5042C115.333 54.4701 115.373 54.4434 115.417 54.426C115.462 54.4086 115.509 54.4009 115.557 54.4033L116.572 54.4313L116.078 53.7026C116.033 53.628 116.008 53.543 116.006 53.4559C116.004 53.4092 116.013 53.3627 116.03 53.3194C116.047 53.276 116.073 53.2366 116.106 53.2037C116.138 53.1716 116.175 53.1462 116.217 53.1289C116.258 53.1115 116.303 53.1027 116.348 53.1028C116.41 53.1019 116.472 53.1194 116.525 53.1533C116.578 53.1872 116.619 53.2359 116.645 53.2934L117.138 54.1735L117.609 53.3326C117.638 53.2672 117.685 53.2112 117.745 53.1706C117.804 53.1301 117.873 53.1066 117.945 53.1028C117.989 53.1021 118.033 53.1107 118.074 53.1281C118.114 53.1455 118.151 53.1713 118.181 53.2037C118.213 53.2345 118.239 53.2719 118.257 53.3134C118.274 53.355 118.283 53.3997 118.281 53.4447C118.281 53.5243 118.257 53.6021 118.214 53.669L117.721 54.4594L118.747 54.4313C118.794 54.4285 118.842 54.4361 118.887 54.4535C118.931 54.4709 118.971 54.4978 119.005 54.5322C119.062 54.5993 119.094 54.6849 119.094 54.7733C119.094 54.8617 119.062 54.9472 119.005 55.0143C118.971 55.0488 118.931 55.0756 118.887 55.0931C118.842 55.1105 118.794 55.1181 118.747 55.1152H117.71L118.169 55.8328C118.221 55.9194 118.25 56.0178 118.253 56.1187C118.255 56.1641 118.247 56.2093 118.231 56.2517C118.215 56.2941 118.19 56.3328 118.158 56.3653C118.129 56.3968 118.093 56.4219 118.054 56.4393C118.014 56.4566 117.971 56.4658 117.928 56.4662C117.859 56.4645 117.791 56.443 117.734 56.4043C117.676 56.3656 117.631 56.3112 117.603 56.2476L117.138 55.4235L116.673 56.2476C116.642 56.3057 116.598 56.3548 116.543 56.3902C116.487 56.4256 116.424 56.446 116.359 56.4494Z" fill="black"/>
<path d="M121.504 56.4493C121.46 56.4493 121.417 56.4404 121.376 56.4231C121.336 56.4057 121.299 56.3803 121.269 56.3484C121.236 56.3155 121.21 56.2761 121.192 56.2328C121.175 56.1894 121.167 56.1429 121.168 56.0962C121.171 56.0176 121.192 55.9408 121.23 55.8719L121.734 55.0872H120.708C120.661 55.0908 120.613 55.0836 120.568 55.0661C120.523 55.0486 120.483 55.0213 120.451 54.9862C120.389 54.9208 120.355 54.8347 120.355 54.7452C120.355 54.6557 120.389 54.5696 120.451 54.5042C120.483 54.4691 120.523 54.4418 120.568 54.4243C120.613 54.4069 120.661 54.3997 120.708 54.4033L121.717 54.4313L121.241 53.6745C121.196 53.5999 121.171 53.515 121.168 53.4279C121.167 53.382 121.174 53.3364 121.191 53.2936C121.207 53.2508 121.232 53.2117 121.264 53.1788C121.296 53.1458 121.334 53.1196 121.376 53.1018C121.419 53.0839 121.464 53.0747 121.51 53.0747C121.573 53.0738 121.634 53.0914 121.687 53.1253C121.74 53.1592 121.782 53.2079 121.807 53.2653L122.3 54.1454L122.771 53.3045C122.801 53.2391 122.848 53.1831 122.907 53.1426C122.967 53.102 123.036 53.0786 123.108 53.0747C123.152 53.0733 123.196 53.0816 123.237 53.099C123.277 53.1165 123.314 53.1426 123.343 53.1756C123.376 53.2064 123.402 53.2438 123.419 53.2853C123.437 53.3269 123.445 53.3716 123.444 53.4167C123.443 53.4963 123.42 53.574 123.377 53.6409L122.883 54.4313L123.909 54.4033C123.957 54.4004 124.005 54.408 124.049 54.4254C124.094 54.4428 124.134 54.4697 124.167 54.5042C124.225 54.5713 124.256 54.6568 124.256 54.7452C124.256 54.8336 124.225 54.9192 124.167 54.9862C124.134 55.0207 124.094 55.0476 124.049 55.065C124.005 55.0824 123.957 55.09 123.909 55.0872H122.872L123.332 55.8047C123.384 55.8913 123.413 55.9897 123.416 56.0906C123.417 56.1347 123.41 56.1788 123.395 56.2202C123.379 56.2615 123.356 56.2995 123.325 56.3317C123.295 56.364 123.259 56.39 123.219 56.4083C123.178 56.4265 123.135 56.4367 123.091 56.4381C123.021 56.4364 122.954 56.415 122.896 56.3762C122.839 56.3375 122.793 56.2831 122.766 56.2195L122.3 55.3955L121.835 56.2195C121.807 56.2853 121.762 56.3418 121.703 56.3825C121.645 56.4232 121.576 56.4464 121.504 56.4493Z" fill="black"/>
<path d="M126.651 56.4493C126.607 56.4493 126.563 56.4404 126.523 56.4231C126.482 56.4057 126.446 56.3803 126.415 56.3484C126.382 56.3155 126.356 56.2761 126.339 56.2328C126.321 56.1894 126.313 56.1429 126.315 56.0962C126.317 56.0176 126.338 55.9408 126.376 55.8719L126.881 55.0872H125.849C125.802 55.0899 125.755 55.0823 125.712 55.0648C125.668 55.0474 125.629 55.0206 125.597 54.9862C125.536 54.9208 125.502 54.8347 125.502 54.7452C125.502 54.6557 125.536 54.5696 125.597 54.5042C125.629 54.4698 125.668 54.443 125.712 54.4256C125.755 54.4081 125.802 54.4005 125.849 54.4033L126.864 54.4313L126.387 53.6745C126.342 53.5999 126.317 53.515 126.315 53.4279C126.313 53.382 126.321 53.3364 126.337 53.2936C126.354 53.2508 126.379 53.2117 126.411 53.1788C126.443 53.1458 126.481 53.1196 126.523 53.1018C126.565 53.0839 126.611 53.0747 126.656 53.0747C126.719 53.0738 126.781 53.0914 126.834 53.1253C126.887 53.1592 126.928 53.2079 126.954 53.2653L127.447 54.1454L127.918 53.3045C127.947 53.2391 127.994 53.1831 128.054 53.1426C128.113 53.102 128.182 53.0786 128.254 53.0747C128.298 53.0733 128.342 53.0816 128.383 53.099C128.424 53.1165 128.46 53.1426 128.49 53.1756C128.522 53.2064 128.548 53.2438 128.566 53.2853C128.583 53.3269 128.592 53.3716 128.59 53.4167C128.59 53.4963 128.566 53.574 128.523 53.6409L128.03 54.4313L129.056 54.4033C129.103 54.4004 129.151 54.408 129.196 54.4254C129.24 54.4428 129.28 54.4697 129.314 54.5042C129.371 54.5713 129.403 54.6568 129.403 54.7452C129.403 54.8336 129.371 54.9192 129.314 54.9862C129.28 55.0207 129.24 55.0476 129.196 55.065C129.151 55.0824 129.103 55.09 129.056 55.0872H128.019L128.478 55.8047C128.53 55.8913 128.559 55.9897 128.562 56.0906C128.564 56.1347 128.557 56.1788 128.541 56.2202C128.526 56.2615 128.502 56.2995 128.472 56.3317C128.442 56.364 128.405 56.39 128.365 56.4083C128.325 56.4265 128.281 56.4367 128.237 56.4381C128.168 56.4364 128.1 56.415 128.043 56.3762C127.985 56.3375 127.94 56.2831 127.912 56.2195L127.447 55.3955L126.982 56.2195C126.954 56.2853 126.908 56.3418 126.85 56.3825C126.791 56.4232 126.722 56.4464 126.651 56.4493Z" fill="black"/>
<path d="M131.774 56.4493C131.73 56.4493 131.686 56.4404 131.646 56.4231C131.605 56.4057 131.569 56.3803 131.538 56.3484C131.505 56.3155 131.479 56.2761 131.462 56.2328C131.445 56.1894 131.436 56.1429 131.438 56.0962C131.44 56.0176 131.461 55.9408 131.499 55.8719L132.004 55.0872H130.972C130.925 55.0899 130.879 55.0823 130.835 55.0648C130.791 55.0474 130.752 55.0206 130.72 54.9862C130.659 54.9208 130.625 54.8347 130.625 54.7452C130.625 54.6557 130.659 54.5696 130.72 54.5042C130.752 54.4698 130.791 54.443 130.835 54.4256C130.879 54.4081 130.925 54.4005 130.972 54.4033L131.987 54.4313L131.51 53.6745C131.465 53.5999 131.44 53.515 131.438 53.4279C131.436 53.3812 131.445 53.3347 131.462 53.2913C131.479 53.2479 131.505 53.2085 131.538 53.1756C131.57 53.1436 131.607 53.1181 131.649 53.1008C131.69 53.0835 131.735 53.0746 131.78 53.0747C131.842 53.0738 131.904 53.0914 131.957 53.1253C132.01 53.1592 132.051 53.2079 132.077 53.2653L132.57 54.1454L133.041 53.3045C133.07 53.2391 133.117 53.1831 133.177 53.1426C133.236 53.102 133.305 53.0786 133.377 53.0747C133.421 53.0733 133.465 53.0816 133.506 53.099C133.547 53.1165 133.583 53.1426 133.613 53.1756C133.645 53.2064 133.671 53.2438 133.689 53.2853C133.706 53.3269 133.715 53.3716 133.713 53.4167C133.713 53.4963 133.689 53.574 133.646 53.6409L133.153 54.4313L134.179 54.4033C134.226 54.4004 134.274 54.408 134.319 54.4254C134.363 54.4428 134.403 54.4697 134.437 54.5042C134.494 54.5713 134.526 54.6568 134.526 54.7452C134.526 54.8336 134.494 54.9192 134.437 54.9862C134.403 55.0207 134.363 55.0476 134.319 55.065C134.274 55.0824 134.226 55.09 134.179 55.0872H133.142L133.601 55.8047C133.653 55.8913 133.682 55.9897 133.685 56.0906C133.687 56.136 133.679 56.1813 133.663 56.2237C133.647 56.266 133.622 56.3047 133.59 56.3372C133.561 56.3687 133.525 56.3938 133.486 56.4112C133.446 56.4285 133.403 56.4377 133.36 56.4381C133.291 56.4364 133.223 56.415 133.166 56.3762C133.108 56.3375 133.063 56.2831 133.035 56.2195L132.57 55.3955L132.105 56.2195C132.077 56.2853 132.031 56.3418 131.973 56.3825C131.914 56.4232 131.845 56.4464 131.774 56.4493Z" fill="black"/>
<path d="M149.409 68.8492H156.265" stroke="white" stroke-width="3" stroke-linecap="round" stroke-linejoin="round"/>
<path d="M54.3203 18.3699V63.9049C54.3203 65.2237 54.8442 66.4884 55.7766 67.4208C56.7091 68.3533 57.9738 68.8772 59.2926 68.8772H142.902" stroke="white" stroke-width="3" stroke-linecap="round" stroke-linejoin="round"/>
<path d="M54.3203 6.2952V13.1229" stroke="white" stroke-width="3" stroke-linecap="round" stroke-linejoin="round"/>
</svg>
