<svg width="23" height="24" viewBox="0 0 23 24" fill="none" xmlns="http://www.w3.org/2000/svg">
<g clip-path="url(#clip0_0_255)">
<path fill-rule="evenodd" clip-rule="evenodd" d="M18.8878 1.50372L21.1428 3.2994C21.3606 3.50436 21.4834 3.79063 21.4817 4.08969C21.4801 4.38873 21.3542 4.67365 21.1342 4.8762L19.4206 6.92676L13.59 13.8806C13.4879 13.9973 13.3521 14.0794 13.2012 14.1153L10.1772 14.8007C9.78051 14.8206 9.43505 14.5322 9.38379 14.1383V11.0308C9.39401 10.8809 9.45435 10.7389 9.55515 10.6276L15.2777 4.15764L17.2419 1.81188C17.6304 1.30252 18.3412 1.16945 18.8878 1.50372Z" stroke="#D45971" stroke-width="2" stroke-linecap="round" stroke-linejoin="round"/>
<path d="M10.7278 5.09085C11.3242 5.09085 11.8078 4.60732 11.8078 4.01085C11.8078 3.41438 11.3242 2.93085 10.7278 2.93085V5.09085ZM6.69577 4.01085V2.93085H6.69318L6.69577 4.01085ZM1.32025 9.41092H2.40025V9.40847L1.32025 9.41092ZM1.32025 17.5109L2.40025 17.5132V17.5109H1.32025ZM6.69577 22.9109L6.69318 23.9909H6.69577V22.9109ZM14.7598 22.9109V23.9909H14.7623L14.7598 22.9109ZM20.1353 17.5109H19.0553V17.5132L20.1353 17.5109ZM21.2153 12.1109C21.2153 11.5143 20.7317 11.0309 20.1353 11.0309C19.5388 11.0309 19.0553 11.5143 19.0553 12.1109H21.2153ZM16.2765 3.74561C16.0488 3.19428 15.4174 2.93184 14.866 3.15945C14.3147 3.38705 14.0523 4.01851 14.2799 4.56984L16.2765 3.74561ZM19.6542 7.97563C20.2365 7.84689 20.6043 7.27039 20.4755 6.68798C20.3468 6.10557 19.7704 5.7378 19.1879 5.86655L19.6542 7.97563ZM5.35225 17.7816C4.75579 17.7816 4.27225 18.265 4.27225 18.8616C4.27225 19.4581 4.75579 19.9416 5.35225 19.9416V17.7816ZM16.1047 19.9416C16.7012 19.9416 17.1847 19.4581 17.1847 18.8616C17.1847 18.265 16.7012 17.7816 16.1047 17.7816V19.9416ZM10.7278 2.93085H6.69577V5.09085H10.7278V2.93085ZM6.69318 2.93085C3.1214 2.93943 0.232603 5.84139 0.24025 9.41322L2.40025 9.40847C2.39515 7.02948 4.31931 5.09656 6.69836 5.09085L6.69318 2.93085ZM0.24025 9.41092V17.5109H2.40025V9.41092H0.24025ZM0.24025 17.5085C0.232603 21.0802 3.1214 23.9823 6.69318 23.9909L6.69836 21.8309C4.31931 21.8252 2.39515 19.8922 2.40025 17.5132L0.24025 17.5085ZM6.69577 23.9909H14.7598V21.8309H6.69577V23.9909ZM14.7623 23.9909C18.3341 23.9823 21.2229 21.0802 21.2153 17.5085L19.0553 17.5132C19.0603 19.8922 17.1362 21.8252 14.7572 21.8309L14.7623 23.9909ZM21.2153 17.5109V12.1109H19.0553V17.5109H21.2153ZM14.2799 4.56984C14.5606 5.24971 15.1331 6.21333 15.9889 6.95789C16.8642 7.71952 18.122 8.31433 19.6542 7.97563L19.1879 5.86655C18.5183 6.01456 17.9365 5.7893 17.4068 5.32838C16.8574 4.85037 16.4595 4.18895 16.2765 3.74561L14.2799 4.56984ZM5.35225 19.9416H16.1047V17.7816H5.35225V19.9416Z" fill="#D45971"/>
</g>
<defs>
<clipPath id="clip0_0_255">
<rect width="22.8" height="24" fill="white"/>
</clipPath>
</defs>
</svg>
