<svg width="24" height="24" viewBox="0 0 24 24" fill="none" xmlns="http://www.w3.org/2000/svg">
<g clip-path="url(#clip0_0_200)">
<path fill-rule="evenodd" clip-rule="evenodd" d="M4.12602 17.6292C2.8151 16.2906 1.92595 14.5967 1.56888 12.7574C1.20885 10.913 1.39373 9.00373 2.10092 7.26268C2.80208 5.5314 3.99913 4.0459 5.54176 2.9927C8.67166 0.855055 12.792 0.855055 15.9218 2.9927C17.4646 4.0459 18.6616 5.5314 19.3627 7.26268C20.0699 9.00373 20.2549 10.913 19.8947 12.7574C19.5377 14.5967 18.6486 16.2906 17.3376 17.6292C15.6015 19.4107 13.2195 20.4155 10.7318 20.4155C8.2442 20.4155 5.86213 19.4107 4.12602 17.6292Z" stroke="#D45971" stroke-width="2" stroke-linecap="round" stroke-linejoin="round"/>
<path d="M10.7417 4.72864C10.1174 4.79479 9.66493 5.35457 9.73102 5.97894C9.79726 6.60331 10.357 7.05582 10.9814 6.98967L10.7417 4.72864ZM13.5481 8.50176C13.7929 9.07999 14.46 9.35025 15.0383 9.10545C15.6164 8.86068 15.8866 8.19356 15.6418 7.61537L13.5481 8.50176ZM18.2781 16.6791C17.8338 16.2356 17.114 16.2362 16.6705 16.6806C16.2268 17.1249 16.2275 17.8447 16.6718 18.2883L18.2781 16.6791ZM21.8073 23.4147C22.2517 23.8583 22.9714 23.8577 23.4151 23.4133C23.8586 22.9689 23.858 22.2492 23.4136 21.8055L21.8073 23.4147ZM10.9814 6.98967C12.0766 6.87362 13.1188 7.48759 13.5481 8.50176L15.6418 7.61537C14.8223 5.67924 12.8326 4.5071 10.7417 4.72864L10.9814 6.98967ZM16.6718 18.2883L21.8073 23.4147L23.4136 21.8055L18.2781 16.6791L16.6718 18.2883Z" fill="#D45971"/>
</g>
<defs>
<clipPath id="clip0_0_200">
<rect width="24" height="24" fill="white"/>
</clipPath>
</defs>
</svg>
