<svg width="24" height="24" viewBox="0 0 24 24" fill="none" xmlns="http://www.w3.org/2000/svg">
<g clip-path="url(#clip0_0_412)">
<path d="M12.0001 11.4409C13.4327 11.4409 14.8066 10.8433 15.8196 9.77968C16.8326 8.71603 17.4017 7.27342 17.4017 5.76919C17.4017 4.26497 16.8326 2.82235 15.8196 1.7587C14.8066 0.695055 13.4327 0.0975037 12.0001 0.0975037C10.5675 0.0975037 9.19355 0.695055 8.18056 1.7587C7.16756 2.82235 6.59846 4.26497 6.59846 5.76919C6.59846 7.27342 7.16756 8.71603 8.18056 9.77968C9.19355 10.8433 10.5675 11.4409 12.0001 11.4409ZM12.0001 13.9328C4.81828 13.9328 0.214355 18.0941 0.214355 20.1203V23.9036H23.7858V20.1203C23.7858 17.67 19.4272 13.9328 12.0001 13.9328Z" fill="#D45971"/>
</g>
<defs>
<clipPath id="clip0_0_412">
<rect width="24" height="24" fill="white"/>
</clipPath>
</defs>
</svg>
