<svg width="24" height="24" viewBox="0 0 24 24" fill="none" xmlns="http://www.w3.org/2000/svg">
<g clip-path="url(#clip0_0_187)">
<path d="M22.5053 10.5618L22.5053 10.5619C21.9336 13.6466 19.3013 16.6641 16.6105 18.9957C15.2908 20.1391 14.007 21.0755 13.0522 21.7262C12.6254 22.0171 12.2657 22.25 11.9998 22.4177C11.734 22.25 11.3743 22.0171 10.9475 21.7262C9.9927 21.0755 8.70884 20.1391 7.3892 18.9957C4.69842 16.6641 2.06607 13.6466 1.4944 10.5619L1.49439 10.5618C0.902751 7.37043 1.49859 5.07965 2.55175 3.61405C3.60632 2.14649 5.18338 1.40908 6.78245 1.40908H6.81571L6.84889 1.40687C7.6863 1.3511 8.52482 1.52809 9.27995 1.92282C10.0355 2.31775 10.683 2.91801 11.1524 3.66728L11.9998 5.01983L12.8473 3.66728C13.3167 2.91801 13.9642 2.31775 14.7197 1.92282C15.4749 1.52809 16.3134 1.3511 17.1508 1.40687L17.184 1.40908H17.2172C18.8163 1.40908 20.3934 2.14649 21.4479 3.61405C22.5011 5.07965 23.0969 7.37043 22.5053 10.5618Z" stroke="#007BFF" stroke-width="2"/>
</g>
<defs>
<clipPath id="clip0_0_187">
<rect width="24" height="24" fill="white"/>
</clipPath>
</defs>
</svg>
