<svg width="24" height="24" viewBox="0 0 24 24" fill="none" xmlns="http://www.w3.org/2000/svg">
<path d="M11.5796 7.75199C11.3156 7.60799 11.0636 7.45199 10.7996 7.30799C10.2836 7.01999 10.1516 7.06799 9.85157 7.57199C8.73557 9.45599 7.63157 11.34 6.51557 13.224C5.89157 14.268 5.27957 15.324 4.66757 16.368C4.43957 16.764 4.48757 16.932 4.87157 17.16C5.14757 17.316 5.41157 17.472 5.68757 17.628C5.83157 17.7 5.97557 17.76 6.19157 17.856C6.33557 17.7 6.50357 17.568 6.61157 17.4C7.22357 16.38 7.82357 15.36 8.42357 14.328C9.55157 12.42 10.6676 10.512 11.7956 8.60399C12.0716 8.17199 12.0236 8.00399 11.5796 7.75199Z" fill="#FFD561"/>
<path d="M11.8437 4.644C11.8557 4.68 11.9517 4.728 11.9997 4.728C12.3357 4.74 12.6597 4.728 13.0677 4.728C12.5757 3.984 12.2277 3.24 11.5317 2.664C11.4597 2.808 11.4117 2.868 11.4237 2.904C11.5557 3.492 11.6997 4.068 11.8437 4.644Z" fill="#FFA28D"/>
<path d="M12.4678 10.212C12.1558 10.248 11.9878 10.332 11.8438 10.608C11.3998 11.46 10.9318 12.288 10.4638 13.128C10.3198 13.38 10.1878 13.644 10.0198 13.944H14.8918C14.4358 12.912 13.9558 11.94 13.5718 10.944C13.3678 10.356 13.0678 10.14 12.4678 10.212ZM5.06376 13.932C5.17176 13.932 5.33976 13.86 5.38776 13.776C6.03576 12.624 6.67176 11.46 7.34376 10.224H2.50776C2.18376 10.224 2.05176 10.416 2.05176 10.728V13.44C2.05176 13.776 2.21976 13.944 2.55576 13.944C3.39576 13.944 4.22376 13.944 5.06376 13.932Z" fill="#5FFFBA"/>
<path d="M5.50773 18.24C5.13573 18.012 4.75173 17.808 4.36773 17.604C4.15173 17.484 3.98373 17.556 3.94773 17.808C3.86373 18.372 3.80373 18.948 3.71973 19.548C3.74373 19.752 3.83973 19.836 4.05573 19.692C4.54773 19.38 5.03973 19.056 5.51973 18.72C5.75973 18.564 5.73573 18.384 5.50773 18.24Z" fill="#FFA28D"/>
<path d="M21.9481 10.692C21.9481 10.404 21.7801 10.236 21.4801 10.236H17.2441C17.3401 10.416 17.3881 10.524 17.4481 10.632C17.9761 11.7 18.4921 12.756 19.0201 13.812C19.0561 13.884 19.1641 13.932 19.2361 13.932C19.9801 13.944 20.7121 13.956 21.4561 13.932C21.7321 13.92 21.9481 13.752 21.9481 13.44V10.692Z" fill="#5FFFBA"/>
<path d="M18.1079 13.524C16.6319 10.932 15.1199 8.364 13.7039 5.748C13.2959 4.99199 12.8039 4.75199 11.9639 4.91999C12.0239 5.08799 12.0719 5.21999 12.1319 5.364C13.0559 7.428 13.9799 9.504 14.9279 11.568C15.3839 12.564 15.8999 13.524 16.4279 14.484C16.7279 15.036 17.2079 15.096 17.8319 14.724C18.3359 14.412 18.4199 14.088 18.1079 13.524Z" fill="#FFD561"/>
<path d="M19.8243 17.472C19.4283 17.472 18.9603 17.736 18.8523 18.036C18.7083 18.456 18.9003 18.792 19.2003 19.056C19.4043 19.236 19.6803 19.368 19.9203 19.512C20.1963 19.656 20.4723 19.788 20.8923 19.98C20.7963 19.308 20.7363 18.708 20.6043 18.132C20.5203 17.76 20.2683 17.472 19.8243 17.472ZM19.5123 16.932C19.6203 16.8 19.4883 16.464 19.4403 16.224C19.4163 16.128 19.3443 16.032 19.2963 15.936C18.7803 14.856 18.6243 15.06 17.7363 15.516C17.4363 15.672 17.3763 15.912 17.5563 16.2C17.7723 16.536 17.9763 16.872 18.2163 17.196C18.3123 17.328 18.4803 17.412 18.6603 17.556C18.9603 17.34 19.3083 17.196 19.5123 16.932Z" fill="#FFA28D"/>
</svg>
