<svg width="28" height="28" viewBox="0 0 28 28" fill="none" xmlns="http://www.w3.org/2000/svg">
<path d="M18.7042 5.00001C18.8084 4.99951 18.9116 5.01606 19.008 5.04869C19.1044 5.08134 19.192 5.12943 19.266 5.19021C19.3401 5.25119 19.399 5.32373 19.4392 5.40365C19.4793 5.48358 19.5 5.56931 19.5 5.65589C19.5 5.74247 19.4793 5.8282 19.4392 5.90812C19.399 5.98805 19.3401 6.06059 19.266 6.12156L10.3097 13.5395C10.2356 13.6005 10.1767 13.6731 10.1365 13.753C10.0964 13.8329 10.0757 13.9186 10.0757 14.0052C10.0757 14.0918 10.0964 14.1775 10.1365 14.2575C10.1767 14.3374 10.2356 14.4099 10.3097 14.4709L19.266 21.8758C19.415 21.9993 19.4987 22.1668 19.4987 22.3414C19.4987 22.5161 19.415 22.6836 19.266 22.8071C19.117 22.9306 18.9149 23 18.7042 23C18.4935 23 18.2915 22.9306 18.1425 22.8071L9.19416 15.3957C8.74967 15.0268 8.5 14.5266 8.5 14.0052C8.5 13.4838 8.74967 12.9837 9.19416 12.6148L18.1425 5.19021C18.2164 5.12943 18.3041 5.08134 18.4005 5.04869C18.4969 5.01606 18.6001 4.99951 18.7042 5.00001Z" fill="#D45971"/>
</svg>
