<svg width="38" height="24" viewBox="0 0 38 24" fill="none" xmlns="http://www.w3.org/2000/svg">
<g clip-path="url(#clip0_0_124)">
<path fill-rule="evenodd" clip-rule="evenodd" d="M11.8421 19.1053C7.91882 19.1053 4.73684 15.9233 4.73684 12C4.73684 8.07671 7.91882 4.89474 11.8421 4.89474C15.7666 4.89474 18.9474 8.07671 18.9474 12C18.9474 15.9233 15.7666 19.1053 11.8421 19.1053ZM26.0526 0.157898H11.8421C5.30171 0.157898 0 5.46079 0 12C0 18.5392 5.30171 23.8421 11.8421 23.8421H26.0526C32.593 23.8421 37.8947 18.5392 37.8947 12C37.8947 5.46079 32.593 0.157898 26.0526 0.157898ZM11.8421 7.26316C9.22618 7.26316 7.10526 9.38408 7.10526 12C7.10526 14.6159 9.22618 16.7368 11.8421 16.7368C14.458 16.7368 16.5789 14.6159 16.5789 12C16.5789 9.38408 14.458 7.26316 11.8421 7.26316Z" fill="#D45971"/>
</g>
<defs>
<clipPath id="clip0_0_124">
<rect width="37.8947" height="24" fill="white"/>
</clipPath>
</defs>
</svg>
