<svg width="4" height="20" viewBox="0 0 4 20" fill="none" xmlns="http://www.w3.org/2000/svg">
<g clip-path="url(#clip0_0_54)">
<path d="M3.875 10C3.875 10.4973 3.67746 10.9742 3.32583 11.3258C2.97419 11.6775 2.49728 11.875 2 11.875C1.50272 11.875 1.02581 11.6775 0.674175 11.3258C0.322544 10.9742 0.125 10.4973 0.125 10C0.125 9.50272 0.322544 9.02581 0.674175 8.67417C1.02581 8.32254 1.50272 8.125 2 8.125C2.49728 8.125 2.97419 8.32254 3.32583 8.67417C3.67746 9.02581 3.875 9.50272 3.875 10ZM3.875 18.125C3.875 18.6223 3.67746 19.0992 3.32583 19.4508C2.97419 19.8025 2.49728 20 2 20C1.50272 20 1.02581 19.8025 0.674175 19.4508C0.322544 19.0992 0.125 18.6223 0.125 18.125C0.125 17.6277 0.322544 17.1508 0.674175 16.7992C1.02581 16.4475 1.50272 16.25 2 16.25C2.49728 16.25 2.97419 16.4475 3.32583 16.7992C3.67746 17.1508 3.875 17.6277 3.875 18.125ZM3.875 1.875C3.875 2.37228 3.67746 2.84919 3.32583 3.20083C2.97419 3.55246 2.49728 3.75 2 3.75C1.50272 3.75 1.02581 3.55246 0.674175 3.20083C0.322544 2.84919 0.125 2.37228 0.125 1.875C0.125 1.37772 0.322544 0.900805 0.674175 0.549175C1.02581 0.197544 1.50272 0 2 0C2.49728 0 2.97419 0.197544 3.32583 0.549175C3.67746 0.900805 3.875 1.37772 3.875 1.875Z" fill="white"/>
</g>
<defs>
<clipPath id="clip0_0_54">
<rect width="4" height="20" fill="white"/>
</clipPath>
</defs>
</svg>
