<svg width="22" height="24" viewBox="0 0 22 24" fill="none" xmlns="http://www.w3.org/2000/svg">
<g clip-path="url(#clip0_602_1815)">
<path fill-rule="evenodd" clip-rule="evenodd" d="M12.724 4C12.724 1.79086 14.523 0 16.7422 0C18.9613 0 20.7604 1.79086 20.7604 4C20.7604 6.20914 18.9613 8 16.7422 8C15.6216 8 14.6089 7.54315 13.8809 6.80816L8.31839 10.5954C8.36975 10.851 8.39675 11.115 8.39675 11.3846C8.39675 11.9186 8.29115 12.4291 8.09986 12.8957L14.1991 16.903C14.8914 16.3393 15.7771 16 16.7422 16C18.9613 16 20.7604 17.7908 20.7604 20C20.7604 22.2091 18.9613 24 16.7422 24C14.523 24 12.724 22.2091 12.724 20C12.724 19.4214 12.8478 18.8706 13.0704 18.3733L7.02043 14.3984C6.3147 15.0118 5.39027 15.3846 4.37853 15.3846C2.15936 15.3846 0.360352 13.5937 0.360352 11.3846C0.360352 9.17548 2.15936 7.38462 4.37853 7.38462C5.65463 7.38462 6.79059 7.9767 7.52609 8.89822L12.917 5.2277C12.7916 4.84031 12.724 4.42752 12.724 4Z" fill="#1C274C"/>
</g>
<defs>
<clipPath id="clip0_602_1815">
<rect width="21.12" height="24" fill="white"/>
</clipPath>
</defs>
</svg>
