<svg width="13" height="24" viewBox="0 0 13 24" fill="none" xmlns="http://www.w3.org/2000/svg">
<g clip-path="url(#clip0_443_4589)">
<path d="M1.3123 23.8817C1.19841 23.8824 1.08551 23.8606 0.98007 23.8175C0.874634 23.7744 0.778735 23.711 0.697874 23.6308C0.616763 23.5503 0.552383 23.4546 0.508449 23.3492C0.464514 23.2437 0.441895 23.1306 0.441895 23.0164C0.441895 22.9021 0.464514 22.789 0.508449 22.6836C0.552383 22.5781 0.616763 22.4824 0.697874 22.4019L10.494 12.6144C10.5751 12.534 10.6395 12.4383 10.6835 12.3328C10.7274 12.2274 10.75 12.1143 10.75 12C10.75 11.8858 10.7274 11.7727 10.6835 11.6672C10.6395 11.5618 10.5751 11.466 10.494 11.3856L0.697874 1.6154C0.534919 1.45244 0.443371 1.23143 0.443371 1.00097C0.443371 0.770522 0.534919 0.549507 0.697874 0.386552C0.860829 0.223597 1.08184 0.13205 1.3123 0.13205C1.54275 0.13205 1.76376 0.223597 1.92672 0.386552L11.7142 10.1654C12.2004 10.6522 12.4735 11.312 12.4735 12C12.4735 12.688 12.2004 13.3478 11.7142 13.8346L1.92672 23.6308C1.84586 23.711 1.74996 23.7744 1.64452 23.8175C1.53909 23.8606 1.42619 23.8824 1.3123 23.8817Z" fill="#231F20"/>
</g>
<defs>
<clipPath id="clip0_443_4589">
<rect width="12.9231" height="24" fill="white"/>
</clipPath>
</defs>
</svg>
