<svg width="31" height="40" viewBox="0 0 31 40" fill="none" xmlns="http://www.w3.org/2000/svg">
<g clip-path="url(#clip0_0_325)">
<path fill-rule="evenodd" clip-rule="evenodd" d="M10.5372 23.0835C10.5372 21.4357 12.1127 18.991 12.8131 17.8105C13.256 17.0641 13.6879 16.1524 14.0608 15.3524C14.3098 14.8181 15.0203 13.0708 15.0665 12.515C15.6409 12.9359 16.2162 16.4881 16.3073 17.1761C16.6339 19.6436 17.7473 20.8014 17.8115 21.5737C16.9342 21.5737 16.6831 21.7242 15.9676 21.9257C14.6077 22.3087 13.3237 23.0966 11.6068 23.1778C11.1517 23.1994 11.15 23.0835 10.5372 23.0835ZM11.2235 5.10279C10.887 5.2104 11.0201 5.3195 10.6743 6.20111C10.5037 6.63592 10.3927 7.02739 10.2053 7.51656L7.67231 14.0423C7.48922 14.5518 7.16058 14.8924 7.18867 15.3974L7.2012 15.7353C6.47525 18.4858 5.86275 20.8345 4.89255 23.4555C4.47443 24.5851 3.86839 25.9159 3.38591 26.8973L1.71595 30.2603C1.69829 30.2836 1.66627 30.3243 1.63681 30.3518C1.50768 30.9903 1.66471 30.5913 1.32495 30.8414C1.37801 31.4243 1.08162 31.673 1.15683 32.4165C2.4952 32.4165 3.85578 32.3915 5.19092 32.4118L8.89019 32.5538C9.24354 31.8174 10.105 27.9413 10.2627 27.6127C16.6889 27.6127 15.8461 24.9003 20.4193 25.9657L21.3002 29.7514C22.0097 33.2576 21.1086 31.9777 23.5181 32.3373C24.9361 32.5488 26.8052 32.3328 28.1429 32.5163C31.3879 32.9614 30.6155 32.7415 28.8424 27.013C28.4406 25.7149 25.4926 16.9184 24.9486 16.4807H24.8664C24.7881 17.0079 25.0287 16.7234 24.4308 17.0666L22.4082 17.6484C21.019 17.8768 19.5483 17.3446 18.6323 16.3636L17.6151 14.7581C16.4464 12.3304 16.1332 10.4448 15.5058 9.18528C15.255 8.68164 15.154 8.70798 14.9322 8.14026C14.6251 7.3539 14.7734 7.5366 14.2417 7.02813C13.6622 6.47403 13.4041 6.64802 11.498 4.71521C11.4168 5.51997 11.5484 4.75924 11.2235 5.10279Z" fill="black"/>
<path fill-rule="evenodd" clip-rule="evenodd" d="M11.9658 4.30323L12.0487 4.44263C15.8824 4.73784 19.1007 4.00688 20.316 7.67358C20.9988 9.73354 20.8508 12.1228 22.3142 14.3152C22.835 15.0955 23.4381 15.3996 23.7933 15.9455C24.2601 16.1121 24.0677 16.0595 24.252 16.2996L24.8666 16.4805H24.9488C24.7738 15.788 24.9608 16.2492 24.6744 16.1662C24.2779 15.9672 24.0229 15.6213 23.7701 15.2179C22.9841 13.9634 22.7194 13.011 22.4712 11.4283C22.0719 8.88219 23.6706 1.42344 17.5769 3.06048C14.8881 3.78281 15.5822 4.03699 11.9658 4.30323Z" fill="#5B94FB"/>
<path fill-rule="evenodd" clip-rule="evenodd" d="M11.2236 5.1028C11.5486 4.75926 11.417 5.51999 11.4982 4.71523C13.4043 6.64804 13.6624 6.47405 14.2419 7.02815C14.7736 7.53662 14.6253 7.35391 14.9324 8.14028C15.1542 8.708 15.2552 8.68166 15.506 9.1853C16.1333 10.4448 16.4466 12.3304 17.6153 14.7581L18.6324 16.3637C19.5484 17.3446 21.0191 17.8768 22.4083 17.6485L24.431 17.0666C25.0289 16.7234 24.7883 17.0079 24.8666 16.4807L24.2519 16.2997C23.3533 16.2349 22.6898 15.7357 21.9404 15.3905C21.1328 15.0184 20.8262 14.6586 20.2149 14.0907C18.891 12.8606 18.6335 12.0143 17.6921 10.4413C16.9948 9.2761 16.1414 7.71367 15.1637 6.79008C14.0831 5.76946 12.9578 5.46767 12.3611 5.05208C11.993 4.79576 11.9438 4.57294 11.4868 4.39258L11.3609 4.42736C11.1559 4.82264 11.2588 4.51319 11.2236 5.1028Z" fill="#001131"/>
<path fill-rule="evenodd" clip-rule="evenodd" d="M11.7731 4.21406C11.183 4.13224 11.5075 4.0196 11.3613 4.42735L11.4872 4.39256C11.5159 4.37878 11.5594 4.32082 11.5727 4.35C11.5861 4.37917 11.6444 4.31953 11.6623 4.31677C11.6879 4.31284 11.96 4.30296 11.9662 4.30335C15.5826 4.03711 14.8885 3.78294 17.5772 3.06061C23.671 1.42357 22.0723 8.88232 22.4716 11.4284C22.7198 13.0111 22.9845 13.9635 23.7705 15.218C24.0232 15.6214 24.2783 15.9673 24.6748 16.1664C24.6336 15.5473 24.5704 15.6382 24.3635 15.1548L23.9885 14.3481C23.7953 14.0995 24.0181 14.5424 23.7624 13.9648C23.7088 13.8438 23.699 13.7986 23.6616 13.6642C22.496 9.47225 24.4275 4.60923 22.085 2.19335C20.618 0.68038 18.1208 1.24506 16.6331 1.99968C14.6808 2.99 14.8379 3.61748 11.7731 4.21406Z" fill="#99BAFA"/>
<path fill-rule="evenodd" clip-rule="evenodd" d="M23.7934 15.9457C23.4382 15.3997 22.8351 15.0957 22.3143 14.3154C20.8509 12.1229 20.9989 9.73366 20.3161 7.6737C19.1008 4.007 15.8825 4.73796 12.0488 4.44275C13.9468 5.73217 14.3321 5.63802 15.9797 6.29592C16.8209 6.63183 18.6062 8.08093 19.0798 8.91029C20.512 11.4185 20.883 14.7031 23.7934 15.9457Z" fill="#0459F4"/>
<path fill-rule="evenodd" clip-rule="evenodd" d="M11.7725 4.21404C14.8373 3.61746 14.6802 2.98999 16.6325 1.99967C18.1202 1.24505 20.6174 0.680367 22.0844 2.19334C24.4269 4.60922 22.4954 9.47224 23.661 13.6642C23.6984 13.7986 23.7082 13.8438 23.7618 13.9648C24.0175 14.5424 23.7947 14.0995 23.9879 14.3481C23.9879 13.613 23.9214 13.1938 23.8841 12.7574L23.8836 8.97953C24.0394 8.09391 24.1381 8.77158 24.127 7.1641C24.1101 4.72726 24.4848 2.65788 22.3299 0.722346C21.7383 0.191009 21.2839 0.0561544 20.668 0.0251465H19.3474C17.6838 0.0981802 16.6677 0.922089 15.5215 1.85261L13.2382 3.54968C13.0058 3.67453 12.789 3.78636 12.5945 3.86261L11.7725 4.21404Z" fill="#CCDEFB"/>
<path fill-rule="evenodd" clip-rule="evenodd" d="M24.2515 16.2997C24.0673 16.0597 24.2596 16.1122 23.7928 15.9457C20.8824 14.7031 20.5114 11.4185 19.0792 8.9103C18.6057 8.08094 16.8203 6.63184 15.9791 6.29592C14.3316 5.63803 13.9462 5.73218 12.0482 4.44276L11.9653 4.30336C11.9591 4.30297 11.687 4.31285 11.6614 4.31677C11.6435 4.31953 11.5852 4.37918 11.5718 4.35C11.5585 4.32083 11.515 4.37879 11.4863 4.39257C11.9434 4.57293 11.9926 4.79574 12.3607 5.05206C12.9573 5.46765 14.0827 5.76945 15.1632 6.79007C16.141 7.71366 16.9943 9.27609 17.6917 10.4413C18.6331 12.0143 18.8905 12.8606 20.2144 14.0906C20.8258 14.6586 21.1324 15.0184 21.94 15.3905C22.6894 15.7357 23.3529 16.2349 24.2515 16.2997Z" fill="#0042BC"/>
<path fill-rule="evenodd" clip-rule="evenodd" d="M6.41928 16.4953C6.26471 17.1866 5.828 17.7123 5.53495 18.1995C4.85436 19.331 4.27339 20.0817 3.72644 21.2196C3.46024 21.7733 3.19518 22.2488 2.9561 22.7653C2.37745 24.0154 1.26937 29.193 1.32528 30.8414C1.66505 30.5912 1.50802 30.9903 1.63714 30.3518C1.85864 28.7109 6.53149 16.1661 7.20153 15.7352L7.18901 15.3973C6.76372 15.6021 6.91125 15.4332 6.62872 15.8968C6.56114 16.0077 6.55767 16.0172 6.50223 16.161C6.38042 16.4771 6.42578 16.2335 6.41928 16.4953Z" fill="#E34E9C"/>
<path fill-rule="evenodd" clip-rule="evenodd" d="M1.15665 32.4165C1.08144 31.673 1.37782 31.4243 1.32476 30.8414C1.26885 29.193 2.37693 24.0154 2.95558 22.7653C3.19466 22.2488 3.45972 21.7734 3.72592 21.2196C4.27287 20.0817 4.85384 19.331 5.53443 18.1995C5.82748 17.7123 6.26419 17.1866 6.41876 16.4954C5.81957 16.8719 5.83148 17.0878 5.41161 17.5463L3.69231 19.2647C3.66445 19.3045 3.43646 19.6587 3.43163 19.6694C3.07895 20.4525 3.8342 19.4411 2.48742 21.8964C2.45459 21.9563 2.42304 22.0139 2.39296 22.0765L2.08514 22.8667C1.03456 25.6777 1.50096 27.7575 1.10863 29.988C1.01915 30.4969 0.956905 30.6972 0.923795 31.1829C0.921499 31.2168 0.918347 31.8663 0.919044 31.8708C1.01911 32.5383 0.796992 32.1293 1.15665 32.4165Z" fill="#FAA7D5"/>
<path fill-rule="evenodd" clip-rule="evenodd" d="M1.63672 30.3518C1.66617 30.3242 1.6982 30.2835 1.71586 30.2602L3.38582 26.8973C3.8683 25.9158 4.47434 24.585 4.89246 23.4555C5.86266 20.8344 6.47516 18.4858 7.2011 15.7352C6.53106 16.1661 1.85822 28.7109 1.63672 30.3518Z" fill="#74254B"/>
<path fill-rule="evenodd" clip-rule="evenodd" d="M0.015625 39.6513L0.364457 39.3024C0.528283 39.5526 0.742308 39.6777 1.00656 39.6777C1.26027 39.6777 1.49806 39.572 1.72091 39.3615C1.94291 39.15 2.20981 38.7757 2.51896 38.2384L3.63147 36.3181C3.44387 36.2961 3.28264 36.2847 3.14876 36.2847C2.78939 36.2847 2.51191 36.3745 2.31637 36.5542C2.12083 36.7339 2.02395 36.9911 2.02395 37.325L1.51743 37.5751C1.55004 37.2519 1.64077 36.9841 1.78877 36.7726C1.9517 36.5366 2.1446 36.3692 2.36659 36.2688C2.58856 36.1693 2.91007 36.105 3.33198 36.0759C3.41656 36.0706 3.54339 36.0609 3.71426 36.0468L4.24012 35.9517L4.27361 36.8114L4.42333 38.5951C4.45768 39.01 4.50702 39.284 4.56958 39.4152C4.6321 39.5464 4.74574 39.6125 4.90868 39.6125C4.93774 39.6125 5.03906 39.6072 5.21083 39.5975L5.17912 39.7675L3.9926 39.9631L3.88693 38.6893H2.4802C2.20802 39.1615 1.95081 39.4918 1.70858 39.6803C1.46635 39.8688 1.17658 39.9631 0.841831 39.9631C0.522993 39.9631 0.248161 39.8591 0.015625 39.6513ZM2.5912 38.4991H3.86841L3.70368 36.5604L2.5912 38.4991Z" fill="black"/>
<path fill-rule="evenodd" clip-rule="evenodd" d="M5.47852 39.8679L5.86077 39.4839H5.89426C5.9022 39.4839 5.92068 39.4865 5.948 39.4918C5.97705 39.497 6.00966 39.4997 6.04576 39.4997C6.22193 39.4997 6.3576 39.4354 6.45536 39.3077C6.55225 39.1791 6.63154 38.9606 6.69406 38.6506L7.17147 36.2494C6.8165 36.2494 6.53022 36.3445 6.31176 36.5348C6.09331 36.726 5.9841 36.9743 5.9841 37.2817V37.3381L5.48377 37.5812C5.53045 37.0501 5.73572 36.6616 6.10124 36.4159C6.4677 36.1701 7.02173 36.0468 7.76514 36.0468C8.34476 36.0468 8.75083 36.1023 8.98247 36.2133C9.21502 36.3251 9.3313 36.5198 9.3313 36.7973C9.3313 37.2562 8.99656 37.6473 8.32714 37.9715L8.94637 39.0082C9.16657 39.3773 9.32952 39.5614 9.43612 39.5614C9.55327 39.5614 9.76288 39.4099 10.0659 39.106L10.0166 39.35C9.64045 39.7375 9.36211 39.9313 9.1833 39.9313C8.95166 39.9313 8.69535 39.6733 8.41522 39.1562L7.83474 38.0869H7.34675L7.30005 38.3185C7.19878 38.8276 6.91337 39.231 6.44389 39.5279L7.45245 39.5482L7.09662 39.9313L5.47852 39.8679ZM7.37845 37.9283H8.06114C8.53062 37.6975 8.7658 37.3425 8.7658 36.8651C8.7658 36.4256 8.45133 36.2054 7.82152 36.2054H7.7211L7.37845 37.9283Z" fill="black"/>
<path fill-rule="evenodd" clip-rule="evenodd" d="M10.5698 39.8679L10.9512 39.4874L10.99 39.4962C11.0112 39.4988 11.0613 39.4997 11.1397 39.4997C11.3309 39.4997 11.4727 39.4319 11.5652 39.2963C11.6568 39.1597 11.7422 38.8946 11.8215 38.4982L12.232 36.4274H11.5793C10.916 36.4274 10.5848 36.689 10.5848 37.2122C10.5848 37.2747 10.5928 37.3513 10.6086 37.4421L10.0713 37.6922C10.1435 37.1866 10.3629 36.7867 10.7293 36.4908C11.0966 36.1948 11.5573 36.0468 12.1131 36.0468H13.208C13.7021 36.0468 14.0289 36.0142 14.1892 35.9491C14.3495 35.883 14.4579 35.7376 14.5142 35.5121L14.9018 35.3545C14.7811 35.6742 14.5486 35.9332 14.2051 36.1305C13.8607 36.3287 13.4696 36.4274 13.0327 36.4274H12.7746L12.4152 38.2269C12.3518 38.5511 12.2575 38.8056 12.1325 38.9924C12.0083 39.1791 11.8127 39.3579 11.5458 39.5288L12.5421 39.5508L12.1835 39.9313L10.5698 39.8679Z" fill="black"/>
<path fill-rule="evenodd" clip-rule="evenodd" d="M15.3193 39.9631C14.8965 39.9631 14.5609 39.8318 14.3143 39.5684C14.0677 39.3051 13.9443 38.9483 13.9443 38.4974C13.9443 37.8217 14.1769 37.2289 14.642 36.7181C15.107 36.2071 15.6479 35.9517 16.2636 35.9517C16.6829 35.9517 17.015 36.0812 17.2607 36.3402C17.5056 36.5991 17.628 36.9497 17.628 37.3937C17.628 38.0992 17.4016 38.7035 16.948 39.2073C16.4953 39.7111 15.9518 39.9631 15.3193 39.9631ZM15.4215 39.7886C15.869 39.7886 16.2521 39.5517 16.571 39.0787C16.8907 38.6057 17.0511 38.0376 17.052 37.3751C17.0511 36.5357 16.7595 36.1156 16.1773 36.1156C15.7298 36.1156 15.3458 36.3499 15.0252 36.8176C14.7036 37.2853 14.5424 37.8464 14.5415 38.5009C14.5424 39.3597 14.8358 39.7886 15.4215 39.7886Z" fill="black"/>
<path fill-rule="evenodd" clip-rule="evenodd" d="M19.3545 37.9759L19.5298 37.7697H19.8443L20.1385 36.2846C20.0513 36.2706 19.9896 36.2635 19.9552 36.2635C19.6804 36.2635 19.4461 36.3639 19.2524 36.5639C19.0586 36.7638 18.9617 37.0051 18.9617 37.2879V37.3249L18.4614 37.5706C18.5406 36.555 19.2497 36.0468 20.5877 36.0468H20.7269L20.3869 37.7697H21.9785L22.1309 36.9981C22.2305 36.4908 22.4286 36.0891 22.7229 35.7931C23.0179 35.4971 23.3668 35.3492 23.7702 35.3492C23.9278 35.3492 24.0688 35.3703 24.193 35.4135L23.971 35.7958C23.7939 35.646 23.6328 35.5711 23.4883 35.5711C23.306 35.5711 23.1606 35.6478 23.0514 35.8002C22.9422 35.9534 22.8488 36.2142 22.7713 36.5815L22.3582 38.5105C22.2701 38.9245 22.2269 39.1984 22.2269 39.3323C22.2269 39.5094 22.3229 39.5983 22.5158 39.5983C22.5995 39.5983 22.7202 39.5913 22.877 39.5772L22.8453 39.7358L21.5399 39.963L21.9372 37.9759H20.3455L20.2838 38.2824C20.1851 38.7686 19.9702 39.165 19.6381 39.4715C19.3061 39.7781 18.9246 39.9313 18.4948 39.9313C18.1768 39.9313 17.909 39.8335 17.6924 39.6389L18.0535 39.268C18.2191 39.5517 18.4596 39.6935 18.7758 39.6935C19.2321 39.6935 19.5333 39.3271 19.6795 38.5951L19.8037 37.9759H19.3545Z" fill="black"/>
<path fill-rule="evenodd" clip-rule="evenodd" d="M23.1328 39.6283L23.5019 39.2496C23.6754 39.5349 23.9176 39.6776 24.2268 39.6776C24.4303 39.6776 24.61 39.5913 24.7668 39.4195C24.9235 39.2478 25.0301 39.0197 25.0865 38.736L25.5745 36.2838C25.4864 36.2706 25.4256 36.2635 25.3913 36.2635C25.1076 36.2635 24.8707 36.3648 24.6813 36.5665C24.492 36.7691 24.3977 37.0201 24.3977 37.3214L23.8965 37.5663C23.9326 37.0871 24.1246 36.7136 24.4725 36.4467C24.8196 36.1798 25.2873 36.0468 25.874 36.0468H26.0828C26.4016 36.9329 26.6341 37.8437 26.7804 38.7792L28.4733 36.0468L29.0256 35.9834L28.8292 36.8114L28.409 38.9175C28.3729 39.1051 28.3544 39.2548 28.3544 39.3658C28.3544 39.5173 28.4469 39.5931 28.6319 39.5931C28.7226 39.5931 28.8459 39.5843 28.9992 39.5666L28.9675 39.7305L27.6885 39.9842L28.3571 36.6246L26.5919 39.453L26.3258 39.4944V39.4195C26.3258 38.7466 26.1611 37.9115 25.8326 36.9136L25.6212 37.9671C25.3631 39.2663 24.8002 39.9155 23.9326 39.9155C23.6305 39.9155 23.3636 39.8195 23.1328 39.6283Z" fill="black"/>
</g>
<defs>
<clipPath id="clip0_0_325">
<rect width="30.3813" height="40" fill="white"/>
</clipPath>
</defs>
</svg>
