<svg width="161" height="160" viewBox="0 0 161 160" fill="none" xmlns="http://www.w3.org/2000/svg">
<path d="M23.4333 149.334C54.6777 163.555 105.33 163.555 136.574 149.334C167.818 135.112 167.815 112.025 136.574 97.7956C105.333 83.5664 54.6777 83.5737 23.4333 97.7956C-7.8111 112.018 -7.8111 135.112 23.4333 149.334Z" fill="#F5F5F5"/>
<path d="M134.069 129.966C144.362 129.966 152.707 125.989 152.707 121.083C152.707 116.177 144.362 112.2 134.069 112.2C123.775 112.2 115.431 116.177 115.431 121.083C115.431 125.989 123.775 129.966 134.069 129.966Z" fill="#E0E0E0"/>
<path d="M24.8411 134.601C35.1346 134.601 43.4791 130.624 43.4791 125.718C43.4791 120.812 35.1346 116.835 24.8411 116.835C14.5476 116.835 6.20312 120.812 6.20312 125.718C6.20312 130.624 14.5476 134.601 24.8411 134.601Z" fill="#E0E0E0"/>
<path d="M13.7657 123.836H17.1826V117.987H13.7657V123.836Z" fill="#B16668"/>
<path d="M27.7363 119.409L31.1532 119.526L31.3246 113.338L27.7363 113.221V119.409Z" fill="#B16668"/>
<path d="M14.787 76.5101C14.787 79.7702 14.9584 98.6744 14.9584 98.6744C14.8782 99.6116 13.9775 101.282 13.9046 104.662C13.8024 109.563 13.6201 120.915 13.6201 120.915C14.2103 121.204 14.8567 121.361 15.5138 121.373C16.1708 121.386 16.8227 121.255 17.4236 120.988C17.4236 120.988 21.0447 104.845 21.6573 100.002C22.1897 95.7644 23.116 84.2592 23.116 84.2592L25.727 98.576C25.3259 100.356 25.1774 102.184 25.2857 104.006C25.4462 106.248 27.5248 117.498 27.5248 117.498C28.1202 117.835 28.7822 118.036 29.464 118.088C30.1457 118.14 30.8307 118.042 31.4704 117.801C31.4704 117.801 31.6746 100.151 31.7111 98.1092C31.7585 95.7608 30.7338 75.562 30.7338 75.562L14.787 76.5101Z" fill="#37474F"/>
<path d="M17.1839 122.151V121.663C17.3662 121.663 17.4793 121.842 17.5485 122.279C17.597 122.605 17.6628 122.927 17.7455 123.245C17.8985 123.844 18.0984 124.429 18.3435 124.996C18.8249 126.185 19.2296 126.63 20.3382 128.019C20.7162 128.404 21.0706 128.812 21.3994 129.241C21.6036 129.605 21.6765 130.63 21.3265 130.863C20.0355 131.724 18.0773 131.749 16.6916 131.341C16.1752 131.198 15.7111 130.908 15.3548 130.508C14.9985 130.108 14.765 129.613 14.6823 129.084C14.6312 128.767 14.6495 128.446 14.613 128.128C14.4931 127.408 14.2003 126.727 13.7597 126.145C13.5011 125.805 13.281 125.438 13.1033 125.051C12.8152 124.347 13.0449 123.559 13.2273 122.863C13.3877 122.257 13.5591 121.594 13.7633 121.652V122.017C14.2508 122.398 14.8544 122.602 15.4736 122.593C15.9768 122.633 17.1875 122.531 17.1839 122.151Z" fill="#263238"/>
<path d="M31.19 118.472C31.3651 118.472 31.5109 118.731 31.9194 119.154C32.504 119.748 33.1829 120.241 33.9287 120.613C35.2086 121.254 37.6956 122.239 38.8188 122.746C39.5226 123.063 39.4898 123.913 38.7641 124.394C38.0384 124.876 36.2807 125.226 34.1766 124.759C33.0279 124.504 31.5328 123.442 30.5883 123.501C29.6439 123.559 27.8716 123.545 27.1751 123.063C26.4786 122.582 26.7557 121.553 26.9526 120.671C27.1678 119.705 27.4376 118.202 27.7549 118.268V118.6C28.167 119.223 30.2857 119.475 31.19 119.019V118.472Z" fill="#263238"/>
<path d="M23.0986 84.2592C24.8587 83.7061 26.4766 82.7752 27.8393 81.5316C27.8393 81.5316 26.9203 83.2491 24.1926 84.85L25.5127 97.5841L23.0986 84.2592Z" fill="#263238"/>
<path d="M28.5282 68.7063C26.2965 61.2745 26.7377 54.9804 26.3184 53.055L32.0399 61.0448C32.2821 63.6781 32.6729 66.2957 33.2105 68.885C33.8706 71.7258 34.7713 75.2666 35.8507 77.4692C36.0465 77.8573 36.3771 78.1607 36.7806 78.3225C37.8746 78.7638 38.3632 79.3217 39.2275 79.9599C39.9057 80.4631 40.4199 80.5288 40.3798 80.733C40.3049 80.9627 40.1463 81.1559 39.9355 81.2741C39.7247 81.3924 39.4772 81.427 39.2421 81.3711C38.7203 81.2618 38.2134 81.0904 37.7323 80.8606C38.2175 81.6839 38.8333 82.4229 39.5557 83.0486C41.2112 84.489 41.4483 85.5064 38.6987 86.006C36.9738 86.3233 35.4167 85.4955 33.4512 81.9145C32.7067 80.6113 32.0571 79.2561 31.5075 77.8594C30.1947 74.2128 29.2029 70.9563 28.5282 68.7063Z" fill="#B16668"/>
<path d="M25.8545 51.2061C27.6304 51.5197 29.3881 51.9354 30.4784 53.6421C31.5688 55.3487 33.1441 63.4041 33.1441 63.4041C33.1441 63.4041 30.854 65.0123 28.2285 64.943L25.8545 51.2061Z" fill="#FF6B88"/>
<path opacity="0.1" d="M25.8545 51.2061C27.6304 51.5197 29.3881 51.9354 30.4784 53.6421C31.5688 55.3487 33.1441 63.4041 33.1441 63.4041C33.1441 63.4041 30.854 65.0123 28.2285 64.943L25.8545 51.2061Z" fill="black"/>
<path d="M13.6173 54.2C12.4249 55.0496 6.1344 69.257 5.89373 70.2452C5.56917 71.5908 5.71869 73.0969 6.37873 73.5855C7.03877 74.0742 8.49378 73.374 9.25593 72.6301C10.7146 71.1714 15.8199 60.5451 15.8199 60.5451L13.6173 54.2Z" fill="#9A4A4D"/>
<path d="M19.8714 51.239C16.9541 51.9391 13.3075 53.1097 12.0056 55.779C10.7038 58.4484 8.72363 62.7842 8.72363 62.7842C10.073 64.1007 11.7188 65.0737 13.5226 65.6213L14.9813 63.0687L14.7661 76.5612C17.1182 78.2752 25.7571 79.2087 30.7092 75.5912C30.7092 75.5912 30.1039 59.4147 30.1039 56.8949C30.1039 54.3751 28.7036 51.352 24.8418 51.1259L19.8714 51.239Z" fill="#FF6B88"/>
<path opacity="0.1" d="M15.0029 63.0358C15.0029 63.0358 16.4616 60.516 16.7716 59.907L14.9482 66.1063L15.0029 63.0358Z" fill="black"/>
<path d="M25.3993 44.6896C27.9913 44.6896 30.0925 42.5884 30.0925 39.9964C30.0925 37.4044 27.9913 35.3031 25.3993 35.3031C22.8073 35.3031 20.7061 37.4044 20.7061 39.9964C20.7061 42.5884 22.8073 44.6896 25.3993 44.6896Z" fill="#263238"/>
<path d="M17.2822 43.333C17.2822 43.333 18.0444 46.9067 18.3507 47.4938C18.5531 47.8563 18.8875 48.1267 19.2842 48.2487L19.2332 45.7361L17.2822 43.333Z" fill="#263238"/>
<path d="M18.2381 38.2131C17.9719 38.1827 17.7023 38.2132 17.4496 38.3023C17.1969 38.3914 16.9678 38.5367 16.7795 38.7273C16.1559 39.3655 16.506 41.3711 17.2827 43.333L18.7158 43.4971L18.2381 38.2131Z" fill="#263238"/>
<path d="M19.1455 43.5008C18.8574 43.6722 18.449 43.1179 18.0952 42.7496C17.7415 42.3812 16.5819 41.8707 16.0057 43.085C15.4296 44.2994 16.5163 45.9622 17.4279 46.2503C18.996 46.7426 19.2512 45.7362 19.2512 45.7362L19.3643 51.5708C21.3152 54.0724 26.7305 53.8609 24.4696 51.2499V49.525C25.1685 49.6383 25.8777 49.675 26.5846 49.6344C27.7406 49.4557 28.4663 48.5404 28.8164 47.2969C29.378 45.2913 29.5931 43.6503 29.1154 39.7228C28.5939 35.3979 23.5616 35.3469 20.8448 37.0644C18.1281 38.782 19.1455 43.5008 19.1455 43.5008Z" fill="#B16668"/>
<path d="M19.1452 43.9821C18.9994 43.9821 18.4524 43.0741 18.095 42.7495C17.5991 42.2974 18.2372 38.2131 18.2372 38.2131C18.0694 37.8559 18.0123 37.4566 18.0734 37.0666C18.1345 36.6767 18.3109 36.3139 18.58 36.0251C19.2583 35.2776 20.2064 34.3623 23.2842 34.7269C25.4722 34.9895 27.8716 35.6714 29.8044 34.7269C29.984 35.357 29.971 36.0264 29.7669 36.6491C29.5628 37.2717 29.1771 37.8189 28.6593 38.2204C28.6593 38.2204 27.9592 38.669 26.1067 38.895C24.4056 39.0227 22.6963 38.9897 21.0014 38.7966C20.469 38.7237 20.3559 39.2415 20.0678 40.6527C19.8417 41.8744 19.6302 43.9748 19.1452 43.9821Z" fill="#263238"/>
<path d="M18.2407 38.5304L16.5049 37.5968C16.5606 37.4804 16.6393 37.3764 16.7363 37.2911C16.8332 37.2058 16.9463 37.1409 17.0689 37.1004C17.1915 37.0599 17.321 37.0445 17.4497 37.0553C17.5783 37.066 17.7035 37.1026 17.8177 37.1629C18.0507 37.2925 18.2247 37.5071 18.3035 37.7618C18.3823 38.0165 18.3598 38.2918 18.2407 38.5304Z" fill="#263238"/>
<path d="M24.4509 49.5213C24.4509 49.5213 21.8764 49.0035 20.9757 48.5258C20.4457 48.2494 20.0112 47.8199 19.7285 47.2932C19.8646 47.8218 20.1051 48.3178 20.436 48.7519C21.096 49.5943 24.4473 50.2106 24.4473 50.2106L24.4509 49.5213Z" fill="#9A4A4D"/>
<path d="M23.8272 42.8517C23.8292 42.9913 23.7758 43.126 23.6788 43.2264C23.5818 43.3269 23.449 43.3849 23.3094 43.3877C23.1714 43.3821 23.041 43.323 22.9457 43.2229C22.8505 43.1229 22.7978 42.9898 22.7989 42.8517C22.7969 42.712 22.8503 42.5773 22.9473 42.4769C23.0443 42.3765 23.1771 42.3185 23.3167 42.3156C23.4547 42.3213 23.5851 42.3804 23.6804 42.4804C23.7756 42.5804 23.8283 42.7135 23.8272 42.8517Z" fill="#263238"/>
<path d="M23.2841 40.9043L22.1901 41.517C22.1106 41.3653 22.0928 41.1889 22.1404 41.0244C22.188 40.86 22.2972 40.7203 22.4454 40.6345C22.5179 40.5957 22.5974 40.5719 22.6793 40.5645C22.7612 40.5571 22.8437 40.5663 22.922 40.5915C23.0003 40.6167 23.0727 40.6573 23.1349 40.7111C23.1971 40.7648 23.2478 40.8306 23.2841 40.9043Z" fill="#263238"/>
<path d="M24.2177 46.4217L25.3992 46.8629C25.3739 46.9424 25.3326 47.0159 25.2781 47.079C25.2235 47.142 25.1566 47.1933 25.0816 47.2298C25.0066 47.2663 24.925 47.2872 24.8417 47.2912C24.7584 47.2952 24.6751 47.2822 24.597 47.2531C24.4381 47.191 24.3097 47.0694 24.2389 46.9142C24.1681 46.7591 24.1605 46.5824 24.2177 46.4217Z" fill="#9A4A4D"/>
<path d="M28.4371 41.3346L27.4307 40.5616C27.4774 40.4929 27.5377 40.4346 27.608 40.3902C27.6782 40.3459 27.7568 40.3164 27.8389 40.3038C27.921 40.2911 28.0048 40.2955 28.0852 40.3166C28.1655 40.3378 28.2406 40.3752 28.3059 40.4266C28.4397 40.5325 28.5279 40.6856 28.5523 40.8545C28.5767 41.0234 28.5355 41.1952 28.4371 41.3346Z" fill="#263238"/>
<path d="M28.127 42.7094C28.1227 42.8108 28.0887 42.9087 28.0293 42.9909C27.9698 43.0731 27.8875 43.1361 27.7926 43.1719C27.6977 43.2078 27.5944 43.215 27.4954 43.1926C27.3964 43.1702 27.3062 43.1192 27.236 43.046C27.1657 42.9728 27.1185 42.8806 27.1003 42.7808C27.082 42.681 27.0934 42.578 27.1332 42.4846C27.173 42.3913 27.2393 42.3117 27.3239 42.2557C27.4085 42.1997 27.5077 42.1698 27.6092 42.1697C27.6786 42.1711 27.7471 42.1862 27.8107 42.2141C27.8743 42.242 27.9318 42.2822 27.9799 42.3323C28.028 42.3824 28.0657 42.4415 28.0909 42.5062C28.1162 42.5709 28.1284 42.64 28.127 42.7094Z" fill="#263238"/>
<path d="M25.498 42.2171L25.6658 45.324L27.2885 44.7698L25.498 42.2171Z" fill="#9A4A4D"/>
<path d="M11.7526 78.906C11.7043 78.906 11.6579 78.8868 11.6237 78.8526C11.5895 78.8184 11.5703 78.772 11.5703 78.7236V21.3693C11.5703 21.3209 11.5895 21.2746 11.6237 21.2404C11.6579 21.2062 11.7043 21.187 11.7526 21.187C11.801 21.187 11.8474 21.2062 11.8816 21.2404C11.9158 21.2746 11.935 21.3209 11.935 21.3693V78.7236C11.935 78.772 11.9158 78.8184 11.8816 78.8526C11.8474 78.8868 11.801 78.906 11.7526 78.906Z" fill="#37474F"/>
<path d="M13.1386 26.3616C13.1386 25.7745 11.9242 24.1736 11.6799 24.1736C11.4356 24.1736 10.3525 25.7453 10.3525 26.3616C10.3636 26.4837 10.4069 26.6008 10.478 26.7007C10.5492 26.8007 10.6455 26.8799 10.7573 26.9304C11.0605 27.0851 11.3961 27.1657 11.7364 27.1657C12.0768 27.1657 12.4123 27.0851 12.7156 26.9304C12.828 26.8804 12.9252 26.8014 12.9969 26.7014C13.0687 26.6014 13.1126 26.4841 13.124 26.3616H13.1386Z" fill="#FF6B88"/>
<path opacity="0.1" d="M13.1386 26.3616C13.1386 25.7745 11.9242 24.1736 11.6799 24.1736C11.4356 24.1736 10.3525 25.7453 10.3525 26.3616C10.3636 26.4837 10.4069 26.6008 10.478 26.7007C10.5492 26.8007 10.6455 26.8799 10.7573 26.9304C11.0605 27.0851 11.3961 27.1657 11.7364 27.1657C12.0768 27.1657 12.4123 27.0851 12.7156 26.9304C12.828 26.8804 12.9252 26.8014 12.9969 26.7014C13.0687 26.6014 13.1126 26.4841 13.124 26.3616H13.1386Z" fill="black"/>
<path d="M19.8161 13.6348C19.8161 18.1202 16.2934 23.787 11.6914 24.8591C7.05285 23.5646 3.57031 18.1202 3.57031 13.6348C3.57031 9.14942 6.45845 4.95578 11.695 4.95578C16.9316 4.95578 19.8161 9.14577 19.8161 13.6348Z" fill="#FF6B88"/>
<path opacity="0.05" d="M3.86938 11.1733C3.66841 11.9783 3.56797 12.8051 3.57035 13.6348C3.57035 18.1201 7.06384 23.5646 11.6951 24.8591C15.5204 23.9657 18.5982 19.8997 19.5281 15.9759C19.5281 15.9759 18.3174 20.2826 12.9896 20.629C7.66188 20.9754 3.3625 14.8856 3.86938 11.1733Z" fill="black"/>
<path d="M6.56142 73.673C5.59142 73.3959 4.59588 70.4932 4.66882 68.6334C4.74175 66.7736 7.24335 58.7291 7.58613 57.1829C7.97632 55.4763 7.95079 54.1781 8.29723 53.292C8.80775 51.9828 10.4852 51.2644 10.4852 51.2644C10.4852 51.2644 12.6732 50.2179 13.4609 50.061C14.2485 49.9042 14.5549 50.4257 14.4673 50.8378C14.3798 51.2498 14.1027 52.2964 14.0297 52.8653C13.9778 53.5934 13.7648 54.3008 13.4062 54.9366C12.9941 55.5966 11.313 57.1756 11.2474 58.0545C11.1817 58.9333 10.6967 63.7031 10.4196 67.1711C10.1898 70.0082 9.90539 71.1824 9.28911 71.9336C8.67283 72.6848 7.31628 73.8846 6.56142 73.673Z" fill="#B16668"/>
<path d="M143.462 114.705H139.998V120.635H143.462V114.705Z" fill="#FFA8A7"/>
<path d="M131.454 114.391L127.994 114.508L127.822 108.236L131.454 108.116V114.391Z" fill="#FFA8A7"/>
<path d="M142.343 70.5844C142.343 73.8919 142.861 93.7552 142.861 93.7552C142.941 94.7069 143.857 96.399 143.93 99.8268C144.032 104.797 143.602 117.67 143.602 117.67C143.004 117.963 142.349 118.122 141.683 118.135C141.017 118.149 140.356 118.016 139.747 117.746C139.747 117.746 136.691 100.02 136.071 95.1008C135.531 90.8087 134.613 79.1431 134.613 79.1431L132.742 93.1753C133.143 94.9803 133.287 96.8328 133.172 98.6781C133.008 100.954 131.677 112.462 131.677 112.462C131.071 112.804 130.398 113.008 129.705 113.06C129.012 113.113 128.316 113.012 127.666 112.765C127.666 112.765 125.915 95.2612 125.875 93.1753C125.831 90.7941 127.028 66.4965 127.028 66.4965L142.343 70.5844Z" fill="#FF6B88"/>
<path d="M128.771 63.7542C131.003 56.3187 130.561 50.0246 130.981 48.0992L125.259 56.089C125.017 58.7236 124.626 61.3424 124.089 63.9329C123.429 66.7736 122.528 70.3145 121.448 72.5171C121.252 72.9042 120.922 73.2064 120.519 73.3667C119.425 73.808 118.936 74.3659 118.072 75.0077C117.393 75.5073 116.879 75.573 116.919 75.7772C116.997 76.0042 117.157 76.1941 117.367 76.3094C117.578 76.4248 117.824 76.4573 118.057 76.4008C118.579 76.2909 119.085 76.1195 119.567 75.8902C119.081 76.7131 118.465 77.4519 117.743 78.0782C116.088 79.515 115.851 80.5324 118.6 81.032C120.325 81.3492 121.882 80.5215 123.848 76.9405C124.596 75.6349 125.249 74.2773 125.802 72.8781C127.104 69.2388 128.096 66.0005 128.771 63.7542Z" fill="#FFA8A7"/>
<path d="M131.44 46.2503C129.664 46.5639 127.91 46.9797 126.82 48.6863C125.73 50.3929 124.154 58.4483 124.154 58.4483C124.154 58.4483 126.444 60.0565 129.07 59.9872L131.44 46.2503Z" fill="#E0E0E0"/>
<path d="M143.678 49.2479C144.87 50.0939 151.161 64.3012 151.401 65.2931C151.722 66.6387 151.576 68.1484 150.916 68.6334C150.256 69.1184 148.801 68.4219 148.039 67.678C146.581 66.2193 141.457 55.5967 141.457 55.5967L143.678 49.2479Z" fill="#F28F8F"/>
<path d="M137.487 46.2467C140.386 46.9469 144.051 48.1174 145.349 50.7868C146.647 53.4561 148.631 57.7883 148.631 57.7883C147.281 59.1054 145.633 60.0784 143.828 60.6254L142.37 58.0728L142.585 71.5471C140.233 73.261 131.594 74.1909 126.642 70.5771C126.642 70.5771 127.251 54.3969 127.251 51.8808C127.251 49.3646 128.647 46.3379 132.513 46.1118L137.487 46.2467Z" fill="#F0F0F0"/>
<path d="M142.344 58.0618C142.344 58.0618 140.885 55.5384 140.575 54.933L142.399 61.1323L142.344 58.0618Z" fill="#E0E0E0"/>
<path d="M139.999 118.924V118.428C139.667 118.574 138.905 121.51 137.523 122.764C136.429 123.76 134.941 124.912 134.562 126.021C134.183 127.129 136.637 127.815 137.658 127.632C138.843 127.425 140.9 126.589 141.414 125.809C141.928 125.029 142.172 123.895 142.592 123.329C143.011 122.764 143.978 122.126 144.204 121.47C144.328 121.105 144.182 120.321 144.007 119.646C143.832 118.972 143.671 118.359 143.463 118.417V118.782C142.97 119.169 142.358 119.374 141.731 119.365C141.224 119.431 139.995 119.311 139.999 118.924Z" fill="#263238"/>
<path d="M127.958 113.44C127.779 113.44 127.633 113.702 127.228 114.129C126.637 114.726 125.949 115.219 125.194 115.588C123.895 116.237 121.376 117.236 120.234 117.75C119.505 118.071 119.556 118.931 120.293 119.42C121.029 119.909 122.805 120.266 124.942 119.785C126.105 119.522 127.622 118.45 128.589 118.505C129.555 118.56 131.342 118.552 132.049 118.064C132.757 117.575 132.476 116.532 132.275 115.639C132.057 114.661 131.783 113.137 131.459 113.206V113.542C131.043 114.173 128.906 114.428 127.98 113.965L127.958 113.44Z" fill="#263238"/>
<path opacity="0.1" d="M134.62 79.1431C132.83 78.5845 131.183 77.641 129.796 76.3789C129.796 76.3789 130.729 78.122 133.494 79.7411L132.903 91.961L134.62 79.1431Z" fill="black"/>
<path d="M138.573 33.3704C138.833 33.3395 139.097 33.3684 139.344 33.455C139.591 33.5416 139.815 33.6836 139.999 33.87C140.612 34.4972 140.484 35.6569 139.999 38.3189L138.106 38.5377L138.573 33.3704Z" fill="#263238"/>
<path d="M127.542 32.59C127.134 32.5919 126.731 32.5099 126.357 32.3493C125.777 32.0138 125.627 32.6739 125.941 33.2464C126.151 33.656 126.462 34.005 126.845 34.2603C127.228 34.5156 127.67 34.6687 128.129 34.7051C128.129 34.6248 128.672 33.2464 128.672 33.2464L127.542 32.59Z" fill="#263238"/>
<path d="M137.687 38.5267C137.968 38.6945 138.369 38.1621 138.715 37.7974C139.062 37.4328 140.192 36.9368 140.754 38.1256C141.315 39.3144 140.024 40.9481 139.259 41.4805C138.347 42.115 137.687 41.6191 137.687 41.6191L137.486 46.2503C137.486 46.2503 136.48 48.7082 133.759 49.0765C131.039 49.4448 131.601 47.2058 132.494 46.1045V44.4197C132.494 44.4197 131.09 44.6969 130.426 44.5255C129.945 44.3738 129.509 44.1052 129.157 43.7437C128.805 43.3822 128.549 42.9392 128.41 42.4542C127.662 39.9834 127.506 37.3713 127.954 34.8291C128.647 30.6245 133.387 30.5552 136.042 32.2254C138.697 33.8955 137.687 38.5267 137.687 38.5267Z" fill="#FFA8A7"/>
<path d="M137.686 39.0008C137.825 39.0008 138.365 38.111 138.715 37.7938C139.2 37.3525 138.572 33.3595 138.572 33.3595C138.572 33.3595 139.065 31.8461 138.106 30.8396C137.147 29.8332 135.29 30.0046 133.934 29.9572C132.268 29.968 130.617 29.6366 129.084 28.9835C127.158 28.1448 127.013 28.0463 126.772 28.8923C126.531 29.7384 126.444 31.6784 127.596 32.9766L128.551 33.3412C128.551 33.3412 129.069 33.7971 130.867 34.0159C132.526 34.1415 134.192 34.1097 135.845 33.921C136.366 33.8518 136.479 34.355 136.76 35.7444C137.004 36.9368 137.209 38.9899 137.686 39.0008Z" fill="#263238"/>
<path d="M138.569 33.6694L140.268 32.7578C140.214 32.6437 140.137 32.5417 140.043 32.458C139.948 32.3743 139.838 32.3106 139.718 32.2707C139.598 32.2309 139.471 32.2157 139.345 32.2261C139.219 32.2364 139.097 32.2722 138.985 32.3311C138.757 32.4578 138.586 32.6676 138.509 32.9169C138.431 33.1662 138.453 33.4357 138.569 33.6694Z" fill="#263238"/>
<path d="M132.498 44.4161C132.498 44.4161 135.018 43.9092 135.897 43.4424C136.416 43.1727 136.84 42.7518 137.115 42.2354C136.982 42.7513 136.746 43.2351 136.422 43.6576C135.78 44.4817 132.498 45.0871 132.498 45.0871V44.4161Z" fill="#F28F8F"/>
<path d="M133.099 37.812C133.102 37.9114 133.135 38.0076 133.193 38.0885C133.251 38.1694 133.331 38.2315 133.424 38.2671C133.517 38.3027 133.618 38.3102 133.715 38.2886C133.812 38.267 133.901 38.2174 133.97 38.1458C134.039 38.0743 134.086 37.9839 134.104 37.8862C134.122 37.7884 134.111 37.6874 134.072 37.5958C134.033 37.5043 133.968 37.4261 133.885 37.3712C133.802 37.3163 133.705 37.287 133.606 37.2869C133.538 37.2878 133.471 37.3022 133.409 37.3292C133.346 37.3561 133.29 37.3951 133.243 37.4439C133.196 37.4927 133.159 37.5504 133.134 37.6136C133.109 37.6767 133.097 37.7442 133.099 37.812Z" fill="#263238"/>
<path d="M133.728 35.7225L134.822 36.3205C134.899 36.1724 134.916 35.9999 134.87 35.8394C134.823 35.6789 134.715 35.5428 134.57 35.4599C134.498 35.4187 134.418 35.3928 134.336 35.3837C134.254 35.3747 134.171 35.3827 134.091 35.4074C134.012 35.432 133.939 35.4727 133.877 35.527C133.814 35.5812 133.763 35.6477 133.728 35.7225Z" fill="#263238"/>
<path d="M133.14 41.3201L131.987 41.7577C132.012 41.8352 132.053 41.9069 132.106 41.9685C132.159 42.0301 132.225 42.0802 132.298 42.116C132.371 42.1517 132.451 42.1724 132.532 42.1766C132.613 42.1808 132.695 42.1686 132.771 42.1406C132.928 42.0794 133.054 41.9591 133.123 41.8056C133.192 41.6522 133.198 41.4778 133.14 41.3201Z" fill="#F28F8F"/>
<path d="M128.366 36.4445L129.351 35.686C129.305 35.6182 129.245 35.5607 129.175 35.5172C129.106 35.4736 129.028 35.4449 128.947 35.433C128.866 35.421 128.783 35.4259 128.704 35.4475C128.625 35.4691 128.551 35.5068 128.487 35.5584C128.358 35.663 128.273 35.8129 128.251 35.9776C128.229 36.1422 128.27 36.3092 128.366 36.4445Z" fill="#263238"/>
<path d="M128.932 37.6698C128.935 37.7694 128.968 37.8656 129.026 37.9466C129.084 38.0276 129.165 38.0898 129.258 38.1252C129.351 38.1607 129.452 38.168 129.55 38.1461C129.647 38.1242 129.735 38.0742 129.804 38.0023C129.873 37.9304 129.919 37.8397 129.937 37.7417C129.955 37.6437 129.943 37.5426 129.904 37.4511C129.864 37.3596 129.799 37.2817 129.716 37.2272C129.632 37.1728 129.535 37.144 129.435 37.1447C129.299 37.1485 129.17 37.2058 129.076 37.304C128.981 37.4023 128.93 37.5337 128.932 37.6698Z" fill="#263238"/>
<path d="M131.692 37.276L131.524 40.31L129.941 39.7703L131.692 37.276Z" fill="#F28F8F"/>
<path d="M145.546 73.9502C145.497 73.9502 145.451 73.931 145.417 73.8968C145.382 73.8626 145.363 73.8163 145.363 73.7679V16.4135C145.363 16.3652 145.382 16.3188 145.417 16.2846C145.451 16.2504 145.497 16.2312 145.546 16.2312C145.594 16.2312 145.64 16.2504 145.675 16.2846C145.709 16.3188 145.728 16.3652 145.728 16.4135V73.7679C145.728 73.8163 145.709 73.8626 145.675 73.8968C145.64 73.931 145.594 73.9502 145.546 73.9502Z" fill="#37474F"/>
<path d="M144.167 21.4058C144.167 20.8223 145.381 19.2178 145.626 19.2178C145.87 19.2178 146.953 20.7895 146.953 21.4058C146.942 21.5281 146.899 21.6453 146.828 21.7453C146.757 21.8453 146.66 21.9245 146.548 21.9747C146.245 22.1293 145.909 22.2099 145.569 22.2099C145.229 22.2099 144.893 22.1293 144.59 21.9747C144.474 21.9274 144.374 21.8494 144.299 21.7491C144.225 21.6489 144.179 21.5302 144.167 21.4058Z" fill="#FF6B88"/>
<path opacity="0.1" d="M144.167 21.4058C144.167 20.8223 145.381 19.2178 145.626 19.2178C145.87 19.2178 146.953 20.7895 146.953 21.4058C146.942 21.5281 146.899 21.6453 146.828 21.7453C146.757 21.8453 146.66 21.9245 146.548 21.9747C146.245 22.1293 145.909 22.2099 145.569 22.2099C145.229 22.2099 144.893 22.1293 144.59 21.9747C144.474 21.9274 144.374 21.8494 144.299 21.7491C144.225 21.6489 144.179 21.5302 144.167 21.4058Z" fill="black"/>
<path d="M137.479 8.679C137.479 13.1644 140.998 18.8313 145.604 19.9034C150.235 18.6088 153.729 13.1644 153.729 8.679C153.729 4.19364 150.841 0 145.604 0C140.368 0 137.479 4.19728 137.479 8.679Z" fill="#FF6B88"/>
<path opacity="0.05" d="M153.379 11.0238C153.379 11.0238 152.19 15.3268 146.84 15.6733C141.706 16.0051 137.531 10.3674 137.687 6.63324C137.548 7.30625 137.479 7.99177 137.48 8.67901C137.48 13.1644 140.999 18.8313 145.604 19.9034C149.444 18.8313 152.496 14.9075 153.434 11.042L153.379 11.0238Z" fill="black"/>
<path d="M150.731 68.7173C151.701 68.4402 152.696 65.5411 152.624 63.6776C152.551 61.8142 150.049 53.777 149.706 52.2272C149.316 50.5206 149.342 49.2224 148.995 48.3362C148.485 47.0307 146.807 46.3123 146.807 46.3123C146.807 46.3123 144.619 45.2621 143.831 45.1053C143.044 44.9485 142.737 45.47 142.825 45.882C142.913 46.2941 143.19 47.3407 143.263 47.9096C143.314 48.6377 143.527 49.3453 143.886 49.9809C144.298 50.6409 145.979 52.2199 146.045 53.0987C146.111 53.9776 146.596 58.751 146.873 62.2153C147.103 65.0524 147.387 66.2266 148.003 66.9779C148.62 67.7291 150.002 68.9325 150.731 68.7173Z" fill="#FFA8A7"/>
<path d="M56.5628 121.973C66.8563 121.973 75.2008 117.996 75.2008 113.09C75.2008 108.184 66.8563 104.206 56.5628 104.206C46.2693 104.206 37.9248 108.184 37.9248 113.09C37.9248 117.996 46.2693 121.973 56.5628 121.973Z" fill="#E0E0E0"/>
<path d="M96.1663 124.675C106.46 124.675 114.804 120.698 114.804 115.792C114.804 110.886 106.46 106.909 96.1663 106.909C85.8728 106.909 77.5283 110.886 77.5283 115.792C77.5283 120.698 85.8728 124.675 96.1663 124.675Z" fill="#E0E0E0"/>
<path d="M61.252 39.8249C62.2183 39.6864 63.0352 39.8249 64.7236 42.1296C66.2333 44.1936 69.2417 47.6579 69.2417 47.6579C69.2417 47.6579 71.9621 40.5287 71.8819 39.5697C71.8017 38.6106 71.2 38.0199 70.8062 36.2549C70.4123 34.4899 70.2993 34.1544 70.0039 33.6402C69.7085 33.1261 70.7332 33.0021 71.1453 33.6402C71.5574 34.2784 71.6084 35.1791 71.8965 35.0187C72.1846 34.8582 72.3815 32.9182 72.1372 31.5252C71.8928 30.1322 72.5274 29.8186 72.8154 30.2635C72.9825 30.5122 73.1001 30.7907 73.1619 31.0839C73.46 31.023 73.7689 31.0423 74.0572 31.1396C74.3454 31.237 74.6027 31.409 74.8029 31.6382C75.5322 32.4332 76.1375 33.6548 76.1339 35.7225C76.1302 37.7901 75.1748 38.8951 75.0399 39.8286C74.905 40.7621 73.2166 49.4156 72.0205 52.3402C71.2693 54.1635 70.23 54.7178 68.961 53.6494C67.2507 52.2089 62.5575 46.4399 62.5575 46.4399L61.252 39.8249Z" fill="#FFA8A7"/>
<path d="M61.252 39.825C62.1235 39.566 63.0753 39.7703 63.9578 40.8278C64.8402 41.8853 68.0712 45.9768 68.0712 45.9768C68.0712 45.9768 67.9764 48.07 65.2742 50.01L62.1928 46.6916L61.252 39.825Z" fill="#FF6B88"/>
<path d="M65.8185 107.346L65.7894 106.861C66.0191 107.419 67.0547 109.826 68.4806 110.975C69.611 111.89 71.1463 112.936 71.5839 114.005C72.0215 115.073 69.6366 115.646 68.6228 115.526C67.4449 115.391 65.8951 114.818 65.0126 113.859C64.3927 113.184 63.977 112.368 63.5321 111.835C63.0872 111.303 62.099 110.741 61.8364 110.103C61.6942 109.757 61.7926 108.969 61.9239 108.305C62.0552 107.642 62.2521 106.963 62.46 107.007C62.4512 107.15 62.4342 107.293 62.4089 107.434C62.9157 107.787 63.5288 107.954 64.1447 107.908C64.6443 107.897 65.8477 107.725 65.8185 107.346Z" fill="#263238"/>
<path d="M69.5051 111.773C69.1405 111.496 68.8013 111.226 68.4804 110.967C67.4849 110.161 66.679 108.743 66.2049 107.773V107.755C65.8421 106.969 65.6841 106.105 65.7455 105.242L65.7892 104.093L62.1426 104.166L62.4088 107.426V107.51H62.427C62.6349 108.207 64.3087 109.997 65.2714 111.157C65.9132 111.941 67.0947 112.922 68.4695 113.02C69.775 113.144 70.3949 112.699 69.5051 111.773Z" fill="#FFA8A7"/>
<path d="M45.4603 107.762C45.2852 107.66 44.9971 108.254 44.6945 108.706C44.3696 109.269 44.215 109.914 44.2496 110.562C44.3303 111.293 44.2921 112.032 44.1365 112.75C43.9323 113.961 43.5786 115.351 44.7966 116.466C45.8432 117.422 48.177 117.867 48.9209 117.196C49.0721 117.073 49.1921 116.916 49.2713 116.738C49.3505 116.56 49.3867 116.366 49.3768 116.171C49.2275 115.643 49.0221 115.132 48.7641 114.647C48.4764 114.097 48.2183 113.532 47.991 112.955L45.4603 107.762Z" fill="#263238"/>
<path d="M48.7484 105.712C48.588 105.578 48.2415 110.056 48.1431 111.12C48.0446 112.185 48.2306 112.743 48.4056 113.877C48.4928 114.145 48.4732 114.437 48.3509 114.69C48.2585 114.808 48.1397 114.902 48.0042 114.966C47.8686 115.029 47.7201 115.06 47.5706 115.055C46.7975 115.055 46.1848 114.771 45.5357 114.038C45.2148 113.673 45.1929 112.707 45.2112 112.357C45.264 111.77 45.275 111.18 45.244 110.592C45.1857 109.968 45.0033 109.235 45.0835 108.768C45.1521 108.407 45.2751 108.058 45.4482 107.733C45.7436 107.058 45.9405 105.213 45.9405 105.213L48.7484 105.712Z" fill="#FFA8A7"/>
<path d="M50.2761 58.2369C48.3834 60.6692 48.0407 63.178 48.4527 70.2708C48.8648 77.3635 48.2668 83.158 48.161 83.5555C48.0552 83.953 46.8555 87.8694 46.2903 90.506C45.6302 93.5947 45.5391 106.311 45.5391 106.311C45.5391 106.311 46.8847 107.04 48.9633 106.544C48.9633 106.544 53.981 86.6734 54.5134 85.0725C55.0459 83.4716 59.0754 66.9596 59.0754 66.9596L58.5612 57.4528L50.2761 58.2369Z" fill="#37474F"/>
<path d="M64.7509 66.4126C64.4628 63.1306 63.759 57.4455 63.759 57.4455L55.3718 56.9532C54.0116 59.0719 54.6023 62.5946 54.9743 65.7781L59.7733 84.5656C59.6748 85.4663 58.847 87.3735 59.7733 92.2235C60.8053 97.6278 62.0706 104.772 62.0706 104.772C62.0706 104.772 64.0398 105.574 65.8486 104.812C65.8486 104.812 66.5414 87.7017 66.1002 83.0303C65.6152 77.9579 64.9478 68.6589 64.7509 66.4126Z" fill="#37474F"/>
<path d="M57.6094 74.3842L58.9769 67.492C60.189 67.0603 61.34 66.4732 62.4011 65.7453C61.7232 66.6019 60.9147 67.3464 60.0052 67.9515L57.6094 74.3842Z" fill="#263238"/>
<path d="M50.7828 41.5462C49.842 42.0895 48.2849 42.5855 47.6357 44.4161C46.7496 46.9687 44.3975 53.5983 43.4932 55.9796H47.84L50.8484 49.8168C53.175 47.8184 52.8614 42.2646 50.7828 41.5462Z" fill="#FFA8A7"/>
<path d="M63.2109 52.1178C63.4188 54.0323 64.1919 61.114 64.1919 61.114C57.865 64.4872 50.021 62.2518 48.8213 60.8624C49.9153 57.2814 51.0786 55.2429 51.972 54.2985L50.8488 49.8167C50.8488 49.8167 53.4999 46.6624 50.7832 41.5462L54.3095 40.3865L59.1376 39.9672L61.2527 39.825C62.0075 40.5324 63.1963 43.0668 63.9694 45.0396C64.4654 46.3123 65.0014 48.3472 63.2109 52.1178Z" fill="#F5F5F5"/>
<path d="M50.7832 41.5462C48.7046 41.9546 47.7711 42.9757 46.9396 45.2439C46.0426 47.6981 44.9668 50.3492 44.9668 50.3492C45.5491 51.1907 46.3618 51.8464 47.3075 52.2377C48.2531 52.629 49.2915 52.7393 50.2982 52.5554L51.6438 48.803C51.6438 48.803 53.4489 45.4918 50.7832 41.5462Z" fill="#FF6B88"/>
<path d="M51.4221 52.0704C51.4768 52.2892 52.9574 54.2584 53.683 54.7105C54.4087 55.1627 52.3994 55.8045 52.115 56.9532C51.5425 59.2615 55.1198 62.2263 59.5651 62.6493C54.5364 63.4734 49.7483 61.9199 48.833 60.8624C49.927 57.2814 51.0903 55.243 51.9837 54.2985L51.4221 52.0704Z" fill="#E6E6E6"/>
<path d="M64.7241 39.3764H57.9669C56.8806 39.3769 55.8049 39.1633 54.8013 38.7478C53.7976 38.3324 52.8857 37.7232 52.1176 36.9551C51.3495 36.187 50.7403 35.2751 50.3249 34.2714C49.9094 33.2678 49.6958 32.1921 49.6963 31.1058C49.6963 29.1135 50.4877 27.2028 51.8965 25.794C53.3053 24.3852 55.216 23.5938 57.2084 23.5938C58.1952 23.5933 59.1724 23.7872 60.0842 24.1645C60.9961 24.5418 61.8246 25.0951 62.5226 25.7927C63.2205 26.4903 63.7742 27.3186 64.1519 28.2302C64.5297 29.1419 64.7241 30.119 64.7241 31.1058V39.3764Z" fill="#263238"/>
<path d="M62.0406 26.8648C62.8356 27.3352 63.8165 29.33 63.7181 33.5163C63.6342 37.0608 62.4855 37.9397 61.8948 38.1913C61.304 38.4429 60.2027 38.2898 59.1233 38.1074V40.2371C59.0562 40.6871 58.8137 41.0922 58.4487 41.3639C57.5662 41.9145 56.5233 41.7066 55.9362 41.4951C54.6416 41.0284 54.3863 40.4012 54.3863 40.4012L54.4082 35.5037C54.4082 35.5037 53.7737 36.1236 52.6906 35.1792C51.8009 34.3988 51.5018 33.086 52.1947 32.3785C52.3751 32.2108 52.5928 32.0884 52.8298 32.0214C53.0669 31.9544 53.3164 31.9447 53.558 31.9932C53.7995 32.0416 54.026 32.1468 54.2188 32.3C54.4117 32.4533 54.5654 32.6502 54.6671 32.8745C54.6671 32.8745 55.3016 32.9255 55.9362 31.744C55.9362 31.744 55.9143 28.5423 56.629 28.1266C58.9082 26.8065 60.52 26.8648 62.0406 26.8648Z" fill="#FFA8A7"/>
<path d="M59.1348 32.4004C59.1393 32.4596 59.1319 32.5191 59.1132 32.5755C59.0945 32.6318 59.0647 32.6839 59.0257 32.7287C58.9867 32.7735 58.9392 32.8101 58.8859 32.8363C58.8327 32.8626 58.7747 32.878 58.7154 32.8817C58.6232 32.8904 58.5306 32.8712 58.4494 32.8267C58.3682 32.7822 58.3023 32.7144 58.26 32.632C58.2178 32.5496 58.2012 32.4565 58.2124 32.3646C58.2236 32.2727 58.2621 32.1862 58.3229 32.1164C58.3837 32.0466 58.4641 31.9966 58.5536 31.9729C58.6431 31.9492 58.7376 31.9529 58.825 31.9835C58.9124 32.0141 58.9886 32.0701 59.0438 32.1444C59.0991 32.2187 59.1307 32.3079 59.1348 32.4004Z" fill="#263238"/>
<g style="mix-blend-mode:multiply" opacity="0.5">
<path d="M59.8771 35.6313L60.9127 35.9595C60.8936 36.0285 60.8607 36.0929 60.816 36.1489C60.7714 36.2048 60.7159 36.2512 60.6529 36.2853C60.59 36.3193 60.5208 36.3403 60.4495 36.347C60.3782 36.3537 60.3063 36.3459 60.2381 36.3242C60.1008 36.2766 59.987 36.1784 59.9198 36.0495C59.8527 35.9207 59.8374 35.7711 59.8771 35.6313Z" fill="#F28F8F"/>
</g>
<path d="M63.1673 31.011L62.2666 30.3875C62.3039 30.3263 62.3534 30.2736 62.4119 30.2324C62.4705 30.1913 62.5369 30.1626 62.6071 30.1482C62.6772 30.1339 62.7495 30.1341 62.8196 30.1489C62.8896 30.1637 62.9558 30.1928 63.0142 30.2343C63.1348 30.3191 63.2181 30.4472 63.2466 30.5919C63.2752 30.7366 63.2468 30.8868 63.1673 31.011Z" fill="#263238"/>
<path d="M58.5142 30.8178L57.4895 31.2116C57.46 31.1463 57.4443 31.0757 57.4434 31.0041C57.4425 30.9325 57.4563 30.8615 57.484 30.7954C57.5117 30.7294 57.5527 30.6698 57.6045 30.6203C57.6562 30.5708 57.7176 30.5325 57.7848 30.5078C57.923 30.4564 58.0756 30.4598 58.2113 30.5175C58.3469 30.5751 58.4553 30.6826 58.5142 30.8178Z" fill="#263238"/>
<path d="M62.9224 32.3019C62.9237 32.39 62.8991 32.4765 62.8516 32.5507C62.8041 32.6248 62.7358 32.6833 62.6553 32.7189C62.5747 32.7546 62.4855 32.7657 62.3987 32.7509C62.3119 32.7361 62.2313 32.6961 62.1671 32.6358C62.1028 32.5756 62.0578 32.4978 62.0375 32.4121C62.0172 32.3264 62.0226 32.2366 62.0529 32.154C62.0833 32.0713 62.1374 31.9994 62.2083 31.9473C62.2793 31.8951 62.364 31.865 62.452 31.8607C62.5726 31.8577 62.6896 31.9024 62.7776 31.9849C62.8657 32.0675 62.9177 32.1814 62.9224 32.3019Z" fill="#263238"/>
<g style="mix-blend-mode:multiply" opacity="0.5">
<path d="M60.7822 32.0467L60.8515 34.7306L62.2664 34.293L60.7822 32.0467Z" fill="#F28F8F"/>
</g>
<g style="mix-blend-mode:multiply" opacity="0.5">
<path d="M59.1387 38.111C57.9973 37.9615 55.6488 37.2905 55.2842 36.3606C55.4301 36.8312 55.718 37.2452 56.1083 37.5458C56.8085 38.1475 59.1387 38.8221 59.1387 38.8221V38.111Z" fill="#F28F8F"/>
</g>
<path d="M56.1226 23.9949L55.9512 22.0257C56.0801 22.0063 56.2117 22.0135 56.3377 22.0468C56.4638 22.0802 56.5817 22.139 56.6842 22.2196C56.7867 22.3002 56.8716 22.4009 56.9336 22.5156C56.9957 22.6303 57.0337 22.7564 57.0452 22.8863C57.0647 23.1546 56.9795 23.42 56.8075 23.6267C56.6354 23.8334 56.3899 23.9654 56.1226 23.9949Z" fill="#263238"/>
<path d="M56.0164 24.1918L54.4229 23.0249C54.4942 22.9163 54.5869 22.8232 54.6953 22.7515C54.8037 22.6798 54.9255 22.6308 55.0534 22.6076C55.1813 22.5845 55.3126 22.5875 55.4393 22.6166C55.5659 22.6457 55.6854 22.7003 55.7903 22.7769C56.0024 22.9387 56.1441 23.1758 56.1862 23.4392C56.2283 23.7026 56.1675 23.972 56.0164 24.1918Z" fill="#263238"/>
<path d="M54.6816 32.8672V34.7306C55.0182 34.7306 55.341 34.5969 55.579 34.3589C55.817 34.1209 55.9507 33.7982 55.9507 33.4616V31.7367L54.6816 32.8672Z" fill="#263238"/>
<path d="M59.7579 24.035C61.4311 24.035 63.0357 24.6996 64.2188 25.8827C65.4019 27.0659 66.0666 28.6705 66.0666 30.3437V31.1605H62.9815C62.2868 31.1608 61.6155 30.9094 61.0919 30.4528C60.5683 29.9962 60.2278 29.3654 60.1335 28.6771L60.0204 31.1605C59.4495 31.1609 58.8991 30.9473 58.4778 30.5618C58.0566 30.1764 57.7951 29.647 57.7449 29.0783L57.7085 28.6699C57.6544 29.3477 57.3471 29.9803 56.8478 30.4418C56.3484 30.9033 55.6936 31.1599 55.0136 31.1605H54.7365L54.4229 26.7043L59.7579 24.035Z" fill="#263238"/>
<path d="M102.638 112.255V111.773C102.445 112.346 101.544 114.811 100.199 116.043C99.123 117.024 97.6461 118.158 97.2814 119.252C96.9167 120.346 99.3235 120.773 100.33 120.594C101.497 120.39 103.01 119.726 103.831 118.716C104.411 118.005 104.779 117.163 105.191 116.605C105.603 116.047 106.555 115.42 106.777 114.782C106.901 114.417 106.755 113.648 106.584 112.991C106.413 112.335 106.256 111.726 106.048 111.78V112.145C105.562 112.528 104.96 112.732 104.341 112.721C103.845 112.736 102.635 112.637 102.638 112.255Z" fill="#263238"/>
<path d="M99.2251 116.9C99.5606 116.601 99.8961 116.313 100.199 116.032C101.147 115.172 101.865 113.71 102.281 112.71C102.518 112.142 102.642 111.532 102.646 110.916V108.973H106.055V112.138V112.222H106.037C105.873 112.929 104.308 114.818 103.419 116.047C102.824 116.871 101.69 117.918 100.337 118.1C99.0464 118.279 98.3936 117.874 99.2251 116.9Z" fill="#B16668"/>
<path d="M89.3329 108.892V108.404C89.1433 108.976 88.2389 111.441 86.897 112.674C85.8212 113.655 84.3443 114.789 83.9797 115.883C83.615 116.977 86.0218 117.404 87.0282 117.225C88.1952 117.017 89.7049 116.357 90.529 115.347C91.1052 114.636 91.4735 113.793 91.8892 113.235C92.3049 112.678 93.2531 112.05 93.4755 111.412C93.5995 111.048 93.4536 110.278 93.2822 109.622C93.1218 109.02 92.9504 108.356 92.7462 108.411V108.776C92.2607 109.159 91.6578 109.362 91.0395 109.352C90.54 109.374 89.3293 109.275 89.3329 108.892Z" fill="#263238"/>
<path d="M85.9224 113.538C86.2543 113.239 86.5898 112.951 86.8961 112.67C87.8406 111.81 88.5626 110.347 88.9747 109.348C89.2137 108.78 89.3376 108.17 89.3393 107.554V105.61H92.749V108.772V108.856H92.7307C92.5666 109.563 91.0022 111.449 90.1124 112.681C89.5144 113.505 88.3839 114.552 87.031 114.734C85.7438 114.917 85.091 114.512 85.9224 113.538Z" fill="#B16668"/>
<path d="M105.37 59.2615C108.014 65.0378 105.275 85.3824 105.275 85.3824C105.355 86.3196 106.424 88.1648 106.825 92.2892C107.295 97.1611 106.096 109.399 106.096 109.399C105.576 109.701 104.99 109.871 104.39 109.895C103.789 109.919 103.192 109.797 102.65 109.538C102.65 109.538 99.3859 91.0894 98.7769 86.2467C98.2409 82.0202 97.2198 72.7213 97.2198 72.7213L94.3025 86.2139C94.726 87.5773 95.0334 88.974 95.2214 90.3893C95.4986 93.2409 92.7381 106.511 92.7381 106.511C92.7381 106.511 91.5602 106.941 89.3248 106.613C89.3248 106.613 88.3512 88.9999 88.0923 85.5684C87.6583 79.7994 89.1863 61.8069 90.2474 58.3936L105.37 59.2615Z" fill="#37474F"/>
<path d="M97.2203 72.7177L96.3597 67.3535C96.3597 67.3535 92.7131 66.5986 91.083 65.0524C91.083 65.0524 92.8079 67.2003 95.3751 67.9041L96.3415 72.0248L94.6567 84.5291L97.2203 72.7177Z" fill="#263238"/>
<path d="M95.4398 39.0264C94.6178 38.8907 93.7741 38.9875 93.0042 39.3059C92.2342 39.6242 91.5684 40.1513 91.0821 40.8278C89.9334 42.3557 85.5137 55.2101 85.5137 55.2101H89.4922L94.9366 44.438L95.4398 39.0264Z" fill="#B16668"/>
<path d="M100.706 39.1832C104.098 39.4165 104.335 41.0539 105.181 42.8298C105.807 44.2108 105.864 45.7826 105.341 47.2058L102.982 54.0396C102.982 54.0396 104.076 56.7125 105.37 59.2397C99.4408 62.5472 92.0382 60.8077 90.2549 58.3936C90.182 57.8831 90.6196 53.8791 90.9223 51.2645C89.8757 48.6425 89.6022 46.9833 90.0434 45.2512C90.8603 42.0385 94.0329 38.906 95.4405 39.0191L100.706 39.1832Z" fill="#F5F5F5"/>
<path d="M99.1891 59.8888C99.6546 59.782 100.094 59.5832 100.482 59.304C100.869 59.0249 101.197 58.671 101.446 58.2632C101.694 57.8555 101.859 57.4021 101.93 56.9297C102.001 56.4574 101.977 55.9756 101.858 55.5128C101.843 55.4491 101.823 55.3869 101.796 55.3268C101.715 55.0783 101.553 54.8642 101.335 54.7193C101.117 54.5745 100.857 54.5071 100.597 54.5282C100.977 54.2771 101.304 53.9526 101.559 53.5739C101.813 53.1951 101.989 52.7696 102.077 52.322L102.807 48.7082C102.807 48.7082 101.468 44.4635 101.603 43.0085L105.005 43.2054L105.447 43.5117C105.808 44.7209 105.774 46.0139 105.348 47.2021L102.989 54.0359C102.989 54.0359 104.083 56.7089 105.377 59.236C103.449 60.2735 101.32 60.8852 99.1342 61.0299C96.9488 61.1746 94.7578 60.8489 92.709 60.0748C94.8614 60.4219 97.0601 60.3588 99.1891 59.8888Z" fill="#E6E6E6"/>
<path d="M113.189 56.1291C113.189 56.1291 109.823 49.5068 107.598 44.438C105.994 40.7913 105.633 39.9526 103.076 39.5551L102.176 39.4165C100.965 43.395 101.811 45.2001 103.394 47.9241L108.933 58.4265C110.187 58.1676 113.214 56.5083 113.189 56.1291Z" fill="#B16668"/>
<path d="M99.2985 36.3716H96.8954C95.2 36.3716 93.574 35.6981 92.3752 34.4992C91.1763 33.3004 90.5028 31.6744 90.5028 29.979V28.9069C90.5028 27.2018 91.1802 25.5666 92.3858 24.3609C93.5915 23.1552 95.2268 22.4779 96.9319 22.4779H99.2438C100.949 22.4779 102.584 23.1552 103.79 24.3609C104.996 25.5666 105.673 27.2018 105.673 28.9069V29.979C105.673 31.6744 104.999 33.3004 103.801 34.4992C102.602 35.6981 100.976 36.3716 99.2803 36.3716H99.2985Z" fill="#263238"/>
<path d="M93.0101 25.5447C92.2078 26.0188 91.2159 28.0354 91.3144 32.2618C91.3983 35.8428 92.5579 36.7253 93.1377 36.9806C93.7175 37.2358 94.8444 37.079 95.9383 36.9003V39.0482C95.9383 39.0482 94.425 40.8023 94.5234 41.7868C94.6219 42.7714 96.7114 43.0048 98.1154 42.0421C99.0322 41.3832 99.8186 40.5596 100.435 39.6134V34.4206C100.435 34.4206 101.164 35.4052 102.378 34.603C103.593 33.8007 103.633 31.8206 102.933 31.1058C102.232 30.3911 100.715 30.6208 100.435 31.6054C100.435 31.6054 98.6916 31.6674 96.3723 30.3911C95.4697 29.9053 94.6947 29.2131 94.1104 28.3708C93.5261 27.5286 93.1491 26.5603 93.0101 25.5447Z" fill="#B16668"/>
<path d="M95.7139 31.3611C95.7126 31.4499 95.7374 31.5371 95.7853 31.6119C95.8332 31.6866 95.9021 31.7456 95.9833 31.7815C96.0645 31.8174 96.1545 31.8285 96.242 31.8136C96.3295 31.7987 96.4107 31.7584 96.4755 31.6976C96.5402 31.6368 96.5857 31.5584 96.6061 31.472C96.6265 31.3856 96.6211 31.2951 96.5904 31.2117C96.5598 31.1284 96.5052 31.056 96.4337 31.0034C96.3621 30.9509 96.2767 30.9205 96.188 30.9162C96.1276 30.9143 96.0675 30.9242 96.011 30.9456C95.9545 30.9669 95.9028 30.9991 95.8587 31.0404C95.8147 31.0817 95.7793 31.1313 95.7544 31.1864C95.7296 31.2414 95.7158 31.3008 95.7139 31.3611Z" fill="#263238"/>
<path d="M95.1924 34.3951L94.1494 34.7306C94.169 34.7997 94.2023 34.8642 94.2473 34.9202C94.2923 34.9762 94.348 35.0225 94.4113 35.0566C94.4746 35.0906 94.5441 35.1115 94.6156 35.1182C94.6871 35.1248 94.7592 35.117 94.8277 35.0952C94.9657 35.0462 95.0799 34.9467 95.1476 34.8168C95.2152 34.6869 95.2312 34.5363 95.1924 34.3951Z" fill="#9A4A4D"/>
<path d="M92.0201 29.979L92.9317 29.3445C92.893 29.2835 92.8424 29.2309 92.7828 29.1899C92.7232 29.149 92.656 29.1205 92.5851 29.1062C92.5143 29.0918 92.4413 29.092 92.3705 29.1067C92.2997 29.1213 92.2326 29.1501 92.1732 29.1913C92.0511 29.2776 91.9669 29.4076 91.9384 29.5544C91.9099 29.7012 91.9391 29.8533 92.0201 29.979Z" fill="#263238"/>
<path d="M92.2315 31.0365C92.2308 31.1252 92.2563 31.212 92.3046 31.2863C92.353 31.3606 92.4221 31.419 92.5034 31.4544C92.5847 31.4897 92.6746 31.5004 92.7619 31.485C92.8492 31.4697 92.93 31.429 92.9944 31.3681C93.0588 31.3072 93.1038 31.2287 93.124 31.1424C93.1441 31.0561 93.1385 30.9658 93.1077 30.8826C93.0769 30.7995 93.0224 30.7273 92.9509 30.6749C92.8794 30.6225 92.7941 30.5923 92.7055 30.588C92.5836 30.586 92.4657 30.6318 92.3771 30.7157C92.2885 30.7995 92.2362 30.9147 92.2315 31.0365Z" fill="#263238"/>
<path d="M94.4343 30.7776L94.3614 33.4871L92.9355 33.0459L94.4343 30.7776Z" fill="#9A4A4D"/>
<path d="M95.9434 36.9004C97.0921 36.7472 99.4624 36.0653 99.8307 35.1317C99.6845 35.6052 99.3953 36.0217 99.0029 36.3242C98.2954 36.9332 95.9434 37.6151 95.9434 37.6151V36.9004Z" fill="#9A4A4D"/>
<path d="M104.746 23.2911C103.266 23.9074 103.598 25.1764 104.217 26.6569C104.837 28.1375 105.512 29.2643 106.971 28.6298C107.362 28.5123 107.725 28.3139 108.035 28.0473C108.345 27.7807 108.595 27.452 108.77 27.0823C108.945 26.7127 109.04 26.3105 109.049 25.9018C109.058 25.4931 108.982 25.0869 108.824 24.7098C108.666 24.3326 108.431 23.9928 108.133 23.7124C107.836 23.432 107.483 23.2173 107.097 23.0821C106.711 22.947 106.301 22.8945 105.894 22.928C105.486 22.9614 105.09 23.0802 104.732 23.2765L104.746 23.2911Z" fill="#263238"/>
<path d="M103.446 24.6185L102.928 22.1497C103.086 22.1097 103.251 22.1021 103.413 22.1271C103.575 22.1521 103.73 22.2094 103.869 22.2954C104.008 22.3814 104.128 22.4945 104.223 22.628C104.317 22.7614 104.384 22.9125 104.419 23.0723C104.488 23.4058 104.425 23.7529 104.243 24.041C104.062 24.3292 103.776 24.536 103.446 24.6185Z" fill="#263238"/>
<path d="M115.595 55.2101H38.3047V72.9073H115.595V55.2101Z" fill="#FF6B88"/>
<path d="M48.8184 68.1411C48.7515 68.0791 48.7035 67.9994 48.6798 67.9114L46.8018 61.8142C46.7952 61.7768 46.7952 61.7385 46.8018 61.7011C46.8018 61.5808 46.8747 61.5224 47.0242 61.5224H48.0963C48.1781 61.5139 48.2603 61.5331 48.3297 61.5772C48.3845 61.6278 48.4194 61.6963 48.4282 61.7704L49.6389 66.0261L51.0137 62.3794C51.0399 62.3035 51.0837 62.2348 51.1413 62.1788C51.2048 62.1306 51.2844 62.1085 51.3637 62.1169H51.9618C52.0376 62.1104 52.1134 62.1297 52.1769 62.1715C52.2311 62.2311 52.2711 62.3021 52.2936 62.3794L53.6575 66.0261L54.8791 61.7704C54.8972 61.6995 54.9309 61.6335 54.9775 61.5772C55.048 61.5323 55.1316 61.513 55.2146 61.5224H56.283C56.4326 61.5224 56.5055 61.5808 56.5055 61.7011C56.51 61.7387 56.51 61.7766 56.5055 61.8142L54.5983 67.9041C54.5787 67.9942 54.5331 68.0767 54.467 68.1411C54.393 68.1836 54.3078 68.2026 54.2227 68.1958H53.3657C53.2866 68.2018 53.2079 68.1799 53.1433 68.1338C53.0826 68.0669 53.0356 67.9889 53.0047 67.9041L51.6153 64.1626L50.2223 67.9041C50.1921 67.9909 50.1422 68.0695 50.0765 68.1338C50.009 68.1796 49.9281 68.2014 49.8467 68.1958H49.0554C48.9728 68.2001 48.8907 68.1812 48.8184 68.1411Z" fill="white"/>
<path d="M58.5944 68.0427C58.0257 67.8096 57.5394 67.4122 57.1978 66.9013C56.8321 66.3275 56.6502 65.6558 56.6763 64.9758C56.6763 63.7797 56.996 62.8717 57.6354 62.2518C58.2735 61.6319 59.1815 61.3183 60.3594 61.3183C61.5373 61.3183 62.4125 61.6209 63.0105 62.2226C63.6086 62.8243 63.9076 63.6813 63.9076 64.8373C63.9076 65.1618 63.7581 65.3259 63.4627 65.3259H58.3574C58.3436 65.5954 58.3946 65.8642 58.5063 66.1098C58.618 66.3553 58.787 66.5705 58.9992 66.7372C59.5214 67.0941 60.1474 67.2673 60.7788 67.2295C61.4689 67.2397 62.1495 67.0673 62.7516 66.7299C62.7976 66.6991 62.8499 66.6791 62.9048 66.6715C62.9704 66.6715 63.0214 66.7153 63.0579 66.7992L63.3934 67.3972C63.4178 67.4447 63.4315 67.497 63.4335 67.5504C63.4295 67.5882 63.4161 67.6244 63.3944 67.6556C63.3728 67.6868 63.3436 67.7121 63.3095 67.7291C62.9274 67.9625 62.5117 68.1359 62.077 68.2432C61.579 68.3621 61.0682 68.4185 60.5563 68.411C59.8843 68.4205 59.2172 68.2953 58.5944 68.0427ZM62.2921 64.2939C62.3059 64.0491 62.2707 63.8041 62.1887 63.573C62.1067 63.342 61.9794 63.1296 61.8144 62.9483C61.6196 62.774 61.3916 62.6409 61.1441 62.5569C60.8966 62.473 60.6346 62.4399 60.374 62.4597C59.8294 62.4242 59.2927 62.6036 58.8789 62.9593C58.704 63.1333 58.5673 63.3419 58.4775 63.5717C58.3878 63.8015 58.3468 64.0474 58.3574 64.2939H62.2921Z" fill="white"/>
<path d="M65.3985 68.0791C65.3141 67.9769 65.2712 67.8468 65.2782 67.7144V59.2615C65.2668 59.1209 65.3099 58.9812 65.3985 58.8713C65.452 58.8246 65.5146 58.7894 65.5824 58.7681C65.6502 58.7467 65.7217 58.7397 65.7923 58.7474H66.5217C66.6677 58.7335 66.8132 58.7781 66.9264 58.8713C66.9718 58.925 67.0062 58.9871 67.0274 59.054C67.0487 59.121 67.0565 59.1915 67.0504 59.2615V67.7035C67.0585 67.8354 67.0168 67.9655 66.9337 68.0682C66.8179 68.1619 66.67 68.2064 66.5217 68.1922H65.7923C65.7225 68.2005 65.6517 68.1947 65.584 68.1753C65.5164 68.1559 65.4533 68.1232 65.3985 68.0791Z" fill="white"/>
<path d="M69.4466 67.4993C69.092 67.1683 68.8152 66.7627 68.6361 66.3119C68.457 65.8611 68.3801 65.3761 68.4109 64.892C68.3972 64.2394 68.5611 63.5953 68.885 63.0286C69.2049 62.4872 69.6748 62.0503 70.2379 61.7705C70.8816 61.4583 71.5903 61.3033 72.3055 61.3183C72.8066 61.3098 73.3067 61.3662 73.7934 61.486C74.202 61.5979 74.5873 61.7819 74.9311 62.0294C74.9656 62.0461 74.9954 62.0713 75.0177 62.1025C75.04 62.1337 75.0541 62.17 75.0587 62.2081C75.0529 62.2786 75.0291 62.3464 74.9895 62.405L74.6248 63.0577C74.5665 63.1489 74.5154 63.1963 74.4716 63.1963C74.3991 63.1887 74.3305 63.1595 74.2747 63.1124C74.0074 62.9469 73.7208 62.8146 73.4214 62.7186C73.0936 62.6219 72.7529 62.5764 72.4113 62.5837C72.1098 62.5682 71.8084 62.6153 71.5259 62.722C71.2435 62.8287 70.9863 62.9926 70.7703 63.2036C70.5643 63.4318 70.4055 63.6984 70.3028 63.9881C70.2002 64.2779 70.1558 64.585 70.1722 64.892C70.1489 65.2001 70.1901 65.5097 70.2931 65.801C70.396 66.0923 70.5586 66.359 70.7703 66.584C71.2608 66.9901 71.8891 67.1913 72.5243 67.1456C73.1826 67.165 73.8301 66.9748 74.3732 66.6023C74.4272 66.5642 74.4899 66.5404 74.5555 66.533C74.6102 66.533 74.6649 66.5804 74.7196 66.6716L75.1244 67.3535C75.1593 67.3969 75.1786 67.4509 75.1791 67.5066C75.1791 67.5723 75.1317 67.6379 75.0405 67.7035C74.6726 67.9433 74.2688 68.123 73.8444 68.236C73.3536 68.3605 72.8483 68.4194 72.342 68.411C71.1021 68.411 70.137 68.1071 69.4466 67.4993Z" fill="white"/>
<path d="M77.2467 67.4592C76.6145 66.7435 76.2656 65.8214 76.2656 64.8664C76.2656 63.9115 76.6145 62.9894 77.2467 62.2737C77.8995 61.6392 78.8294 61.3183 80.0364 61.3183C81.2434 61.3183 82.1733 61.6392 82.8297 62.2737C83.4664 62.9873 83.8182 63.9101 83.8182 64.8664C83.8182 65.8227 83.4664 66.7456 82.8297 67.4592C82.1733 68.0937 81.2398 68.411 80.0364 68.411C78.833 68.411 77.8995 68.0937 77.2467 67.4592ZM81.5352 66.533C81.9118 66.0627 82.0968 65.4674 82.053 64.8664C82.0965 64.2711 81.9113 63.6817 81.5352 63.2182C81.1216 62.8538 80.5894 62.6528 80.0382 62.6528C79.4871 62.6528 78.9548 62.8538 78.5413 63.2182C78.1625 63.6804 77.9759 64.2705 78.0198 64.8664C77.9779 65.4655 78.1642 66.0583 78.5413 66.5257C78.9516 66.8967 79.4851 67.1022 80.0382 67.1022C80.5914 67.1022 81.1249 66.8967 81.5352 66.5257V66.533Z" fill="white"/>
<path d="M85.3063 68.0791C85.2179 67.9788 85.1722 67.848 85.1786 67.7145V61.9163C85.1693 61.8125 85.195 61.7085 85.2516 61.6209C85.2953 61.5662 85.3938 61.5407 85.5433 61.5407H86.2726C86.3519 61.5327 86.4314 61.5548 86.4951 61.6027C86.5474 61.6624 86.577 61.7385 86.579 61.8179L86.6191 62.4013C86.8687 62.0753 87.1843 61.8057 87.5453 61.61C87.9301 61.4147 88.3574 61.3182 88.7888 61.3292C89.1622 61.3202 89.5308 61.4149 89.8536 61.6027C90.158 61.7862 90.3908 62.0679 90.5137 62.4013C90.7621 62.0512 91.0949 61.7694 91.4812 61.582C91.8675 61.3946 92.2948 61.3077 92.7235 61.3292C93.0115 61.3152 93.2992 61.3611 93.5685 61.464C93.8378 61.567 94.0828 61.7247 94.288 61.9273C94.705 62.4225 94.9117 63.0612 94.8641 63.7068V67.7181C94.8708 67.8498 94.8293 67.9794 94.7474 68.0828C94.6316 68.1765 94.4837 68.221 94.3354 68.2068H93.7227C93.5781 68.2181 93.4346 68.1738 93.3216 68.0828C93.2346 67.9819 93.1901 67.8512 93.1976 67.7181V63.7943C93.229 63.4642 93.1309 63.1347 92.9241 62.8754C92.8143 62.7767 92.6856 62.7013 92.5459 62.6536C92.4061 62.606 92.2581 62.5872 92.1109 62.5982C91.9401 62.5907 91.7697 62.6192 91.6107 62.6821C91.4517 62.7449 91.3078 62.8406 91.1883 62.9629C90.9385 63.2399 90.8076 63.604 90.8236 63.9767V67.6926C90.8311 67.8256 90.7867 67.9564 90.6997 68.0573C90.5855 68.1488 90.4407 68.1932 90.2949 68.1812H89.726C89.5812 68.1941 89.4372 68.1496 89.3249 68.0573C89.2365 67.9569 89.1908 67.8261 89.1972 67.6926V63.7251C89.2236 63.4208 89.138 63.1174 88.9566 62.8717C88.8547 62.7737 88.7329 62.6985 88.5996 62.6514C88.4663 62.6042 88.3244 62.5861 88.1835 62.5982C88.0023 62.5918 87.8218 62.6238 87.6539 62.6924C87.4861 62.7609 87.3347 62.8643 87.2098 62.9957C86.956 63.279 86.8248 63.6515 86.8452 64.0314V67.7035C86.8518 67.8352 86.8103 67.9648 86.7285 68.0682C86.6126 68.1619 86.4647 68.2064 86.3164 68.1922H85.7038C85.5617 68.2064 85.4196 68.166 85.3063 68.0791Z" fill="white"/>
<path d="M98.0837 68.0427C97.5174 67.8145 97.0313 67.4237 96.687 66.9195C96.3214 66.3457 96.1394 65.674 96.1656 64.9941C96.1656 63.798 96.4852 62.89 97.1246 62.27C97.7628 61.6501 98.6708 61.3365 99.8487 61.3365C101.027 61.3365 101.902 61.6392 102.5 62.2409C103.098 62.8425 103.397 63.6995 103.397 64.8555C103.397 65.18 103.247 65.3441 102.952 65.3441H97.8539C97.8401 65.6136 97.8912 65.8824 98.0029 66.128C98.1146 66.3736 98.2836 66.5887 98.4958 66.7554C99.0177 67.1128 99.6439 67.286 100.275 67.2477C100.965 67.2574 101.646 67.0851 102.248 66.7481C102.294 66.7173 102.346 66.6973 102.401 66.6898C102.467 66.6898 102.518 66.7335 102.554 66.8174L102.89 67.4154C102.914 67.4629 102.928 67.5152 102.93 67.5686C102.926 67.6064 102.913 67.6426 102.891 67.6738C102.869 67.7051 102.84 67.7303 102.806 67.7473C102.424 67.9807 102.008 68.1541 101.574 68.2615C101.076 68.3803 100.565 68.4367 100.053 68.4292C99.3772 68.434 98.7074 68.3025 98.0837 68.0427ZM101.781 64.2939C101.795 64.0491 101.76 63.8041 101.678 63.573C101.596 63.342 101.469 63.1296 101.304 62.9483C101.109 62.7742 100.881 62.6412 100.633 62.5572C100.386 62.4733 100.124 62.4401 99.8632 62.4597C99.3186 62.4234 98.7816 62.6029 98.3681 62.9592C98.1946 63.1339 98.0592 63.3428 97.9707 63.5725C97.8822 63.8023 97.8424 64.048 97.8539 64.2939H101.781Z" fill="white"/>
<path d="M104.479 67.6488V67.3534C104.479 66.9669 104.753 66.77 105.3 66.77H105.665C106.212 66.77 106.485 66.9669 106.485 67.3534V67.6488C106.485 68.0281 106.212 68.2177 105.665 68.2177H105.3C104.753 68.208 104.479 68.0183 104.479 67.6488ZM104.779 65.4608C104.699 65.3496 104.662 65.214 104.673 65.0779L104.593 59.2615C104.58 59.1213 104.622 58.9817 104.709 58.8713C104.764 58.8249 104.827 58.7899 104.895 58.7686C104.964 58.7473 105.036 58.7401 105.107 58.7474H105.876C105.947 58.7401 106.019 58.7473 106.088 58.7686C106.156 58.7899 106.219 58.8249 106.274 58.8713C106.361 58.9817 106.403 59.1213 106.39 59.2615L106.296 65.0743C106.306 65.2104 106.269 65.346 106.19 65.4572C106.088 65.5423 105.957 65.5841 105.825 65.5739H105.143C105.078 65.5832 105.012 65.5779 104.95 65.5584C104.887 65.5388 104.83 65.5055 104.782 65.4608H104.779Z" fill="white"/>
<path d="M38.3044 58.4046C38.0783 59.0355 37.5751 59.3345 37.2104 59.9617C36.8458 60.5889 36.6926 62.4633 37.1047 63.2437C37.4189 63.7912 37.8602 64.2549 38.3915 64.5958C38.9228 64.9367 39.5283 65.1446 40.1569 65.2019C40.6843 65.2236 41.205 65.0781 41.6448 64.7862C41.8496 64.6487 42.0307 64.4788 42.1808 64.283C42.3179 64.0731 42.4213 63.843 42.4871 63.6011C42.4923 63.5818 42.5024 63.5643 42.5163 63.55C42.5361 63.5374 42.5586 63.5299 42.5819 63.5281C42.7417 63.5051 42.8919 63.4382 43.0159 63.3349C43.0777 63.2831 43.1274 63.2183 43.1614 63.1452C43.1954 63.0722 43.213 62.9925 43.2128 62.9118C43.2006 62.8093 43.1642 62.7112 43.1065 62.6255C43.0488 62.5399 42.9715 62.4693 42.881 62.4196C42.6967 62.3247 42.5022 62.2513 42.3012 62.2008C41.8162 62.044 41.3676 61.7996 40.8936 61.6209C39.9328 61.2792 39.051 60.7471 38.3008 60.0565L38.3044 58.4046Z" fill="#FFA8A7"/>
<path d="M115.598 58.9734C115.824 59.6116 116.327 59.9143 116.692 60.5524C117.057 61.1906 117.217 63.1051 116.801 63.8818C116.483 64.4379 116.034 64.9089 115.495 65.2549C114.955 65.6009 114.34 65.8116 113.702 65.8692C113.195 65.9045 112.69 65.7742 112.263 65.4981C111.836 65.2219 111.511 64.8147 111.335 64.3377C111.003 63.189 111.576 62.755 112.954 62.2335C113.93 61.8882 114.826 61.3485 115.587 60.6473L115.598 58.9734Z" fill="#B16668"/>
<path d="M81.8091 53.6712C83.8512 54.0031 84.4383 55.2101 84.4383 55.2101H82.7682C82.7682 55.2101 82.5567 55.7717 83.1329 57.8758C83.3298 58.6051 82.2394 58.6343 82.2066 58.3572C82.0097 58.8094 80.5729 59.4512 79.5008 58.7218C78.5162 58.0691 78.0786 57.0699 78.2974 55.1992C78.6584 53.1169 81.4445 53.6129 81.8091 53.6712Z" fill="#B16668"/>
</svg>
