<svg width="24" height="24" viewBox="0 0 24 24" fill="none" xmlns="http://www.w3.org/2000/svg">
<g clip-path="url(#clip0_0_266)">
<path d="M14.9697 22.2294C12.8124 22.9697 10.4803 22.9932 8.30904 22.2964C6.13778 21.5996 4.23929 20.2185 2.88671 18.3518C1.53414 16.4851 0.797217 14.229 0.781979 11.9081C0.766742 9.58729 1.47397 7.32135 2.80192 5.43633C4.12986 3.55132 6.01005 2.14441 8.17196 1.41804C10.3339 0.691681 12.6661 0.683306 14.8329 1.39412C16.9998 2.10494 18.8897 3.49831 20.2306 5.37374C21.5715 7.24918 22.2944 9.50999 22.2952 11.8309C22.2604 12.7205 22.1548 13.6058 21.9793 14.4779" stroke="#D45971" stroke-width="1.5"/>
<path d="M14.0742 20.1912C13.3003 21.0876 12.452 21.9142 11.5386 22.6618" stroke="#D45971" stroke-width="1.5"/>
<path d="M11.5386 0.735294C14.4422 3.32188 16.2388 6.96346 16.5448 10.8824C16.6077 11.5937 16.6207 12.3088 16.5838 13.0221" stroke="#D45971" stroke-width="1.5"/>
<path d="M11.5386 0.735294C9.96325 2.13536 8.69762 3.86076 7.8256 5.7972C6.95358 7.73363 6.49508 9.8369 6.48047 11.9676C6.48047 19.1147 9.63047 21.2324 11.5257 22.6618" stroke="#D45971" stroke-width="1.5"/>
<path d="M2.1792 6.42647H20.9494" stroke="#D45971" stroke-width="1.5"/>
<path d="M11.5386 0.730881V22.6618" stroke="#D45971" stroke-width="1.5"/>
<path d="M2.47363 17.7118H13.7193" stroke="#D45971" stroke-width="1.5"/>
<path d="M0.781738 11.9676L22.2952 11.6985" stroke="#D45971" stroke-width="1.5"/>
<path d="M20.8715 22.7941L22.7883 20.8353L19.3268 17.3059L21.2955 16.0221C21.3242 16.0048 21.3471 15.979 21.3611 15.9482C21.3751 15.9173 21.3796 15.8829 21.3739 15.8494C21.3683 15.8159 21.3528 15.785 21.3295 15.7606C21.3063 15.7363 21.2763 15.7198 21.2436 15.7132L14.6277 14.1338C14.6004 14.1282 14.5721 14.1295 14.5454 14.1377C14.5187 14.1458 14.4944 14.1607 14.4747 14.1808C14.455 14.2009 14.4405 14.2256 14.4324 14.2529C14.4244 14.2801 14.4231 14.3089 14.4287 14.3368L15.8652 21.2103C15.8721 21.2437 15.8886 21.2743 15.9126 21.2981C15.9366 21.3219 15.967 21.3379 16 21.3441C16.0329 21.3502 16.0669 21.3462 16.0976 21.3326C16.1283 21.319 16.1544 21.2964 16.1724 21.2676L17.4099 19.2647L20.8715 22.7941Z" stroke="#D45971" stroke-width="1.5"/>
</g>
<defs>
<clipPath id="clip0_0_266">
<rect width="24" height="24" fill="white"/>
</clipPath>
</defs>
</svg>
