<svg width="25" height="23" viewBox="0 0 25 23" fill="none" xmlns="http://www.w3.org/2000/svg">
<g clip-path="url(#clip0_0_170)">
<path fill-rule="evenodd" clip-rule="evenodd" d="M5 4C5 3.00544 5.39509 2.05161 6.09835 1.34835C6.80161 0.645088 7.75544 0.25 8.75 0.25H21.25C22.2446 0.25 23.1984 0.645088 23.9017 1.34835C24.6049 2.05161 25 3.00544 25 4V19C25 19.9946 24.6049 20.9484 23.9017 21.6517C23.1984 22.3549 22.2446 22.75 21.25 22.75H16.8625C17.281 22.0235 17.5009 21.1997 17.5 20.3613V13.5638C17.4988 12.9189 17.3686 12.2807 17.117 11.6869C16.8654 11.0931 16.4975 10.5557 16.035 10.1063L11.035 5.2175C9.4 3.6175 6.9125 3.35875 5 4.43875V4ZM18.75 5.25C18.75 4.91848 18.8817 4.60054 19.1161 4.36612C19.3505 4.1317 19.6685 4 20 4C20.3315 4 20.6507 4.1317 20.8851 4.36612C21.1196 4.60054 21.2512 4.91848 21.2512 5.25C21.2512 5.58152 21.1196 5.89946 20.8851 6.13388C20.6507 6.3683 20.3328 6.5 20.0012 6.5C19.6697 6.5 19.3505 6.3683 19.1161 6.13388C18.8817 5.89946 18.75 5.58152 18.75 5.25ZM15 4C14.6685 4 14.3505 4.1317 14.1161 4.36612C13.8817 4.60054 13.75 4.91848 13.75 5.25C13.75 5.58152 13.8817 5.89946 14.1161 6.13388C14.3505 6.3683 14.6685 6.5 15 6.5H15.0013C15.3328 6.5 15.6507 6.3683 15.8851 6.13388C16.1196 5.89946 16.2513 5.58152 16.2513 5.25C16.2513 4.91848 16.1196 4.60054 15.8851 4.36612C15.6507 4.1317 15.3328 4 15.0013 4H15ZM18.75 11.5C18.75 11.1685 18.8817 10.8505 19.1161 10.6161C19.3505 10.3817 19.6685 10.25 20 10.25C20.3315 10.25 20.6507 10.3817 20.8851 10.6161C21.1196 10.8505 21.2512 11.1685 21.2512 11.5C21.2512 11.8315 21.1196 12.1495 20.8851 12.3839C20.6507 12.6183 20.3328 12.75 20.0012 12.75C19.6697 12.75 19.3505 12.6183 19.1161 12.3839C18.8817 12.1495 18.75 11.8315 18.75 11.5ZM20 16.5C19.6685 16.5 19.3505 16.6317 19.1161 16.8661C18.8817 17.1005 18.75 17.4185 18.75 17.75C18.75 18.0815 18.8817 18.3995 19.1161 18.6339C19.3505 18.8683 19.6685 19 20 19C20.3315 19 20.6507 18.8683 20.8851 18.6339C21.1196 18.3995 21.2512 18.0815 21.2512 17.75C21.2512 17.4185 21.1196 17.1005 20.8851 16.8661C20.6507 16.6317 20.3315 16.5 20 16.5Z" fill="#D45971"/>
<path fill-rule="evenodd" clip-rule="evenodd" d="M4.84875 7.38378C5.55198 6.68076 6.50563 6.28583 7.5 6.28583C8.49437 6.28583 9.44802 6.68076 10.1513 7.38378L13.9013 11.1338C14.6046 11.8369 14.9998 12.7905 15 13.785V19C15 19.9946 14.6049 20.9484 13.9017 21.6517C13.1984 22.3549 12.2446 22.75 11.25 22.75H8.75V19C8.75 18.6685 8.6183 18.3506 8.38388 18.1161C8.14946 17.8817 7.83152 17.75 7.5 17.75C7.16848 17.75 6.85054 17.8817 6.61612 18.1161C6.3817 18.3506 6.25 18.6685 6.25 19V22.75H3.75C2.75544 22.75 1.80161 22.3549 1.09835 21.6517C0.395088 20.9484 0 19.9946 0 19V13.785C0.000543773 12.791 0.395746 11.8378 1.09875 11.135L4.84875 7.38503V7.38378Z" fill="#D45971"/>
</g>
<defs>
<clipPath id="clip0_0_170">
<rect width="25" height="23" fill="white"/>
</clipPath>
</defs>
</svg>
