<svg width="20" height="11" viewBox="0 0 20 11" fill="none" xmlns="http://www.w3.org/2000/svg">
<g clip-path="url(#clip0_0_90)">
<path d="M1.53622 0.731422C1.38789 0.385312 0.987061 0.224976 0.640952 0.373313C0.294843 0.521649 0.134507 0.922477 0.282843 1.26859L1.53622 0.731422ZM7.31085 7.12519C7.51622 6.80964 7.42684 6.38728 7.11122 6.18191C6.79559 5.97655 6.37324 6.06591 6.16787 6.38155L7.31085 7.12519ZM4.8835 8.35546C4.67812 8.671 4.76751 9.09337 5.08313 9.29873C5.39876 9.50409 5.82111 9.41473 6.02648 9.0991L4.8835 8.35546ZM19.7181 1.26859C19.8664 0.922477 19.7061 0.521649 19.3599 0.373313C19.0138 0.224976 18.613 0.385312 18.4646 0.731422L19.7181 1.26859ZM17.2456 6.59928C17.5119 6.86555 17.9435 6.86555 18.2098 6.59928C18.4761 6.333 18.4761 5.90128 18.2098 5.635L17.2456 6.59928ZM9.31862 9.63637C9.31862 10.0129 9.6239 10.3182 10.0004 10.3182C10.377 10.3182 10.6823 10.0129 10.6823 9.63637H9.31862ZM13.9744 9.0991C14.1798 9.41473 14.6022 9.50409 14.9177 9.29873C15.2334 9.09337 15.3227 8.671 15.1174 8.35546L13.9744 9.0991ZM4.11893 5.23564C4.38519 4.96937 4.38519 4.53764 4.11893 4.27137C3.85266 4.00509 3.42095 4.00509 3.15469 4.27137L4.11893 5.23564ZM1.79105 5.635C1.52479 5.90128 1.52479 6.333 1.79105 6.59928C2.05732 6.86555 2.48903 6.86555 2.75529 6.59928L1.79105 5.635ZM10.0004 6.68182C7.06963 6.68182 4.96529 5.22237 3.56826 3.71788C2.86994 2.96585 2.35794 2.21168 2.02098 1.64559C1.85289 1.36319 1.72942 1.12939 1.64899 0.968522C1.6088 0.888149 1.57943 0.82614 1.56069 0.785558C1.55132 0.765276 1.54462 0.750367 1.54054 0.741213C1.53851 0.73664 1.53694 0.733067 1.53622 0.731422C1.53621 0.731385 1.53625 0.731494 1.53622 0.731422C1.53632 0.731631 1.53622 0.731422 0.909534 1C0.282843 1.26859 0.282707 1.26828 0.282843 1.26859C0.282898 1.26872 0.283298 1.26964 0.283416 1.26991C0.283643 1.27045 0.283925 1.27109 0.284243 1.27182C0.28487 1.27329 0.285679 1.27515 0.286652 1.27739C0.288607 1.28185 0.291243 1.28784 0.294561 1.2953C0.301198 1.31023 0.310579 1.33105 0.322743 1.35738C0.347052 1.41002 0.382498 1.48473 0.429316 1.57836C0.522889 1.76551 0.662207 2.02887 0.849225 2.34306C1.22249 2.97015 1.79003 3.80691 2.56899 4.64573C4.12651 6.32309 6.56762 8.04546 10.0004 8.04546V6.68182ZM13.0118 6.11891C12.1296 6.46619 11.1293 6.68182 10.0004 6.68182V8.04546C11.3079 8.04546 12.4774 7.79473 13.5113 7.38782L13.0118 6.11891ZM6.16787 6.38155L4.8835 8.35546L6.02648 9.0991L7.31085 7.12519L6.16787 6.38155ZM19.0914 1C18.4646 0.731422 18.4645 0.731549 18.4646 0.731422C18.4647 0.731276 18.4651 0.730449 18.4651 0.730549C18.465 0.730731 18.4647 0.731385 18.4642 0.732513C18.4632 0.734758 18.4614 0.738867 18.4587 0.744767C18.4534 0.756576 18.4449 0.77554 18.433 0.80114C18.4091 0.85234 18.3719 0.929958 18.321 1.0297C18.2192 1.22934 18.0632 1.51665 17.8508 1.85746C17.4249 2.54106 16.7789 3.42907 15.8974 4.25637L16.8307 5.25064C17.8207 4.32137 18.5384 3.33261 19.0082 2.5786C19.2437 2.20062 19.4186 1.87891 19.5358 1.64923C19.5944 1.53432 19.6386 1.44221 19.6689 1.37734C19.684 1.3449 19.6956 1.31926 19.7038 1.30095C19.7079 1.29179 19.7112 1.28448 19.7135 1.27906C19.7147 1.27635 19.7156 1.27412 19.7164 1.27237C19.7168 1.27149 19.7171 1.27074 19.7174 1.27011C19.7175 1.26979 19.718 1.26884 19.7181 1.26859C19.7181 1.26865 19.7182 1.26846 19.7181 1.26859C19.7182 1.26843 19.7181 1.26859 19.0914 1ZM15.8974 4.25637C15.1165 4.98928 14.1585 5.66755 13.0118 6.11891L13.5113 7.38782C14.8509 6.86055 15.9519 6.07546 16.8307 5.25064L15.8974 4.25637ZM15.882 5.23564L17.2456 6.59928L18.2098 5.635L16.8462 4.27137L15.882 5.23564ZM9.31862 7.36364V9.63637H10.6823V7.36364H9.31862ZM12.6901 7.12519L13.9744 9.0991L15.1174 8.35546L13.833 6.38155L12.6901 7.12519ZM3.15469 4.27137L1.79105 5.635L2.75529 6.59928L4.11893 5.23564L3.15469 4.27137Z" fill="#D45971"/>
</g>
<defs>
<clipPath id="clip0_0_90">
<rect width="20" height="10.5455" fill="white"/>
</clipPath>
</defs>
</svg>
