<svg width="8" height="14" viewBox="0 0 8 14" fill="none" xmlns="http://www.w3.org/2000/svg">
<path d="M6.57969 7.62939e-06C6.64682 -0.000380516 6.71338 0.0124874 6.77553 0.0378742C6.83768 0.0632601 6.89421 0.100665 6.94188 0.147944C6.98969 0.195368 7.02764 0.251788 7.05354 0.313952C7.07944 0.376116 7.09277 0.442793 7.09277 0.510136C7.09277 0.577478 7.07944 0.644156 7.05354 0.706319C7.02764 0.768483 6.98969 0.824903 6.94188 0.872326L1.16723 6.64187C1.11942 6.68929 1.08147 6.74571 1.05557 6.80788C1.02967 6.87004 1.01634 6.93672 1.01634 7.00406C1.01634 7.0714 1.02967 7.13808 1.05557 7.20024C1.08147 7.26241 1.11942 7.31883 1.16723 7.36625L6.94188 13.1256C7.03794 13.2217 7.0919 13.3519 7.0919 13.4878C7.0919 13.6236 7.03794 13.7539 6.94188 13.85C6.84582 13.946 6.71554 14 6.57969 14C6.44384 14 6.31356 13.946 6.2175 13.85L0.447953 8.08553C0.161362 7.79858 0.000386715 7.40961 0.000386715 7.00406C0.000386715 6.59851 0.161362 6.20954 0.447953 5.92259L6.2175 0.147944C6.26516 0.100665 6.32169 0.0632601 6.38385 0.0378742C6.446 0.0124874 6.51255 -0.000380516 6.57969 7.62939e-06Z" fill="white"/>
</svg>
