<svg width="46" height="60" viewBox="0 0 46 60" fill="none" xmlns="http://www.w3.org/2000/svg">
<path fill-rule="evenodd" clip-rule="evenodd" d="M15.7985 34.6229C15.7985 32.1487 18.1643 28.4779 19.2159 26.7054C19.8808 25.5846 20.5294 24.2157 21.0893 23.0144C21.4633 22.2122 22.53 19.5886 22.5995 18.754C23.462 19.386 24.3258 24.7198 24.4626 25.7528C24.9529 29.4578 26.6247 31.1963 26.7212 32.3559C25.4039 32.3559 25.0268 32.5819 23.9524 32.8845C21.9105 33.4595 19.9825 34.6426 17.4045 34.7646C16.7212 34.797 16.7187 34.6229 15.7985 34.6229ZM16.829 7.62426C16.3238 7.78584 16.5236 7.94966 16.0044 9.27343C15.7483 9.92631 15.5816 10.5141 15.3002 11.2486L11.4968 21.0472C11.2219 21.8123 10.7284 22.3237 10.7706 23.082L10.7894 23.5893C9.69936 27.7194 8.77967 31.2459 7.32288 35.1815C6.69506 36.8776 5.78506 38.8759 5.06061 40.3495L2.5531 45.3991C2.52658 45.4341 2.4785 45.4952 2.43427 45.5366C2.24038 46.4953 2.47617 45.8962 1.96599 46.2717C2.04567 47.147 1.60064 47.5204 1.71357 48.6369C3.72317 48.6369 5.76613 48.5993 7.7709 48.6297L13.3255 48.8429C13.856 47.7372 15.1496 41.9172 15.3864 41.4238C25.0356 41.4238 23.77 37.3509 30.6369 38.9507L31.9595 44.6351C33.0249 49.8998 31.6718 47.978 35.2899 48.5178C37.419 48.8355 40.2255 48.5111 42.2342 48.7866C47.1066 49.455 45.9468 49.1248 43.2845 40.5233C42.6812 38.5741 38.2546 25.3659 37.4378 24.7086H37.3143C37.1968 25.5002 37.558 25.073 36.6603 25.5883L33.6232 26.462C31.5373 26.8049 29.329 26.0058 27.9536 24.5328L26.4263 22.1221C24.6715 18.4768 24.2011 15.6455 23.2591 13.7543C22.8825 12.998 22.7308 13.0376 22.3978 12.1851C21.9367 11.0044 22.1594 11.2787 21.361 10.5152C20.4908 9.68324 20.1033 9.94449 17.2412 7.0423C17.1193 8.25069 17.317 7.10842 16.829 7.62426Z" fill="black"/>
<path fill-rule="evenodd" clip-rule="evenodd" d="M17.9432 6.42373L18.0677 6.63304C23.8241 7.07631 28.6564 5.97875 30.4813 11.4844C31.5064 14.5775 31.2842 18.1651 33.4816 21.4571C34.2637 22.6288 35.1693 23.0854 35.7025 23.9051C36.4034 24.1552 36.1147 24.0763 36.3913 24.4367L37.3142 24.7084H37.4377C37.1748 23.6685 37.4557 24.361 37.0255 24.2365C36.4302 23.9376 36.0472 23.4182 35.6677 22.8125C34.4876 20.9288 34.09 19.4987 33.7174 17.1223C33.1179 13.2992 35.5183 2.09962 26.3683 4.5577C22.3311 5.64231 23.3733 6.02396 17.9432 6.42373Z" fill="#5B94FB"/>
<path fill-rule="evenodd" clip-rule="evenodd" d="M16.8297 7.62423C17.3177 7.10839 17.1201 8.25065 17.2419 7.04227C20.104 9.94446 20.4916 9.68321 21.3617 10.5152C22.1602 11.2787 21.9374 11.0044 22.3986 12.1851C22.7315 13.0376 22.8832 12.998 23.2598 13.7542C24.2018 15.6454 24.6722 18.4768 26.427 22.122L27.9543 24.5328C29.3297 26.0057 31.538 26.8048 33.624 26.462L36.661 25.5883C37.5588 25.073 37.1976 25.5002 37.3151 24.7085L36.3922 24.4368C35.0429 24.3395 34.0467 23.5899 32.9213 23.0715C31.7087 22.5129 31.2484 21.9727 30.3304 21.1198C28.3425 19.2729 27.956 18.0022 26.5424 15.6402C25.4953 13.8906 24.2139 11.5445 22.7458 10.1577C21.1233 8.62524 19.4336 8.17208 18.5377 7.54806C17.985 7.16318 17.9111 6.82862 17.2248 6.5578L17.0358 6.61002C16.7281 7.20356 16.8825 6.7389 16.8297 7.62423Z" fill="#001131"/>
<path fill-rule="evenodd" clip-rule="evenodd" d="M17.6533 6.2898C16.7673 6.16695 17.2545 5.99782 17.035 6.61006L17.224 6.55784C17.2671 6.53715 17.3324 6.45011 17.3524 6.49392C17.3725 6.53773 17.4601 6.44817 17.4869 6.44403C17.5253 6.43814 17.9339 6.4233 17.9433 6.42388C23.3734 6.02411 22.3312 5.64246 26.3684 4.55786C35.5184 2.09978 33.118 13.2994 33.7175 17.1224C34.0901 19.4989 34.4877 20.929 35.6678 22.8126C36.0473 23.4183 36.4303 23.9377 37.0256 24.2366C36.9639 23.307 36.8689 23.4435 36.5582 22.7178L35.9951 21.5064C35.705 21.1332 36.0396 21.7982 35.6556 20.9309C35.5752 20.7492 35.5605 20.6814 35.5043 20.4795C33.7541 14.1852 36.6543 6.88317 33.1371 3.25564C30.9343 0.983856 27.1846 1.83174 24.9508 2.96484C22.0193 4.45184 22.2553 5.39402 17.6533 6.2898Z" fill="#99BAFA"/>
<path fill-rule="evenodd" clip-rule="evenodd" d="M35.7031 23.9053C35.1699 23.0855 34.2643 22.6289 33.4822 21.4573C31.2849 18.1652 31.5071 14.5777 30.4819 11.4846C28.6571 5.9789 23.8247 7.07646 18.0683 6.63319C20.9181 8.5693 21.4968 8.42793 23.9707 9.41579C25.2338 9.92018 27.9145 12.0961 28.6256 13.3414C30.7761 17.1076 31.3331 22.0395 35.7031 23.9053Z" fill="#0459F4"/>
<path fill-rule="evenodd" clip-rule="evenodd" d="M17.6538 6.28978C22.2558 5.394 22.0199 4.45182 24.9514 2.96482C27.1851 1.83172 30.9349 0.983838 33.1376 3.25562C36.6548 6.88315 33.7547 14.1852 35.5049 20.4795C35.561 20.6813 35.5757 20.7492 35.6562 20.9309C36.0402 21.7982 35.7056 21.1331 35.9957 21.5064C35.9957 20.4027 35.8959 19.7733 35.8398 19.1179L35.8391 13.4453C36.073 12.1155 36.2213 13.1331 36.2046 10.7194C36.1793 7.0604 36.7418 3.95315 33.5062 1.04687C32.6179 0.249048 31.9356 0.0465595 31.0108 0H29.0278C26.5299 0.109663 25.0041 1.34679 23.2831 2.744L19.8547 5.29222C19.5057 5.47969 19.1802 5.6476 18.8881 5.76209L17.6538 6.28978Z" fill="#CCDEFB"/>
<path fill-rule="evenodd" clip-rule="evenodd" d="M36.392 24.4369C36.1154 24.0764 36.4042 24.1554 35.7032 23.9053C31.3332 22.0395 30.7762 17.1076 28.6257 13.3414C27.9146 12.0961 25.2339 9.9202 23.9708 9.4158C21.4969 8.42794 20.9182 8.56931 18.0684 6.6332L17.9439 6.42389C17.9346 6.4233 17.526 6.43814 17.4876 6.44403C17.4607 6.44818 17.3732 6.53774 17.3531 6.49393C17.333 6.45012 17.2678 6.53715 17.2247 6.55784C17.9109 6.82867 17.9849 7.16323 18.5375 7.5481C19.4334 8.17213 21.1232 8.62528 22.7456 10.1578C24.2138 11.5446 25.4951 13.8906 26.5422 15.6403C27.9558 18.0022 28.3424 19.2729 30.3302 21.1199C31.2482 21.9727 31.7086 22.5129 32.9212 23.0716C34.0465 23.59 35.0427 24.3396 36.392 24.4369Z" fill="#0042BC"/>
<path fill-rule="evenodd" clip-rule="evenodd" d="M9.61484 24.7306C9.38274 25.7686 8.727 26.558 8.28698 27.2895C7.26506 28.9884 6.3927 30.1156 5.57143 31.8243C5.17173 32.6557 4.77373 33.3697 4.41474 34.1452C3.54587 36.0222 1.88206 43.7966 1.96601 46.2717C2.47618 45.8961 2.24039 46.4953 2.43428 45.5366C2.76687 43.0727 9.78332 24.2363 10.7894 23.5893L10.7706 23.0819C10.132 23.3894 10.3536 23.1359 9.92931 23.8319C9.82784 23.9984 9.82263 24.0127 9.73939 24.2286C9.55648 24.7032 9.6246 24.3375 9.61484 24.7306Z" fill="#E34E9C"/>
<path fill-rule="evenodd" clip-rule="evenodd" d="M1.71378 48.6369C1.60085 47.5203 2.04588 47.1469 1.9662 46.2717C1.88226 43.7966 3.54607 36.0222 4.41494 34.1452C4.77393 33.3697 5.17193 32.6557 5.57163 31.8243C6.39289 30.1156 7.26525 28.9884 8.28718 27.2895C8.72719 26.558 9.38294 25.7686 9.61504 24.7306C8.71533 25.2961 8.73321 25.6202 8.10275 26.3087L5.52116 28.8888C5.47933 28.9487 5.137 29.4805 5.12975 29.4966C4.60019 30.6725 5.73422 29.1537 3.71198 32.8405C3.66269 32.9305 3.6153 33.0169 3.57014 33.1109L3.10794 34.2974C1.53046 38.5182 2.23078 41.6411 1.64168 44.9903C1.50732 45.7544 1.41385 46.0552 1.36414 46.7845C1.36069 46.8353 1.35596 47.8106 1.35701 47.8175C1.50725 48.8197 1.17374 48.2056 1.71378 48.6369Z" fill="#FAA7D5"/>
<path fill-rule="evenodd" clip-rule="evenodd" d="M2.43413 45.5366C2.47836 45.4952 2.52644 45.4341 2.55297 45.3991L5.06047 40.3495C5.78493 38.8759 6.69492 36.8776 7.32274 35.1815C8.77953 31.2459 9.69922 27.7194 10.7893 23.5893C9.78317 24.2363 2.76672 43.0727 2.43413 45.5366Z" fill="#74254B"/>
<path fill-rule="evenodd" clip-rule="evenodd" d="M0 59.5L0.523784 58.9762C0.769775 59.3519 1.09114 59.5397 1.48792 59.5397C1.86887 59.5397 2.22592 59.381 2.56055 59.0649C2.8939 58.7474 3.29464 58.1853 3.75884 57.3786L5.42933 54.4952C5.14763 54.4622 4.90555 54.445 4.70452 54.445C4.16491 54.445 3.74826 54.5799 3.45465 54.8497C3.16104 55.1195 3.01558 55.5057 3.01558 56.007L2.25502 56.3826C2.30398 55.8972 2.44021 55.4951 2.66244 55.1777C2.90709 54.8233 3.19673 54.5719 3.53006 54.4212C3.86335 54.2717 4.34612 54.1752 4.97962 54.1315C5.10663 54.1236 5.29707 54.109 5.55364 54.0879L6.34324 53.945L6.39353 55.2359L6.61832 57.9142C6.66991 58.5371 6.74399 58.9485 6.83793 59.1456C6.9318 59.3426 7.10245 59.4418 7.3471 59.4418C7.39074 59.4418 7.54287 59.4339 7.80078 59.4193L7.75318 59.6746L5.97157 59.9682L5.81291 58.0557H3.70065C3.29196 58.7647 2.90575 59.2606 2.54204 59.5437C2.17832 59.8267 1.74321 59.9682 1.24058 59.9682C0.761832 59.9682 0.349162 59.8122 0 59.5ZM3.86732 57.77H5.7851L5.53775 54.8589L3.86732 57.77Z" fill="black"/>
<path fill-rule="evenodd" clip-rule="evenodd" d="M8.20273 59.8254L8.77669 59.2487H8.82699C8.83891 59.2487 8.86666 59.2527 8.90767 59.2606C8.9513 59.2685 9.00026 59.2725 9.05447 59.2725C9.319 59.2725 9.52271 59.176 9.6695 58.9842C9.81498 58.7911 9.93404 58.4631 10.0279 57.9975L10.7448 54.3921C10.2118 54.3921 9.7819 54.5349 9.45388 54.8206C9.12587 55.1076 8.96188 55.4806 8.96188 55.9421V56.0268L8.21062 56.3919C8.28072 55.5943 8.58893 55.0111 9.13778 54.642C9.68803 54.2731 10.5199 54.0879 11.6362 54.0879C12.5065 54.0879 13.1162 54.1712 13.464 54.3379C13.8132 54.5058 13.9878 54.7981 13.9878 55.2147C13.9878 55.9038 13.4852 56.4911 12.48 56.9778L13.4098 58.5345C13.7405 59.0887 13.9851 59.3651 14.1452 59.3651C14.3211 59.3651 14.6359 59.1376 15.0909 58.6813L15.0168 59.0477C14.452 59.6296 14.0341 59.9206 13.7656 59.9206C13.4178 59.9206 13.0329 59.5331 12.6123 58.7567L11.7407 57.1511H11.0079L10.9378 57.4989C10.7858 58.2634 10.3572 58.8691 9.65228 59.3148L11.1667 59.3453L10.6324 59.9206L8.20273 59.8254ZM11.0556 56.913H12.0806C12.7856 56.5665 13.1387 56.0335 13.1387 55.3166C13.1387 54.6566 12.6665 54.3259 11.7208 54.3259H11.5701L11.0556 56.913Z" fill="black"/>
<path fill-rule="evenodd" clip-rule="evenodd" d="M15.848 59.8253L16.4207 59.254L16.4789 59.2672C16.5107 59.2712 16.586 59.2725 16.7037 59.2725C16.9908 59.2725 17.2037 59.1707 17.3426 58.967C17.4801 58.762 17.6084 58.3639 17.7275 57.7687L18.3438 54.6593H17.3638C16.3678 54.6593 15.8705 55.0521 15.8705 55.8377C15.8705 55.9316 15.8824 56.0467 15.9062 56.1829L15.0994 56.5585C15.2079 55.7993 15.5372 55.1989 16.0874 54.7545C16.639 54.3101 17.3307 54.0879 18.1653 54.0879H19.8093C20.5513 54.0879 21.0419 54.0389 21.2827 53.9411C21.5234 53.8419 21.6861 53.6236 21.7707 53.285L22.3527 53.0483C22.1715 53.5284 21.8223 53.9172 21.3064 54.2135C20.7893 54.5111 20.2021 54.6593 19.546 54.6593H19.1586L18.6189 57.3613C18.5237 57.8481 18.3822 58.2303 18.1944 58.5107C18.0079 58.791 17.7143 59.0595 17.3135 59.3162L18.8094 59.3492L18.2711 59.9206L15.848 59.8253Z" fill="black"/>
<path fill-rule="evenodd" clip-rule="evenodd" d="M22.9795 59.9682C22.3447 59.9682 21.8408 59.7712 21.4705 59.3757C21.1001 58.9802 20.915 58.4446 20.915 57.7674C20.915 56.7529 21.2641 55.8628 21.9625 55.0957C22.6608 54.3286 23.4729 53.945 24.3974 53.945C25.0269 53.945 25.5256 54.1395 25.8946 54.5283C26.2623 54.9171 26.4461 55.4435 26.4461 56.1102C26.4461 57.1696 26.1062 58.0769 25.4251 58.8334C24.7453 59.5899 23.9292 59.9682 22.9795 59.9682ZM23.133 59.7063C23.8049 59.7063 24.3802 59.3505 24.859 58.6403C25.3391 57.9301 25.5798 57.077 25.5812 56.0824C25.5798 54.8219 25.142 54.191 24.2678 54.191C23.5959 54.191 23.0193 54.5428 22.5378 55.2452C22.0551 55.9475 21.813 56.79 21.8117 57.7727C21.813 59.0622 22.2535 59.7063 23.133 59.7063Z" fill="black"/>
<path fill-rule="evenodd" clip-rule="evenodd" d="M29.0376 56.9844L29.3007 56.6749H29.7729L30.2147 54.445C30.0837 54.4238 29.9911 54.4132 29.9396 54.4132C29.527 54.4132 29.1751 54.564 28.8842 54.8643C28.5932 55.1645 28.4477 55.5268 28.4477 55.9514V56.007L27.6965 56.376C27.8154 54.851 28.8802 54.0879 30.8892 54.0879H31.0982L30.5877 56.6749H32.9776L33.2065 55.5163C33.3559 54.7545 33.6535 54.1514 34.0952 53.707C34.5383 53.2625 35.0621 53.0404 35.6678 53.0404C35.9046 53.0404 36.1162 53.0721 36.3027 53.1369L35.9694 53.7109C35.7035 53.4861 35.4615 53.3736 35.2446 53.3736C34.9708 53.3736 34.7526 53.4887 34.5886 53.7176C34.4246 53.9477 34.2843 54.3392 34.168 54.8907L33.5477 57.7872C33.4154 58.4088 33.3506 58.8201 33.3506 59.0212C33.3506 59.287 33.4948 59.4206 33.7844 59.4206C33.9101 59.4206 34.0913 59.4101 34.3267 59.3889L34.2791 59.627L32.319 59.9682L32.9155 56.9844H30.5255L30.4329 57.4447C30.2848 58.1747 29.9621 58.7699 29.4634 59.2302C28.9648 59.6905 28.3921 59.9206 27.7467 59.9206C27.2692 59.9206 26.8671 59.7738 26.5418 59.4815L27.084 58.9247C27.3327 59.3505 27.6938 59.5635 28.1686 59.5635C28.8537 59.5635 29.3061 59.0133 29.5256 57.9142L29.7121 56.9844H29.0376Z" fill="black"/>
<path fill-rule="evenodd" clip-rule="evenodd" d="M34.7103 59.4656L35.2645 58.8969C35.525 59.3254 35.8887 59.5397 36.353 59.5397C36.6585 59.5397 36.9283 59.4101 37.1637 59.1522C37.3992 58.8942 37.5592 58.5517 37.6439 58.1258L38.3766 54.4437C38.2443 54.4238 38.1531 54.4132 38.1015 54.4132C37.6756 54.4132 37.3198 54.5653 37.0355 54.8682C36.7511 55.1724 36.6096 55.5493 36.6096 56.0017L35.857 56.3694C35.9112 55.6499 36.1996 55.0891 36.722 54.6884C37.2431 54.2876 37.9454 54.0879 38.8263 54.0879H39.1398C39.6185 55.4184 39.9677 56.786 40.1873 58.1906L42.7293 54.0879L43.5586 53.9927L43.2637 55.2359L42.6327 58.3983C42.5785 58.68 42.5508 58.9048 42.5508 59.0715C42.5508 59.299 42.6896 59.4127 42.9674 59.4127C43.1036 59.4127 43.2888 59.3995 43.5189 59.373L43.4713 59.619L41.5509 60L42.5548 54.9555L39.9042 59.2024L39.5048 59.2646V59.1522C39.5048 58.1417 39.2575 56.8878 38.7641 55.3893L38.4467 56.9712C38.0592 58.922 37.214 59.8968 35.9112 59.8968C35.4576 59.8968 35.0569 59.7526 34.7103 59.4656Z" fill="black"/>
</svg>
