<svg width="24" height="24" viewBox="0 0 24 24" fill="none" xmlns="http://www.w3.org/2000/svg">
<g clip-path="url(#clip0_0_216)">
<path d="M1.73047 10.8462V14.3077C1.73047 18.6591 1.73047 20.8349 3.08228 22.1867C4.4341 23.5385 6.60981 23.5385 10.9612 23.5385H12.1151C16.4665 23.5385 18.6423 23.5385 19.994 22.1867M21.3459 10.8462V14.3077C21.3459 15.6575 21.3459 16.7978 21.3055 17.7693" stroke="#1C274C" stroke-width="2" stroke-linecap="round"/>
<path d="M8.65361 0.461548H14.4228M8.65361 0.461548L7.9016 7.98159C7.68645 10.1331 9.37601 12 11.5382 12C13.7005 12 15.39 10.1331 15.1749 7.98159L14.4228 0.461548M8.65361 0.461548H6.25094C5.20323 0.461548 4.67936 0.461548 4.23006 0.584721C3.28334 0.844256 2.49133 1.49354 2.05117 2.37098M8.65361 0.461548L7.81761 8.82148C7.63717 10.6259 6.11879 12 4.30537 12C2.07793 12 0.407324 9.9622 0.844158 7.77801L0.922839 7.38463M14.4228 0.461548H16.8255C17.8733 0.461548 18.3971 0.461548 18.8464 0.584721C19.793 0.844256 20.5852 1.49354 21.0252 2.37098C21.2342 2.78739 21.3369 3.30108 21.5424 4.32847L22.2323 7.77801C22.6691 9.9622 20.9985 12 18.7711 12C16.9577 12 15.4392 10.6259 15.2588 8.82148L14.4228 0.461548Z" stroke="#1C274C" stroke-width="2" stroke-linecap="round"/>
<path d="M8.6543 22.9615V19.5C8.6543 18.4216 8.6543 17.8824 8.88617 17.4807C9.03808 17.2177 9.2566 16.9991 9.51968 16.8473C9.92134 16.6154 10.4605 16.6154 11.5389 16.6154C12.6173 16.6154 13.1565 16.6154 13.5581 16.8473C13.8212 16.9991 14.0398 17.2177 14.1916 17.4807C14.4235 17.8824 14.4235 18.4216 14.4235 19.5V22.9615" stroke="#1C274C" stroke-width="2" stroke-linecap="round"/>
</g>
<defs>
<clipPath id="clip0_0_216">
<rect width="23.0769" height="24" fill="white"/>
</clipPath>
</defs>
</svg>
