<svg width="24" height="24" viewBox="0 0 24 24" fill="none" xmlns="http://www.w3.org/2000/svg">
<g clip-path="url(#clip0_0_372)">
<path fill-rule="evenodd" clip-rule="evenodd" d="M16.5475 1.38947H7.45281C4.10422 1.38947 1.38965 4.10403 1.38965 7.45262V16.5474C1.38965 19.8959 4.10422 22.6105 7.45281 22.6105H16.5475C19.8961 22.6105 22.6107 19.8959 22.6107 16.5474V7.45262C22.6107 4.10403 19.8961 1.38947 16.5475 1.38947Z" stroke="#D45971" stroke-width="2" stroke-linecap="round" stroke-linejoin="round"/>
<path fill-rule="evenodd" clip-rule="evenodd" d="M12 16.5474C9.48849 16.5474 7.45264 14.5115 7.45264 12C7.45264 9.48849 9.48849 7.45264 12 7.45264C14.5115 7.45264 16.5474 9.48849 16.5474 12C16.5474 13.206 16.0682 14.3627 15.2154 15.2154C14.3627 16.0682 13.206 16.5474 12 16.5474Z" stroke="#D45971" stroke-width="2" stroke-linecap="round" stroke-linejoin="round"/>
<path d="M18.0632 4.42106C17.226 4.42106 16.5474 5.0997 16.5474 5.93685C16.5474 6.77399 17.226 7.45264 18.0632 7.45264C18.9003 7.45264 19.5789 6.77399 19.5789 5.93685C19.5789 5.0997 18.9003 4.42106 18.0632 4.42106Z" fill="#D45971"/>
<path d="M18.0631 5.17894C17.6445 5.17894 17.3052 5.51826 17.3052 5.93684C17.3052 6.35541 17.6445 6.69473 18.0631 6.69473C18.4816 6.69473 18.821 6.35541 18.821 5.93684C18.821 5.51826 18.4816 5.17894 18.0631 5.17894Z" stroke="#D45971" stroke-width="1.5" stroke-linecap="round"/>
</g>
<defs>
<clipPath id="clip0_0_372">
<rect width="24" height="24" fill="white"/>
</clipPath>
</defs>
</svg>
