<svg width="16" height="16" viewBox="0 0 16 16" fill="none" xmlns="http://www.w3.org/2000/svg">
<g clip-path="url(#clip0_0_262)">
<path d="M8.00005 10.2222V0.59259M8.00005 0.59259L10.2223 3.18518M8.00005 0.59259L5.77783 3.18518" stroke="#D45971" stroke-linecap="round" stroke-linejoin="round"/>
<path d="M5.03722 15.4076H10.9631C13.0583 15.4076 14.1058 15.4076 14.7567 14.7567C15.4076 14.1059 15.4076 13.0582 15.4076 10.9631V10.2224C15.4076 8.12727 15.4076 7.07972 14.7567 6.42883C14.1875 5.85965 13.315 5.78821 11.7039 5.77924M4.29648 5.77924C2.68534 5.78821 1.81282 5.85965 1.24365 6.42882C0.592773 7.07972 0.592773 8.12727 0.592773 10.2224V10.9631C0.592773 13.0582 0.592773 14.1059 1.24365 14.7567C1.46572 14.9788 1.73397 15.1251 2.07425 15.2215" stroke="#D45971" stroke-linecap="round"/>
</g>
<defs>
<clipPath id="clip0_0_262">
<rect width="16" height="16" fill="white"/>
</clipPath>
</defs>
</svg>
