<svg width="24" height="24" viewBox="0 0 24 24" fill="none" xmlns="http://www.w3.org/2000/svg">
<g clip-path="url(#clip0_0_62)">
<path d="M8.50879 16.2545C9.43648 16.9421 10.5647 17.3455 11.7815 17.3455C12.9983 17.3455 14.1265 16.9421 15.0542 16.2545" stroke="#1C274C" stroke-width="2" stroke-linecap="round"/>
<path d="M22.6912 12.1133V13.7727C22.6912 18.0281 22.6912 20.156 21.4131 21.4779C20.1351 22.8 18.078 22.8 13.964 22.8H9.60032C5.48624 22.8 3.42921 22.8 2.15112 21.4779C0.873047 20.156 0.873047 18.0281 0.873047 13.7727V12.1133C0.873047 9.61689 0.873047 8.36866 1.43945 7.33389C2.00585 6.29913 3.04063 5.65691 5.11017 4.3725L7.29199 3.0184C9.47965 1.66067 10.5735 0.981812 11.7821 0.981812C12.9908 0.981812 14.0846 1.66067 16.2723 3.0184L18.4541 4.37249C20.5237 5.65691 21.5584 6.29913 22.1248 7.33389" stroke="#1C274C" stroke-width="2" stroke-linecap="round"/>
</g>
<defs>
<clipPath id="clip0_0_62">
<rect width="23.5636" height="24" fill="white"/>
</clipPath>
</defs>
</svg>
