<svg width="28" height="28" viewBox="0 0 28 28" fill="none" xmlns="http://www.w3.org/2000/svg">
<g clip-path="url(#clip0_0_432)">
<path fill-rule="evenodd" clip-rule="evenodd" d="M27.2761 3.32869C27.6117 2.98126 27.7973 2.51594 27.7931 2.03295C27.7889 1.54995 27.5952 1.08793 27.2537 0.746389C26.9121 0.404848 26.4501 0.211115 25.9671 0.206918C25.4841 0.202721 25.0188 0.388395 24.6714 0.72395L14 11.3953L3.32873 0.72395C2.98131 0.388395 2.51599 0.202721 2.03299 0.206918C1.55 0.211115 1.08798 0.404848 0.746434 0.746389C0.404892 1.08793 0.21116 1.54995 0.206963 2.03295C0.202765 2.51594 0.38844 2.98126 0.723994 3.32869L11.3953 14L0.723994 24.6713C0.548055 24.8412 0.407719 25.0445 0.311176 25.2693C0.214633 25.494 0.163816 25.7357 0.161691 25.9803C0.159565 26.2249 0.206173 26.4675 0.298796 26.6939C0.391419 26.9203 0.528201 27.1259 0.701161 27.2989C0.874121 27.4718 1.0798 27.6086 1.30618 27.7013C1.53257 27.7939 1.77514 27.8405 2.01973 27.8384C2.26433 27.8362 2.50605 27.7854 2.73079 27.6889C2.95554 27.5923 3.1588 27.452 3.32873 27.2761L14 16.6047L24.6714 27.2761C25.0188 27.6116 25.4841 27.7973 25.9671 27.7931C26.4501 27.7889 26.9121 27.5952 27.2537 27.2536C27.5952 26.9121 27.7889 26.4501 27.7931 25.9671C27.7973 25.4841 27.6117 25.0187 27.2761 24.6713L16.6048 14L27.2761 3.32869Z" fill="#D45971"/>
</g>
<defs>
<clipPath id="clip0_0_432">
<rect width="28" height="28" fill="white"/>
</clipPath>
</defs>
</svg>
