<svg width="23" height="24" viewBox="0 0 23 24" fill="none" xmlns="http://www.w3.org/2000/svg">
<path fill-rule="evenodd" clip-rule="evenodd" d="M11.111 7.83331C8.80981 7.83331 6.94434 9.69879 6.94434 12C6.94434 14.3012 8.80981 16.1666 11.111 16.1666C13.4122 16.1666 15.2777 14.3012 15.2777 12C15.2777 9.69879 13.4122 7.83331 11.111 7.83331ZM8.611 12C8.611 10.6193 9.73034 9.49998 11.111 9.49998C12.4917 9.49998 13.611 10.6193 13.611 12C13.611 13.3806 12.4917 14.5 11.111 14.5C9.73034 14.5 8.611 13.3806 8.611 12Z" fill="#D45971"/>
<path fill-rule="evenodd" clip-rule="evenodd" d="M11.1112 0.055542C10.3283 0.055542 9.61328 0.270642 8.83181 0.633731C8.0757 0.985053 7.20049 1.50336 6.10513 2.15204L5.26836 2.64758C4.17264 3.29645 3.29751 3.8147 2.62312 4.31048C1.92578 4.82313 1.39091 5.34789 1.00377 6.03568C0.617255 6.72236 0.442732 7.4566 0.35901 8.32783C0.277821 9.17264 0.277821 10.2072 0.277832 11.5067V12.4933C0.277821 13.7928 0.277821 14.8273 0.35901 15.6721C0.442732 16.5434 0.617255 17.2777 1.00377 17.9643C1.39091 18.6521 1.92578 19.1769 2.62312 19.6895C3.29751 20.1853 4.17264 20.7035 5.26836 21.3524L6.10517 21.848C7.20048 22.4967 8.07572 23.015 8.83181 23.3662C9.61328 23.7293 10.3283 23.9444 11.1112 23.9444C11.8941 23.9444 12.6091 23.7293 13.3905 23.3662C14.1466 23.0149 15.0218 22.4967 16.1172 21.848L16.9539 21.3524C18.0496 20.7035 18.9248 20.1853 19.5992 19.6895C20.2966 19.1769 20.8314 18.6521 21.2186 17.9643C21.6051 17.2777 21.7796 16.5434 21.8633 15.6721C21.9445 14.8273 21.9445 13.7928 21.9445 12.4934V11.5067C21.9445 10.2073 21.9445 9.17263 21.8633 8.32783C21.7796 7.4566 21.6051 6.72236 21.2186 6.03568C20.8314 5.34789 20.2966 4.82313 19.5992 4.31048C18.9248 3.8147 18.0497 3.29646 16.9539 2.6476L16.1172 2.15204C15.0218 1.50335 14.1466 0.985053 13.3905 0.633731C12.6091 0.270642 11.8941 0.055542 11.1112 0.055542ZM6.91699 3.60825C8.05825 2.9324 8.86234 2.45733 9.53416 2.1452C10.1892 1.84083 10.6564 1.72221 11.1112 1.72221C11.5659 1.72221 12.0332 1.84083 12.6882 2.1452C13.3599 2.45733 14.1641 2.9324 15.3054 3.60825L16.0677 4.05975C17.2088 4.73551 18.0122 5.21238 18.6121 5.65332C19.1964 6.08295 19.5345 6.44161 19.7662 6.85319C19.9985 7.26586 20.1333 7.74876 20.2043 8.48726C20.2769 9.24314 20.2778 10.1978 20.2778 11.5485V12.4514C20.2778 13.8022 20.2769 14.7569 20.2043 15.5127C20.1333 16.2512 19.9985 16.7341 19.7662 17.1468C19.5345 17.5583 19.1964 17.917 18.6121 18.3467C18.0122 18.7877 17.2088 19.2644 16.0677 19.9402L15.3054 20.3918C14.1641 21.0675 13.3599 21.5427 12.6882 21.8548C12.0332 22.1591 11.5659 22.2778 11.1112 22.2778C10.6564 22.2778 10.1892 22.1591 9.53416 21.8548C8.86234 21.5427 8.05825 21.0675 6.91699 20.3918L6.1546 19.9402C5.0135 19.2644 4.21012 18.7877 3.61031 18.3467C3.0259 17.917 2.68783 17.5583 2.45617 17.1468C2.22389 16.7341 2.089 16.2512 2.01803 15.5127C1.94539 14.7569 1.9445 13.8022 1.9445 12.4514V11.5485C1.9445 10.1978 1.94539 9.24314 2.01803 8.48726C2.089 7.74876 2.22389 7.26586 2.45617 6.85319C2.68783 6.44161 3.0259 6.08295 3.61031 5.65332C4.21012 5.21238 5.0135 4.73551 6.1546 4.05975L6.91699 3.60825Z" fill="#D45971"/>
</svg>
