<svg width="24" height="24" viewBox="0 0 24 24" fill="none" xmlns="http://www.w3.org/2000/svg">
<g clip-path="url(#clip0_0_143)">
<path d="M21.9627 23.9475H2.26904C1.18535 23.9475 0.304688 22.8186 0.304688 21.4219V6.49545C0.304688 5.353 1.02451 4.4309 1.91045 4.4309L6.029 4.41734C6.16348 4.41734 6.28477 4.31903 6.34541 4.16648L7.65586 0.871333C7.82988 0.437404 8.17529 0.166199 8.55498 0.166199L15.7269 0.169589C16.0934 0.169589 16.4282 0.430624 16.597 0.847602L17.9496 4.17326C18.0103 4.32242 18.1315 4.41734 18.2634 4.42073L22.316 4.43429C23.2046 4.43429 23.9218 5.35978 23.9218 6.49884V21.4287C23.927 22.8152 23.0464 23.9475 21.9627 23.9475Z" fill="#515151"/>
<path d="M12.313 21.11C10.7731 21.11 9.32822 20.3405 8.23926 18.9404C7.15029 17.5403 6.55176 15.6825 6.55176 13.7027C6.55176 11.7229 7.15029 9.86515 8.23926 8.46505C9.32822 7.06496 10.7731 6.29541 12.313 6.29541C13.8528 6.29541 15.2978 7.06496 16.3867 8.46505C17.4757 9.86515 18.0742 11.7229 18.0742 13.7027C18.0742 15.6825 17.4757 17.5403 16.3867 18.9404C15.3004 20.3405 13.8528 21.11 12.313 21.11ZM12.313 6.92935C9.40732 6.92935 7.04482 9.96685 7.04482 13.7027C7.04482 17.4386 9.40732 20.4761 12.313 20.4761C15.2187 20.4761 17.5812 17.4386 17.5812 13.7027C17.5812 9.96685 15.2187 6.92935 12.313 6.92935Z" fill="white"/>
<path d="M18.3115 7.68538C18.3115 7.88139 18.3721 8.06937 18.4799 8.20796C18.5877 8.34656 18.7339 8.42442 18.8863 8.42442C19.0388 8.42442 19.185 8.34656 19.2928 8.20796C19.4006 8.06937 19.4611 7.88139 19.4611 7.68538C19.4611 7.48938 19.4006 7.3014 19.2928 7.16281C19.185 7.02421 19.0388 6.94635 18.8863 6.94635C18.7339 6.94635 18.5877 7.02421 18.4799 7.16281C18.3721 7.3014 18.3115 7.48938 18.3115 7.68538Z" fill="#FFE000"/>
<path d="M4.88193 3.61053H3.22607C2.95713 3.61053 2.73828 3.32915 2.73828 2.98336C2.73828 2.63758 2.95713 2.3562 3.22607 2.3562H4.88193C5.15088 2.3562 5.36973 2.63758 5.36973 2.98336C5.36973 3.32915 5.15088 3.61053 4.88193 3.61053Z" fill="#565656"/>
</g>
<defs>
<clipPath id="clip0_0_143">
<rect width="24" height="24" fill="white"/>
</clipPath>
</defs>
</svg>
