<svg width="24" height="24" viewBox="0 0 24 24" fill="none" xmlns="http://www.w3.org/2000/svg">
<g clip-path="url(#clip0_0_129)">
<path fill-rule="evenodd" clip-rule="evenodd" d="M14.4587 4C14.4587 1.79086 16.5031 0 19.0249 0C21.5466 0 23.591 1.79086 23.591 4C23.591 6.20914 21.5466 8 19.0249 8C17.7515 8 16.6007 7.54315 15.7734 6.80816L9.45241 10.5954C9.51077 10.851 9.54145 11.115 9.54145 11.3846C9.54145 11.9186 9.42145 12.4291 9.20408 12.8957L16.135 16.903C16.9217 16.3393 17.9282 16 19.0249 16C21.5466 16 23.591 17.7908 23.591 20C23.591 22.2091 21.5466 24 19.0249 24C16.5031 24 14.4587 22.2091 14.4587 20C14.4587 19.4214 14.5995 18.8706 14.8524 18.3733L7.97746 14.3984C7.17549 15.0118 6.125 15.3846 4.97529 15.3846C2.4535 15.3846 0.40918 13.5937 0.40918 11.3846C0.40918 9.17548 2.4535 7.38462 4.97529 7.38462C6.42541 7.38462 7.71627 7.9767 8.55207 8.89822L14.6781 5.2277C14.5356 4.84031 14.4587 4.42752 14.4587 4Z" fill="#007BFF"/>
</g>
<defs>
<clipPath id="clip0_0_129">
<rect width="24" height="24" fill="white"/>
</clipPath>
</defs>
</svg>
