<svg width="20" height="20" viewBox="0 0 20 20" fill="none" xmlns="http://www.w3.org/2000/svg">
<g clip-path="url(#clip0_0_456)">
<path d="M14.8434 10C14.8442 11.1399 14.4427 12.2434 13.7096 13.1163C12.9765 13.9891 11.9588 14.5753 10.836 14.7714C9.71311 14.9675 8.55705 14.7611 7.57145 14.1885C6.58586 13.6159 5.83396 12.7138 5.44824 11.6412L2.67773 13.8576C3.53921 15.4952 4.92453 16.7969 6.61251 17.5549C8.30049 18.3129 10.1938 18.4835 11.9901 18.0394C13.7863 17.5953 15.382 16.5621 16.5223 15.1049C17.6626 13.6477 18.2818 11.8504 18.2809 10" fill="#00AC47"/>
<path d="M14.8438 10C14.8431 10.7706 14.6584 11.5299 14.3049 12.2147C13.9514 12.8995 13.4394 13.4899 12.8115 13.9367L15.5505 16.1279C16.4094 15.3546 17.0963 14.4096 17.5667 13.3539C18.0371 12.2983 18.2806 11.1557 18.2813 10" fill="#4285F4"/>
<path d="M5.15625 9.99999C5.15745 9.44008 5.25637 8.88469 5.44857 8.3588L2.67806 6.14243C2.04811 7.33066 1.71875 8.65509 1.71875 9.99999C1.71875 11.3449 2.04811 12.6693 2.67806 13.8575L5.44857 11.6412C5.25637 11.1153 5.15745 10.5599 5.15625 9.99999Z" fill="#FFBA00"/>
<path d="M9.99968 5.15626C11.0246 5.15654 12.0226 5.48407 12.8484 6.09113L15.3859 3.72282C14.444 2.91067 13.3308 2.32173 12.1294 1.99996C10.928 1.67818 9.66945 1.63188 8.44767 1.86451C7.22588 2.09714 6.07241 2.60268 5.07332 3.34342C4.07424 4.08416 3.25534 5.04097 2.67773 6.14244L5.44824 8.35882C5.78612 7.42217 6.40425 6.6123 7.21859 6.03931C8.03292 5.46631 9.00396 5.15799 9.99968 5.15626Z" fill="#EA4435"/>
<path d="M18.2813 9.375V10L16.875 12.1875H10.3125V8.75H17.6563C17.822 8.75 17.981 8.81585 18.0982 8.93306C18.2154 9.05027 18.2813 9.20924 18.2813 9.375Z" fill="#4285F4"/>
</g>
<defs>
<clipPath id="clip0_0_456">
<rect width="20" height="20" fill="white"/>
</clipPath>
</defs>
</svg>
